<?xml version="1.0" encoding="UTF-8"?>
<svg id="uuid-b0272ea8-d483-4731-ab86-7400d47091d0" xmlns="http://www.w3.org/2000/svg" viewBox="0 0 1100 800" focusable="false" aria-hidden="true">
  <polygon points="500 0 450 0 450 350 1100 350 1100 300 500 300 500 0" style="fill:#fff;"/><polygon points="450 450 450 800 500 800 500 500 1100 500 1100 450 450 450" style="fill:#fff;"/><polygon points="350 450 0 450 0 500 300 500 300 800 350 800 350 450" style="fill:#fff;"/><polygon points="350 350 350 0 300 0 300 300 0 300 0 350 350 350" style="fill:#fff;"/><rect width="300" height="300" style="fill:#ef2b2d;"/><rect x="500" width="600" height="300" style="fill:#ef2b2d;"/><rect y="500" width="300" height="300" style="fill:#ef2b2d;"/><rect x="500" y="500" width="600" height="300" style="fill:#ef2b2d;"/><polygon points="450 350 450 0 350 0 350 350 0 350 0 450 350 450 350 800 450 800 450 450 1100 450 1100 350 450 350" style="fill:#002868;"/></svg>