<?xml version="1.0" encoding="UTF-8"?>
<svg xmlns="http://www.w3.org/2000/svg" version="1.1" viewBox="0 0 380 101.717">
  <g>
    <g id="Layer_1">
      <path d="M.146,101.717h101.717V0H.146v101.717ZM51.076,70.495c-17.466,0-31.628-7.724-31.628-17.253s14.134-17.233,31.576-17.248l-.004-8.506c5.406,0,10.567.739,15.016,2.043l-14.935,15.052v8.659l14.935-15.204c9.932,2.908,16.675,8.627,16.675,15.204,0,9.529-14.167,17.253-31.635,17.253"/>
      <path d="M134.528,66.019c-1.864,0-3.54-.209-5.031-.631-1.491-.423-2.773-1.034-3.843-1.83-1.068-.795-1.893-1.784-2.475-2.962-.587-1.178-.9-2.516-.949-4.007h6.407c.175,1.516.751,2.62,1.735,3.316.979.696,2.366,1.044,4.156,1.044.622,0,1.218-.06,1.79-.184.571-.124,1.078-.319,1.526-.582.447-.258.8-.591,1.063-1.004.259-.408.393-.9.393-1.472,0-.596-.145-1.093-.432-1.491-.283-.397-.701-.73-1.248-1.004-.547-.273-1.218-.517-2.013-.73-.796-.209-1.69-.428-2.68-.652-1.342-.298-2.609-.631-3.802-1.004-1.194-.373-2.238-.865-3.132-1.471-.895-.612-1.596-1.382-2.108-2.312-.506-.934-.765-2.117-.765-3.559s.273-2.684.82-3.728c.546-1.044,1.307-1.909,2.276-2.59.97-.686,2.113-1.193,3.431-1.531,1.317-.333,2.743-.502,4.284-.502,1.516,0,2.918.174,4.211.522,1.292.348,2.411.87,3.355,1.566.945.696,1.7,1.561,2.272,2.59.572,1.028.909,2.231,1.009,3.599h-6.223c-.175-1.094-.672-1.939-1.492-2.536-.82-.596-1.929-.894-3.32-.894-1.318,0-2.372.258-3.167.78-.796.522-1.193,1.218-1.193,2.088,0,.547.149.994.447,1.342.299.348.736.651,1.308.915.571.258,1.272.492,2.103.69.835.199,1.794.418,2.888.672,1.242.268,2.441.601,3.599.984,1.153.388,2.172.9,3.057,1.546.879.646,1.586,1.456,2.122,2.426.532.969.801,2.187.801,3.648,0,1.442-.284,2.719-.855,3.823-.572,1.103-1.363,2.038-2.367,2.794-1.008.76-2.187,1.337-3.544,1.734-1.351.398-2.823.597-4.414.597"/>
      <path d="M156.703,56.701l-1.974,2.048v6.602h-5.78v-27.733h5.78v8.644c0,1.471-.02,2.734-.059,3.803-.035,1.069-.08,1.929-.13,2.575l6.523-7.119h6.785l-7.083,7.343,7.903,12.487h-6.785l-5.18-8.65Z"/>
      <path d="M182.906,65.348c-.149-.224-.288-.542-.412-.95-.125-.412-.209-.9-.259-1.471h-.074c-.647.919-1.422,1.64-2.327,2.162-.91.517-2.132.781-3.674.781-.968,0-1.869-.13-2.704-.393-.83-.259-1.551-.641-2.162-1.133-.607-.498-1.079-1.129-1.416-1.885-.333-.755-.503-1.62-.503-2.589,0-1.094.209-1.999.616-2.72.409-.72.965-1.307,1.661-1.754.696-.447,1.511-.791,2.456-1.024.944-.234,1.963-.418,3.057-.542,1.764-.249,3.037-.547,3.822-.895.781-.348,1.174-.895,1.174-1.64,0-.721-.234-1.298-.707-1.73-.471-.438-1.218-.656-2.236-.656-1.119,0-1.959.238-2.516.711-.562.472-.879,1.103-.954,1.898h-5.404c.026-.845.224-1.665.597-2.46.373-.796.919-1.496,1.641-2.103.72-.611,1.625-1.093,2.719-1.456,1.094-.358,2.375-.537,3.842-.537,1.268,0,2.361.089,3.281.278.915.184,1.725.492,2.421.915,1.044.596,1.805,1.397,2.291,2.401.482,1.009.726,2.182.726,3.524v10.176c0,1.516.248,2.435.746,2.759v.333h-5.702ZM177.985,62.032c1.317,0,2.366-.363,3.152-1.084.78-.72,1.173-1.625,1.173-2.719v-2.57c-.423.269-.94.487-1.546.651-.612.16-1.238.319-1.884.463-1.293.278-2.248.611-2.868,1.009-.622.397-.935,1.029-.935,1.899s.288,1.481.86,1.829c.571.348,1.253.522,2.048.522"/>
      <path d="M190.472,45.519h2.982v-6.338h5.742v6.338h3.872v3.728h-3.872v9.838c0,.745.189,1.247.577,1.511.382.258.924.393,1.62.393.199,0,.423-.01.671-.02.249-.015.472-.03.671-.055h.299v4.36c-.323.049-.771.109-1.343.183-.572.075-1.257.115-2.052.115-.92,0-1.755-.08-2.511-.244-.76-.159-1.412-.447-1.958-.855-.548-.412-.97-.944-1.268-1.605-.298-.656-.448-1.497-.448-2.516v-11.105h-2.982v-3.728Z"/>
      <path d="M204.784,45.519h2.982v-6.338h5.742v6.338h3.872v3.728h-3.872v9.838c0,.745.189,1.247.577,1.511.382.258.924.393,1.62.393.199,0,.422-.01.671-.02.249-.015.472-.03.671-.055h.299v4.36c-.324.049-.771.109-1.343.183-.572.075-1.257.115-2.052.115-.92,0-1.755-.08-2.511-.244-.76-.159-1.412-.447-1.958-.855-.548-.412-.97-.944-1.268-1.605-.298-.656-.448-1.497-.448-2.516v-11.105h-2.982v-3.728Z"/>
      <path d="M229.979,65.945c-1.615,0-3.067-.269-4.36-.801-1.292-.537-2.391-1.272-3.3-2.222-.905-.939-1.601-2.048-2.088-3.315-.482-1.268-.726-2.645-.726-4.136s.249-2.878.746-4.156c.497-1.282,1.193-2.391,2.088-3.335.895-.945,1.964-1.686,3.206-2.217,1.243-.537,2.62-.801,4.136-.801,1.417,0,2.689.219,3.823.666,1.128.453,2.127,1.074,2.997,1.865,1.118,1.098,1.939,2.45,2.461,4.066.521,1.615.77,3.405.745,5.363h-14.46c.199,1.492.696,2.66,1.492,3.505.789.845,1.898,1.267,3.315,1.267.919,0,1.67-.169,2.256-.502.582-.338,1.035-.815,1.358-1.436h5.667c-.249.87-.642,1.685-1.174,2.441-.537.76-1.193,1.416-1.978,1.978-.781.557-1.695.994-2.739,1.302-1.044.314-2.197.468-3.465.468M229.681,49.098c-1.342,0-2.361.398-3.057,1.193-.696.795-1.144,1.874-1.342,3.241h8.461c-.1-1.392-.508-2.48-1.229-3.261-.72-.78-1.665-1.173-2.833-1.173"/>
      <path d="M252.193,65.945c-1.615,0-3.067-.269-4.359-.801-1.293-.537-2.391-1.272-3.301-2.222-.905-.939-1.6-2.048-2.088-3.315-.482-1.268-.726-2.645-.726-4.136s.249-2.878.746-4.156c.497-1.282,1.193-2.391,2.088-3.335.894-.945,1.964-1.686,3.206-2.217,1.243-.537,2.619-.801,4.136-.801,1.417,0,2.689.219,3.817.666,1.134.453,2.133,1.074,3.003,1.865,1.118,1.098,1.939,2.45,2.461,4.066.522,1.615.77,3.405.745,5.363h-14.46c.198,1.492.696,2.66,1.491,3.505.791.845,1.899,1.267,3.316,1.267.919,0,1.669-.169,2.256-.502.582-.338,1.035-.815,1.357-1.436h5.667c-.248.87-.641,1.685-1.173,2.441-.537.76-1.193,1.416-1.979,1.978-.78.557-1.695.994-2.738,1.302-1.044.314-2.197.468-3.465.468M251.895,49.098c-1.343,0-2.361.398-3.058,1.193-.695.795-1.143,1.874-1.341,3.241h8.46c-.1-1.392-.507-2.48-1.228-3.261-.721-.78-1.665-1.173-2.833-1.173"/>
      <path d="M263.338,45.519h2.982v-6.338h5.742v6.338h3.872v3.728h-3.872v9.838c0,.745.189,1.247.576,1.511.383.258.925.393,1.621.393.199,0,.423-.01.671-.02.249-.015.472-.03.671-.055h.299v4.36c-.323.049-.771.109-1.343.183-.572.075-1.257.115-2.052.115-.92,0-1.755-.08-2.511-.244-.76-.159-1.412-.447-1.958-.855-.547-.412-.97-.944-1.268-1.605-.298-.656-.448-1.497-.448-2.516v-11.105h-2.982v-3.728Z"/>
      <path d="M292.074,65.348c-.149-.224-.288-.542-.407-.95-.13-.412-.214-.9-.264-1.471h-.075c-.646.919-1.421,1.64-2.326,2.162-.91.517-2.132.781-3.674.781-.968,0-1.868-.13-2.703-.393-.831-.259-1.552-.641-2.163-1.133-.606-.498-1.079-1.129-1.416-1.885-.334-.755-.503-1.62-.503-2.589,0-1.094.209-1.999.617-2.72.407-.72.964-1.307,1.66-1.754.696-.447,1.511-.791,2.456-1.024.944-.234,1.963-.418,3.057-.542,1.764-.249,3.037-.547,3.822-.895.781-.348,1.173-.895,1.173-1.64,0-.721-.233-1.298-.705-1.73-.473-.438-1.218-.656-2.238-.656-1.118,0-1.958.238-2.515.711-.561.472-.88,1.103-.954,1.898h-5.404c.025-.845.224-1.665.597-2.46.373-.796.919-1.496,1.641-2.103.72-.611,1.625-1.093,2.718-1.456,1.094-.358,2.377-.537,3.843-.537,1.268,0,2.361.089,3.281.278.915.184,1.725.492,2.421.915,1.044.596,1.804,1.397,2.291,2.401.487,1.009.731,2.182.731,3.524v10.176c0,1.516.244,2.435.741,2.759v.333h-5.702ZM287.153,62.032c1.317,0,2.366-.363,3.152-1.084.78-.72,1.172-1.625,1.172-2.719v-2.57c-.422.269-.939.487-1.546.651-.611.16-1.237.319-1.883.463-1.293.278-2.247.611-2.869,1.009-.621.397-.934,1.029-.934,1.899s.288,1.481.86,1.829c.571.348,1.252.522,2.048.522"/>
      <path d="M299.641,45.519h2.977v-6.338h5.742v6.338h3.877v3.728h-3.877v9.838c0,.745.194,1.247.581,1.511.383.258.925.393,1.621.393.198,0,.422-.01.671-.02.248-.015.472-.03.671-.055h.298v4.36c-.323.049-.775.109-1.342.183-.576.075-1.258.115-2.053.115-.92,0-1.755-.08-2.515-.244-.756-.159-1.412-.447-1.954-.855-.547-.412-.969-.944-1.267-1.605-.299-.656-.453-1.497-.453-2.516v-11.105h-2.977v-3.728Z"/>
      <path d="M324.834,65.945c-1.615,0-3.071-.269-4.359-.801-1.292-.537-2.396-1.272-3.3-2.222-.91-.939-1.601-2.048-2.088-3.315-.482-1.268-.726-2.645-.726-4.136s.249-2.878.746-4.156c.497-1.282,1.193-2.391,2.088-3.335.894-.945,1.963-1.686,3.206-2.217,1.242-.537,2.619-.801,4.135-.801,1.417,0,2.689.219,3.817.666,1.134.453,2.133,1.074,3.002,1.865,1.119,1.098,1.939,2.45,2.461,4.066.522,1.615.771,3.405.746,5.363h-14.46c.2,1.492.696,2.66,1.492,3.505.79.845,1.898,1.267,3.315,1.267.919,0,1.67-.169,2.256-.502.582-.338,1.035-.815,1.357-1.436h5.667c-.248.87-.641,1.685-1.173,2.441-.537.76-1.193,1.416-1.978,1.978-.781.557-1.695.994-2.739,1.302-1.044.314-2.197.468-3.465.468M324.536,49.098c-1.342,0-2.361.398-3.057,1.193-.695.795-1.143,1.874-1.342,3.241h8.461c-.1-1.392-.508-2.48-1.229-3.261-.72-.78-1.665-1.173-2.833-1.173"/>
      <path d="M343.171,48.538h.114c.616-1.193,1.447-2.088,2.476-2.684,1.034-.597,2.242-.895,3.639-.895,2.182,0,3.877.666,5.084,1.993,1.204,1.332,1.805,3.117,1.805,5.349v13.049h-5.811v-11.931c0-1.093-.278-1.968-.84-2.624-.557-.661-1.387-.99-2.476-.99-1.143,0-2.062.413-2.763,1.233-.691.816-1.039,1.859-1.039,3.127v11.185h-5.851v-19.829h5.662v3.017Z"/>
    </g>
  </g>
</svg>