<?xml version="1.0" encoding="UTF-8"?>
<svg id="Layer_1" data-name="Layer 1" xmlns="http://www.w3.org/2000/svg" xmlns:xlink="http://www.w3.org/1999/xlink" viewBox="0 0 200 200">
  <defs>
    <style>
      .cls-1 {
        fill: none;
      }

      .cls-2 {
        fill: #cde1f9;
      }

      .cls-3 {
        fill: #fff;
        stroke: url(#New_Pattern_Swatch_2);
        stroke-miterlimit: 10;
        stroke-width: 4px;
      }

      .cls-4 {
        fill: #093e61;
      }

      .cls-5 {
        fill: #1362ae;
      }

      .cls-6 {
        fill: url(#New_Pattern_Swatch_4);
      }
    </style>
    <pattern id="New_Pattern_Swatch_2" data-name="New Pattern Swatch 2" x="0" y="0" width="115.45" height="115.45" patternTransform="translate(-1495.45 2012.59) scale(.79 1.39)" patternUnits="userSpaceOnUse" viewBox="0 0 115.45 115.45">
      <g>
        <rect class="cls-1" width="115.45" height="115.45"/>
        <rect class="cls-5" width="115.45" height="115.45"/>
      </g>
    </pattern>
    <pattern id="New_Pattern_Swatch_4" data-name="New Pattern Swatch 4" x="0" y="0" width="115.45" height="115.45" patternTransform="translate(-2414.89 -2528.86) scale(.7)" patternUnits="userSpaceOnUse" viewBox="0 0 115.45 115.45">
      <g>
        <rect class="cls-1" width="115.45" height="115.45"/>
        <rect class="cls-2" width="115.45" height="115.45"/>
      </g>
    </pattern>
  </defs>
  <rect class="cls-4" x="83.35" y="62.69" width="88.89" height="10"/>
  <line class="cls-3" x1="27.76" y1="55.01" x2="27.76" y2="144.99"/>
  <g>
    <rect class="cls-4" x="130.14" y="92.69" width="42.11" height="10"/>
    <rect class="cls-4" x="47.63" y="92.69" width="70.83" height="10"/>
  </g>
  <rect class="cls-4" x="47.63" y="122.69" width="78.68" height="10"/>
  <path class="cls-6" d="M57.97,55.23v7.19l-6.16,5.29,6.16,5.26v7.19l-10.33-8.85v-7.19l10.33-8.88ZM61.02,64.11l10.33-8.88v7.19l-6.16,5.29,6.16,5.26v7.19l-10.33-8.85v-7.19Z"/>
  <path class="cls-6" d="M146.91,140.16v-7.19s6.16-5.29,6.16-5.29l-6.16-5.26v-7.19s10.33,8.85,10.33,8.85v7.19s-10.33,8.88-10.33,8.88ZM143.86,131.27l-10.33,8.88v-7.19s6.16-5.29,6.16-5.29l-6.16-5.26v-7.19s10.33,8.85,10.33,8.85v7.19Z"/>
</svg>