<?xml version="1.0" encoding="UTF-8"?>
<svg id="Layer_1" data-name="Layer 1" xmlns="http://www.w3.org/2000/svg" xmlns:xlink="http://www.w3.org/1999/xlink" viewBox="0 0 200 200">
  <defs>
    <style>
      .cls-1, .cls-2, .cls-3, .cls-4, .cls-5, .cls-6, .cls-7 {
        fill: none;
      }

      .cls-8 {
        fill: #cde1f9;
      }

      .cls-2 {
        fill-rule: evenodd;
      }

      .cls-2, .cls-3 {
        stroke-width: 4px;
      }

      .cls-2, .cls-3, .cls-4, .cls-5, .cls-6, .cls-7 {
        stroke-miterlimit: 10;
      }

      .cls-2, .cls-4, .cls-5 {
        stroke: #093e61;
      }

      .cls-9 {
        fill: #fff;
      }

      .cls-10 {
        fill: #093e61;
      }

      .cls-3 {
        stroke: url(#New_Pattern_Swatch_2);
      }

      .cls-11 {
        fill: #1362ae;
      }

      .cls-4, .cls-7 {
        stroke-width: 6px;
      }

      .cls-5 {
        stroke-width: 10px;
      }

      .cls-12 {
        fill: url(#New_Pattern_Swatch_4);
      }

      .cls-13 {
        fill: url(#New_Pattern_Swatch_1);
      }

      .cls-14 {
        fill: url(#New_Pattern_Swatch_2);
      }

      .cls-6 {
        stroke: #fff;
        stroke-width: 2px;
      }

      .cls-7 {
        stroke: url(#New_Pattern_Swatch_2-2);
      }
    </style>
    <pattern id="New_Pattern_Swatch_4" data-name="New Pattern Swatch 4" x="0" y="0" width="115.45" height="115.45" patternTransform="translate(-2492.55 -1215.78) scale(.7)" patternUnits="userSpaceOnUse" viewBox="0 0 115.45 115.45">
      <g>
        <rect class="cls-1" width="115.45" height="115.45"/>
        <rect class="cls-8" width="115.45" height="115.45"/>
      </g>
    </pattern>
    <pattern id="New_Pattern_Swatch_1" data-name="New Pattern Swatch 1" x="0" y="0" width="115.45" height="115.45" patternTransform="translate(-1424.39 5234.88) scale(.86 1.51)" patternUnits="userSpaceOnUse" viewBox="0 0 115.45 115.45">
      <g>
        <rect class="cls-1" width="115.45" height="115.45"/>
        <rect class="cls-10" width="115.45" height="115.45"/>
      </g>
    </pattern>
    <pattern id="New_Pattern_Swatch_2" data-name="New Pattern Swatch 2" x="0" y="0" width="115.45" height="115.45" patternTransform="translate(-3940.56 -976.03) rotate(9.07) scale(.63)" patternUnits="userSpaceOnUse" viewBox="0 0 115.45 115.45">
      <g>
        <rect class="cls-1" width="115.45" height="115.45"/>
        <rect class="cls-11" width="115.45" height="115.45"/>
      </g>
    </pattern>
    <pattern id="New_Pattern_Swatch_2-2" data-name="New Pattern Swatch 2" patternTransform="translate(-1362.45 96.71) scale(.86)" xlink:href="#New_Pattern_Swatch_2"/>
  </defs>
  <circle class="cls-12" cx="127.16" cy="114.67" r="55.44"/>
  <g>
    <g>
      <rect class="cls-9" x="27.11" y="32.83" width="128.74" height="113.23" rx="4" ry="4"/>
      <path class="cls-13" d="M151.86,36.83v105.23H31.11V36.83h120.74M151.86,32.83H31.11c-2.21,0-4,1.79-4,4v105.23c0,2.21,1.79,4,4,4h120.74c2.21,0,4-1.79,4-4V36.83c0-2.21-1.79-4-4-4h0Z"/>
    </g>
    <line class="cls-5" x1="41.62" y1="78.16" x2="138.16" y2="78.16"/>
    <line class="cls-4" x1="105.85" y1="94.4" x2="138.16" y2="94.4"/>
    <line class="cls-4" x1="41.62" y1="94.4" x2="99.04" y2="94.4"/>
    <line class="cls-4" x1="76.32" y1="106.88" x2="108.36" y2="106.88"/>
    <line class="cls-4" x1="41.62" y1="106.88" x2="70.26" y2="106.88"/>
    <g>
      <polygon class="cls-14" points="44.71 132.95 42.16 132.65 41.92 130.09 44.71 132.95 44.71 132.95"/>
      <line class="cls-3" x1="50.73" y1="124.28" x2="43.32" y2="131.52"/>
    </g>
    <line class="cls-7" x1="58.78" y1="127.9" x2="94.31" y2="127.9"/>
    <polyline class="cls-2" points="29.12 60.93 43.32 60.93 49.26 66.28 54.48 60.93 154.21 60.93"/>
  </g>
  <g>
    <polygon class="cls-10" points="54.47 53.87 36.9 53.87 45.68 39.94 54.47 53.87"/>
    <line class="cls-6" x1="45.68" y1="44.95" x2="45.68" y2="49.21"/>
    <line class="cls-6" x1="45.68" y1="50.65" x2="45.68" y2="52"/>
  </g>
  <line class="cls-4" x1="63.01" y1="47.96" x2="138.16" y2="47.96"/>
</svg>