<?xml version="1.0" encoding="UTF-8"?>
<svg id="Layer_1" data-name="Layer 1" xmlns="http://www.w3.org/2000/svg" xmlns:xlink="http://www.w3.org/1999/xlink" viewBox="0 0 200 200">
  <defs>
    <style>
      .cls-1, .cls-2, .cls-3, .cls-4, .cls-5 {
        fill: none;
      }

      .cls-6 {
        fill: #cde1f9;
      }

      .cls-7 {
        fill: url(#New_Pattern_Swatch_1-3);
      }

      .cls-8 {
        fill: url(#New_Pattern_Swatch_1-2);
      }

      .cls-9, .cls-10 {
        fill: #fff;
      }

      .cls-11 {
        fill: #093e61;
      }

      .cls-2, .cls-10 {
        stroke-width: 4px;
      }

      .cls-2, .cls-10, .cls-3, .cls-4, .cls-5 {
        stroke-miterlimit: 10;
      }

      .cls-2, .cls-10, .cls-4, .cls-5 {
        stroke: #093e61;
      }

      .cls-12 {
        fill: #1362ae;
      }

      .cls-3 {
        stroke: url(#New_Pattern_Swatch_2);
        stroke-width: 2px;
      }

      .cls-4 {
        stroke-width: 6px;
      }

      .cls-5 {
        stroke-width: 10px;
      }

      .cls-13 {
        fill: url(#New_Pattern_Swatch_4);
      }

      .cls-14 {
        fill: url(#New_Pattern_Swatch_1);
      }
    </style>
    <pattern id="New_Pattern_Swatch_4" data-name="New Pattern Swatch 4" x="0" y="0" width="115.45" height="115.45" patternTransform="translate(-2643.15 -1737.51) scale(.7)" patternUnits="userSpaceOnUse" viewBox="0 0 115.45 115.45">
      <g>
        <rect class="cls-1" width="115.45" height="115.45"/>
        <rect class="cls-6" width="115.45" height="115.45"/>
      </g>
    </pattern>
    <pattern id="New_Pattern_Swatch_1" data-name="New Pattern Swatch 1" x="0" y="0" width="115.45" height="115.45" patternTransform="translate(-514.58 561.37)" patternUnits="userSpaceOnUse" viewBox="0 0 115.45 115.45">
      <g>
        <rect class="cls-1" width="115.45" height="115.45"/>
        <rect class="cls-11" width="115.45" height="115.45"/>
      </g>
    </pattern>
    <pattern id="New_Pattern_Swatch_1-2" data-name="New Pattern Swatch 1" patternTransform="translate(-512.58 596.59)" xlink:href="#New_Pattern_Swatch_1"/>
    <pattern id="New_Pattern_Swatch_1-3" data-name="New Pattern Swatch 1" patternTransform="translate(-514.58 603.48) scale(1 1.02)" xlink:href="#New_Pattern_Swatch_1"/>
    <pattern id="New_Pattern_Swatch_2" data-name="New Pattern Swatch 2" x="0" y="0" width="115.45" height="115.45" patternTransform="translate(-567.27 180.96)" patternUnits="userSpaceOnUse" viewBox="0 0 115.45 115.45">
      <g>
        <rect class="cls-1" width="115.45" height="115.45"/>
        <rect class="cls-12" width="115.45" height="115.45"/>
      </g>
    </pattern>
  </defs>
  <circle class="cls-13" cx="138.88" cy="79.92" r="55.44"/>
  <g>
    <g>
      <rect class="cls-14" x="19.75" y="39.76" width="162.5" height="117.43"/>
      <path class="cls-8" d="M180.25,41.76v113.43H21.75V41.76h158.5M182.25,39.76H19.75v117.43h162.5V39.76h0Z"/>
    </g>
    <g>
      <rect class="cls-9" x="17.75" y="34.48" width="162.5" height="120"/>
      <path class="cls-7" d="M178.25,36.48v116H19.75V36.48h158.5M180.25,34.48H17.75v120h162.5V34.48h0Z"/>
    </g>
    <line class="cls-5" x1="69.11" y1="57.3" x2="162.18" y2="57.3"/>
  </g>
  <rect class="cls-11" x="17.75" y="34.48" width="37.25" height="120"/>
  <g>
    <polygon class="cls-9" points="45.16 60.94 27.59 60.94 36.37 47 45.16 60.94"/>
    <line class="cls-3" x1="36.37" y1="52.02" x2="36.37" y2="56.27"/>
    <line class="cls-3" x1="36.37" y1="57.72" x2="36.37" y2="59.06"/>
  </g>
  <line class="cls-4" x1="96.4" y1="108.4" x2="162.18" y2="108.4"/>
  <line class="cls-4" x1="96.01" y1="85.33" x2="162.18" y2="85.33"/>
  <g>
    <line class="cls-10" x1="69.11" y1="85.51" x2="85.14" y2="85.22"/>
    <polyline class="cls-2" points="78.95 78.14 85.14 85.22 79.22 92.52"/>
  </g>
  <g>
    <line class="cls-10" x1="69.11" y1="108.59" x2="85.14" y2="108.29"/>
    <polyline class="cls-2" points="78.95 101.21 85.14 108.29 79.22 115.59"/>
  </g>
  <line class="cls-4" x1="96.4" y1="131.48" x2="162.18" y2="131.48"/>
  <g>
    <line class="cls-10" x1="69.11" y1="131.66" x2="85.14" y2="131.36"/>
    <polyline class="cls-2" points="78.95 124.28 85.14 131.36 79.22 138.67"/>
  </g>
</svg>