<?xml version="1.0" encoding="UTF-8"?>
<svg id="Layer_1" data-name="Layer 1" xmlns="http://www.w3.org/2000/svg" xmlns:xlink="http://www.w3.org/1999/xlink" viewBox="0 0 200 200">
  <defs>
    <style>
      .cls-1, .cls-2, .cls-3 {
        fill: none;
      }

      .cls-4 {
        fill: #9ccff2;
      }

      .cls-2 {
        stroke: url(#New_Pattern_Swatch_3-2);
      }

      .cls-2, .cls-3 {
        stroke-miterlimit: 10;
        stroke-width: 2px;
      }

      .cls-5 {
        fill: #093e61;
      }

      .cls-3 {
        stroke: url(#New_Pattern_Swatch_3);
      }

      .cls-6 {
        fill: url(#New_Pattern_Swatch_1);
      }
    </style>
    <pattern id="New_Pattern_Swatch_1" data-name="New Pattern Swatch 1" x="0" y="0" width="115.45" height="115.45" patternTransform="translate(-41.38 -1270)" patternUnits="userSpaceOnUse" viewBox="0 0 115.45 115.45">
      <g>
        <rect class="cls-1" width="115.45" height="115.45"/>
        <rect class="cls-5" width="115.45" height="115.45"/>
      </g>
    </pattern>
    <pattern id="New_Pattern_Swatch_3" data-name="New Pattern Swatch 3" x="0" y="0" width="115.45" height="115.45" patternTransform="translate(-31.38 -1270)" patternUnits="userSpaceOnUse" viewBox="0 0 115.45 115.45">
      <g>
        <rect class="cls-1" width="115.45" height="115.45"/>
        <rect class="cls-4" width="115.45" height="115.45"/>
      </g>
    </pattern>
    <pattern id="New_Pattern_Swatch_3-2" data-name="New Pattern Swatch 3" patternTransform="translate(-31.38 -1201.46)" xlink:href="#New_Pattern_Swatch_3"/>
  </defs>
  <g>
    <path class="cls-6" d="M69.53,65.73l25.17,67.32h-15.37l-5.09-14.99h-25.17l-5.28,14.99h-14.9l25.46-67.32h15.18ZM70.38,107.02l-8.48-24.7h-.19l-8.77,24.7h17.44Z"/>
    <path class="cls-6" d="M102.34,99.29c.19-3.14.97-5.75,2.36-7.83,1.38-2.07,3.14-3.74,5.28-5,2.14-1.26,4.54-2.15,7.21-2.69,2.67-.53,5.36-.8,8.06-.8,2.45,0,4.93.17,7.45.52,2.51.35,4.81,1.02,6.88,2.03,2.07,1.01,3.77,2.4,5.09,4.2,1.32,1.79,1.98,4.16,1.98,7.12v25.36c0,2.2.13,4.31.38,6.32.25,2.01.69,3.52,1.32,4.53h-13.58c-.25-.75-.46-1.52-.61-2.31-.16-.79-.27-1.59-.33-2.4-2.14,2.2-4.65,3.74-7.54,4.62-2.89.88-5.85,1.32-8.86,1.32-2.33,0-4.49-.28-6.5-.85-2.01-.57-3.77-1.45-5.28-2.64-1.51-1.19-2.69-2.7-3.54-4.53-.85-1.82-1.27-3.99-1.27-6.5,0-2.77.49-5.04,1.46-6.84.97-1.79,2.23-3.22,3.77-4.29,1.54-1.07,3.3-1.87,5.28-2.4,1.98-.53,3.97-.96,5.99-1.27,2.01-.31,3.99-.57,5.94-.75,1.95-.19,3.68-.47,5.19-.85,1.51-.38,2.7-.93,3.58-1.65.88-.72,1.29-1.78,1.23-3.16,0-1.45-.24-2.59-.71-3.44-.47-.85-1.1-1.51-1.89-1.98-.79-.47-1.7-.79-2.73-.94-1.04-.16-2.15-.24-3.35-.24-2.64,0-4.71.57-6.22,1.7-1.51,1.13-2.39,3.02-2.64,5.66h-13.39ZM133.26,109.19c-.57.5-1.27.9-2.12,1.18-.85.28-1.76.52-2.73.71-.98.19-2,.35-3.06.47-1.07.13-2.14.28-3.21.47-1.01.19-2,.44-2.97.75-.98.31-1.82.74-2.55,1.27-.72.53-1.31,1.21-1.74,2.03-.44.82-.66,1.86-.66,3.11s.22,2.2.66,3.02c.44.82,1.04,1.46,1.79,1.93.75.47,1.63.8,2.64.99,1,.19,2.04.28,3.11.28,2.64,0,4.68-.44,6.13-1.32,1.45-.88,2.51-1.93,3.21-3.16.69-1.23,1.12-2.47,1.27-3.72.16-1.26.24-2.26.24-3.02v-5Z"/>
  </g>
  <line class="cls-3" x1="165" y1="134.22" x2="165" y2="65.73"/>
  <line class="cls-3" x1="158.9" y1="65.73" x2="171.11" y2="65.73"/>
  <line class="cls-2" x1="158.9" y1="134.27" x2="171.11" y2="134.27"/>
</svg>