<?xml version="1.0" encoding="UTF-8"?>
<svg id="Layer_1" data-name="Layer 1" xmlns="http://www.w3.org/2000/svg" xmlns:xlink="http://www.w3.org/1999/xlink" viewBox="0 0 200 200">
  <defs>
    <style>
      .cls-1 {
        fill: none;
      }

      .cls-2 {
        fill: #cde1f9;
      }

      .cls-3 {
        fill: url(#New_Pattern_Swatch_1-3);
      }

      .cls-4 {
        fill: url(#New_Pattern_Swatch_1-2);
      }

      .cls-5 {
        fill: #093e61;
      }

      .cls-6 {
        fill: url(#New_Pattern_Swatch_1-4);
        fill-rule: evenodd;
      }

      .cls-7 {
        fill: url(#New_Pattern_Swatch_4);
      }

      .cls-8 {
        fill: url(#New_Pattern_Swatch_1);
      }
    </style>
    <pattern id="New_Pattern_Swatch_4" data-name="New Pattern Swatch 4" x="0" y="0" width="115.45" height="115.45" patternTransform="translate(-2195.06 -2691.39) scale(.7)" patternUnits="userSpaceOnUse" viewBox="0 0 115.45 115.45">
      <g>
        <rect class="cls-1" width="115.45" height="115.45"/>
        <rect class="cls-2" width="115.45" height="115.45"/>
      </g>
    </pattern>
    <pattern id="New_Pattern_Swatch_1" data-name="New Pattern Swatch 1" x="0" y="0" width="115.45" height="115.45" patternTransform="translate(12489.4 12387.76) scale(2.62)" patternUnits="userSpaceOnUse" viewBox="0 0 115.45 115.45">
      <g>
        <rect class="cls-1" width="115.45" height="115.45"/>
        <rect class="cls-5" width="115.45" height="115.45"/>
      </g>
    </pattern>
    <pattern id="New_Pattern_Swatch_1-2" data-name="New Pattern Swatch 1" patternTransform="translate(12442.37 12382.98) scale(2.62)" xlink:href="#New_Pattern_Swatch_1"/>
    <pattern id="New_Pattern_Swatch_1-3" data-name="New Pattern Swatch 1" patternTransform="translate(12432.06 12384.85) scale(2.62)" xlink:href="#New_Pattern_Swatch_1"/>
    <pattern id="New_Pattern_Swatch_1-4" data-name="New Pattern Swatch 1" patternTransform="translate(12460.38 12390.38) scale(2.62)" xlink:href="#New_Pattern_Swatch_1"/>
  </defs>
  <circle class="cls-7" cx="100" cy="100" r="55.44"/>
  <path id="a" class="cls-8" d="M60.05,39.07c5.79,0,10.48,4.69,10.48,10.48s-4.69,10.48-10.48,10.48-10.48-4.69-10.48-10.48,4.69-10.48,10.48-10.48ZM60.05,65.26c11.58,0,20.95,4.69,20.95,10.48v5.24h-41.9v-5.24c0-5.79,9.38-10.48,20.95-10.48Z"/>
  <path id="a-2" data-name="a" class="cls-4" d="M134.53,82.29v-15.71h10.48v15.71h13.1v-20.95h7.86l-26.19-23.57-26.19,23.57h7.86v20.95h13.1Z"/>
  <g id="Icons_Warning" data-name="Icons/Warning">
    <path id="path-1" class="cls-3" d="M62.67,147.09h-5.24v-10.48h5.24v10.48ZM62.67,157.57h-5.24v-5.24h5.24v5.24ZM31.24,165.42h57.62l-28.81-49.76-28.81,49.76Z"/>
  </g>
  <path class="cls-6" d="M153.73,135.83v9.43h-.05l6.99,4.71v7.07h-41.9v-7.07l6.99-4.71v-9.43c0-6.18,3.93-11.45,9.4-13.36-.05-.26-.08-.52-.08-.79,0-2.59,2.1-4.71,4.66-4.71s4.66,2.12,4.66,4.71c0,.26-.03.52-.08.79,5.47,1.94,9.4,7.18,9.4,13.36ZM144.43,159.4c0,2.59-2.1,4.71-4.66,4.71s-4.66-2.12-4.66-4.71h9.32Z"/>
</svg>