<?xml version="1.0" encoding="UTF-8"?>
<svg id="Layer_1" data-name="Layer 1" xmlns="http://www.w3.org/2000/svg" xmlns:xlink="http://www.w3.org/1999/xlink" viewBox="0 0 200 200">
  <defs>
    <style>
      .cls-1, .cls-2, .cls-3 {
        fill: none;
      }

      .cls-4 {
        fill: #cde1f9;
      }

      .cls-5 {
        stroke: #fff;
      }

      .cls-5, .cls-6, .cls-7, .cls-8, .cls-9, .cls-10, .cls-11 {
        fill: #fff;
      }

      .cls-5, .cls-6, .cls-7, .cls-8, .cls-9, .cls-10, .cls-11, .cls-2, .cls-3 {
        stroke-miterlimit: 10;
      }

      .cls-5, .cls-8, .cls-9, .cls-10, .cls-11, .cls-2, .cls-3 {
        stroke-width: 4px;
      }

      .cls-12 {
        fill: url(#New_Pattern_Swatch_2-3);
      }

      .cls-13 {
        fill: url(#New_Pattern_Swatch_2-2);
      }

      .cls-6 {
        stroke: url(#New_Pattern_Swatch_2-11);
      }

      .cls-6, .cls-7 {
        stroke-width: 2px;
      }

      .cls-7 {
        stroke: url(#New_Pattern_Swatch_2-10);
      }

      .cls-8 {
        stroke: url(#New_Pattern_Swatch_2-8);
      }

      .cls-9 {
        stroke: url(#New_Pattern_Swatch_2-7);
      }

      .cls-10 {
        stroke: url(#New_Pattern_Swatch_2-6);
      }

      .cls-11 {
        stroke: url(#New_Pattern_Swatch_2-9);
      }

      .cls-14 {
        fill: #1362ae;
      }

      .cls-15 {
        fill: url(#New_Pattern_Swatch_4);
      }

      .cls-16 {
        fill: url(#New_Pattern_Swatch_2);
      }

      .cls-2 {
        stroke: url(#New_Pattern_Swatch_2-4);
      }

      .cls-3 {
        stroke: url(#New_Pattern_Swatch_2-5);
      }
    </style>
    <pattern id="New_Pattern_Swatch_4" data-name="New Pattern Swatch 4" x="0" y="0" width="115.45" height="115.45" patternTransform="translate(-3625.92 -5080.9) scale(.55)" patternUnits="userSpaceOnUse" viewBox="0 0 115.45 115.45">
      <g>
        <rect class="cls-1" width="115.45" height="115.45"/>
        <rect class="cls-4" width="115.45" height="115.45"/>
      </g>
    </pattern>
    <pattern id="New_Pattern_Swatch_2" data-name="New Pattern Swatch 2" x="0" y="0" width="115.45" height="115.45" patternTransform="translate(-262.52 -1882.16)" patternUnits="userSpaceOnUse" viewBox="0 0 115.45 115.45">
      <g>
        <rect class="cls-1" width="115.45" height="115.45"/>
        <rect class="cls-14" width="115.45" height="115.45"/>
      </g>
    </pattern>
    <pattern id="New_Pattern_Swatch_2-2" data-name="New Pattern Swatch 2" patternTransform="translate(-2192.08 -3602.22) scale(.76)" xlink:href="#New_Pattern_Swatch_2"/>
    <pattern id="New_Pattern_Swatch_2-3" data-name="New Pattern Swatch 2" patternTransform="translate(-1155.78 -2609.66) scale(.89)" xlink:href="#New_Pattern_Swatch_2"/>
    <pattern id="New_Pattern_Swatch_2-4" data-name="New Pattern Swatch 2" patternTransform="translate(787.11 -1017.05) scale(1.15)" xlink:href="#New_Pattern_Swatch_2"/>
    <pattern id="New_Pattern_Swatch_2-5" data-name="New Pattern Swatch 2" patternTransform="translate(-16847.74 -18480.65) rotate(-180) scale(1.15)" xlink:href="#New_Pattern_Swatch_2"/>
    <pattern id="New_Pattern_Swatch_2-6" data-name="New Pattern Swatch 2" patternTransform="translate(-2230.62 -3537.9) scale(.76)" xlink:href="#New_Pattern_Swatch_2"/>
    <pattern id="New_Pattern_Swatch_2-7" data-name="New Pattern Swatch 2" patternTransform="translate(-2149.84 -3537.9) scale(.76)" xlink:href="#New_Pattern_Swatch_2"/>
    <pattern id="New_Pattern_Swatch_2-8" data-name="New Pattern Swatch 2" patternTransform="translate(-2143.07 -3537.9) scale(.76)" xlink:href="#New_Pattern_Swatch_2"/>
    <pattern id="New_Pattern_Swatch_2-9" data-name="New Pattern Swatch 2" patternTransform="translate(-2136.3 -3537.9) scale(.76)" xlink:href="#New_Pattern_Swatch_2"/>
    <pattern id="New_Pattern_Swatch_2-10" data-name="New Pattern Swatch 2" patternTransform="translate(-2230.62 -3537.9) scale(.76)" xlink:href="#New_Pattern_Swatch_2"/>
    <pattern id="New_Pattern_Swatch_2-11" data-name="New Pattern Swatch 2" patternTransform="translate(2842.89 -3537.9) scale(1.39 .76)" xlink:href="#New_Pattern_Swatch_2"/>
  </defs>
  <circle class="cls-15" cx="133.51" cy="81.11" r="43.32"/>
  <g>
    <g>
      <circle class="cls-16" cx="102.12" cy="103.67" r="15.1"/>
      <path class="cls-13" d="M102.12,90.57c7.22,0,13.1,5.88,13.1,13.1s-5.88,13.1-13.1,13.1-13.1-5.88-13.1-13.1,5.88-13.1,13.1-13.1M102.12,88.57c-8.34,0-15.1,6.76-15.1,15.1s6.76,15.1,15.1,15.1,15.1-6.76,15.1-15.1-6.76-15.1-15.1-15.1h0Z"/>
    </g>
    <path class="cls-12" d="M102.12,85.9c9.81,0,17.77,7.96,17.77,17.77s-7.96,17.77-17.77,17.77-17.77-7.96-17.77-17.77,7.96-17.77,17.77-17.77M102.12,83.9c-10.9,0-19.77,8.87-19.77,19.77s8.87,19.77,19.77,19.77,19.77-8.87,19.77-19.77-8.87-19.77-19.77-19.77h0Z"/>
  </g>
  <polyline class="cls-2" points="173.89 92.67 182.49 102.51 174.26 112.67"/>
  <polyline class="cls-3" points="30.4 112.67 21.8 102.82 30.03 92.67"/>
  <line class="cls-10" x1="58.34" y1="95.19" x2="58.34" y2="112.15"/>
  <line class="cls-5" x1="98.74" y1="95.19" x2="98.74" y2="112.15"/>
  <line class="cls-5" x1="105.5" y1="95.19" x2="105.5" y2="112.15"/>
  <line class="cls-9" x1="139.13" y1="95.19" x2="139.13" y2="112.15"/>
  <line class="cls-8" x1="145.89" y1="95.19" x2="145.89" y2="112.15"/>
  <line class="cls-11" x1="152.66" y1="95.19" x2="152.66" y2="112.15"/>
  <line class="cls-7" x1="51.73" y1="117.61" x2="64.96" y2="117.61"/>
  <line class="cls-6" x1="133.51" y1="117.61" x2="157.71" y2="117.61"/>
</svg>