<?xml version="1.0" encoding="UTF-8"?>
<svg id="Layer_1" data-name="Layer 1" xmlns="http://www.w3.org/2000/svg" xmlns:xlink="http://www.w3.org/1999/xlink" viewBox="0 0 200 200">
  <defs>
    <style>
      .cls-1, .cls-2, .cls-3, .cls-4, .cls-5 {
        fill: none;
      }

      .cls-6 {
        fill: #cde1f9;
      }

      .cls-2 {
        stroke: #fff;
        stroke-width: 3px;
      }

      .cls-2, .cls-3, .cls-4, .cls-5 {
        stroke-miterlimit: 10;
      }

      .cls-7 {
        fill: #093e61;
      }

      .cls-8 {
        fill: url(#New_Pattern_Swatch_1-4);
        fill-rule: evenodd;
      }

      .cls-9 {
        fill: #1362ae;
      }

      .cls-3 {
        stroke: #093e61;
        stroke-width: 6px;
      }

      .cls-10 {
        fill: url(#New_Pattern_Swatch_4);
      }

      .cls-11 {
        fill: url(#New_Pattern_Swatch_1);
      }

      .cls-12 {
        fill: url(#New_Pattern_Swatch_2);
      }

      .cls-4 {
        stroke: url(#New_Pattern_Swatch_1-3);
      }

      .cls-4, .cls-5 {
        stroke-width: 4px;
      }

      .cls-5 {
        stroke: url(#New_Pattern_Swatch_1-2);
      }
    </style>
    <pattern id="New_Pattern_Swatch_1" data-name="New Pattern Swatch 1" x="0" y="0" width="115.45" height="115.45" patternTransform="translate(637.98 -753.3) scale(1.08 1.13)" patternUnits="userSpaceOnUse" viewBox="0 0 115.45 115.45">
      <g>
        <rect class="cls-1" width="115.45" height="115.45"/>
        <rect class="cls-7" width="115.45" height="115.45"/>
      </g>
    </pattern>
    <pattern id="New_Pattern_Swatch_4" data-name="New Pattern Swatch 4" x="0" y="0" width="115.45" height="115.45" patternTransform="translate(634.98 -756.3) scale(1.08 1.13)" patternUnits="userSpaceOnUse" viewBox="0 0 115.45 115.45">
      <g>
        <rect class="cls-1" width="115.45" height="115.45"/>
        <rect class="cls-6" width="115.45" height="115.45"/>
      </g>
    </pattern>
    <pattern id="New_Pattern_Swatch_1-2" data-name="New Pattern Swatch 1" patternTransform="translate(3988.53 -1688.88) scale(1.56 1)" xlink:href="#New_Pattern_Swatch_1"/>
    <pattern id="New_Pattern_Swatch_1-3" data-name="New Pattern Swatch 1" patternTransform="translate(3988.53 -1688.88) scale(1.56 1)" xlink:href="#New_Pattern_Swatch_1"/>
    <pattern id="New_Pattern_Swatch_1-4" data-name="New Pattern Swatch 1" patternTransform="translate(-991.89 -2780.19) scale(.87)" xlink:href="#New_Pattern_Swatch_1"/>
    <pattern id="New_Pattern_Swatch_2" data-name="New Pattern Swatch 2" x="0" y="0" width="115.45" height="115.45" patternTransform="translate(-3222.92 -6459.64) scale(.59 .4)" patternUnits="userSpaceOnUse" viewBox="0 0 115.45 115.45">
      <g>
        <rect class="cls-1" width="115.45" height="115.45"/>
        <rect class="cls-9" width="115.45" height="115.45"/>
      </g>
    </pattern>
  </defs>
  <rect class="cls-11" x="13.49" y="62.84" width="176.02" height="77.33"/>
  <rect class="cls-10" x="10.49" y="59.84" width="176.02" height="77.33"/>
  <line class="cls-5" x1="127.3" y1="95.39" x2="150.22" y2="95.39"/>
  <line class="cls-4" x1="60.24" y1="95.39" x2="112.5" y2="95.39"/>
  <line class="cls-3" x1="60.24" y1="82.39" x2="150.22" y2="82.39"/>
  <path class="cls-8" d="M44.08,83.74v3.14h-.02l2.33,1.57v2.35h-13.94v-2.35l2.33-1.57v-3.14c0-2.06,1.31-3.81,3.13-4.44-.02-.09-.03-.17-.03-.26,0-.86.7-1.57,1.55-1.57s1.55.71,1.55,1.57c0,.09,0,.17-.03.26,1.82.64,3.13,2.39,3.13,4.44ZM40.99,91.58c0,.86-.7,1.57-1.55,1.57s-1.55-.71-1.55-1.57h3.1Z"/>
  <rect class="cls-12" x="60.24" y="107.52" width="40" height="14.07" rx="7.03" ry="7.03"/>
  <line class="cls-2" x1="66.52" y1="114.56" x2="93" y2="114.56"/>
</svg>