<?xml version="1.0" encoding="UTF-8"?>
<svg id="Layer_1" data-name="Layer 1" xmlns="http://www.w3.org/2000/svg" xmlns:xlink="http://www.w3.org/1999/xlink" viewBox="0 0 200 200">
  <defs>
    <style>
      .cls-1, .cls-2, .cls-3 {
        fill: none;
      }

      .cls-4 {
        fill: #cde1f9;
      }

      .cls-5 {
        fill: url(#New_Pattern_Swatch_4);
        stroke: url(#New_Pattern_Swatch_1);
        stroke-width: 4px;
      }

      .cls-5, .cls-2, .cls-3 {
        stroke-miterlimit: 10;
      }

      .cls-6 {
        fill: url(#New_Pattern_Swatch_1-2);
      }

      .cls-7 {
        fill: #093e61;
      }

      .cls-2 {
        stroke-width: 6px;
      }

      .cls-2, .cls-3 {
        stroke: #093e61;
      }

      .cls-3 {
        stroke-width: 10px;
      }
    </style>
    <pattern id="New_Pattern_Swatch_4" data-name="New Pattern Swatch 4" x="0" y="0" width="115.45" height="115.45" patternTransform="translate(-8879.4 1726.63) rotate(45) scale(.98)" patternUnits="userSpaceOnUse" viewBox="0 0 115.45 115.45">
      <g>
        <rect class="cls-1" width="115.45" height="115.45"/>
        <rect class="cls-4" width="115.45" height="115.45"/>
      </g>
    </pattern>
    <pattern id="New_Pattern_Swatch_1" data-name="New Pattern Swatch 1" x="0" y="0" width="115.45" height="115.45" patternTransform="translate(-632.11 -1564.5)" patternUnits="userSpaceOnUse" viewBox="0 0 115.45 115.45">
      <g>
        <rect class="cls-1" width="115.45" height="115.45"/>
        <rect class="cls-7" width="115.45" height="115.45"/>
      </g>
    </pattern>
    <pattern id="New_Pattern_Swatch_1-2" data-name="New Pattern Swatch 1" patternTransform="translate(4863.99 4249.43) scale(1.71)" xlink:href="#New_Pattern_Swatch_1"/>
  </defs>
  <polygon class="cls-5" points="68.81 77.84 57.52 66.55 46.23 77.84 24.98 77.84 24.98 166.15 177.48 166.15 177.48 77.84 68.81 77.84"/>
  <line class="cls-3" x1="40.51" y1="105.5" x2="157.74" y2="105.5"/>
  <line class="cls-2" x1="40.51" y1="127.85" x2="157.74" y2="127.85"/>
  <line class="cls-2" x1="122.49" y1="143.53" x2="152.74" y2="143.53"/>
  <line class="cls-2" x1="40.51" y1="143.53" x2="105.48" y2="143.53"/>
  <path id="a" class="cls-6" d="M55.16,48.98h3.43v-3.43h-3.43v3.43ZM56.87,21.57c-9.46,0-17.13,7.67-17.13,17.13s7.67,17.13,17.13,17.13,17.13-7.67,17.13-17.13-7.67-17.13-17.13-17.13ZM56.87,52.4c-7.55,0-13.7-6.15-13.7-13.7s6.15-13.7,13.7-13.7,13.7,6.15,13.7,13.7-6.15,13.7-13.7,13.7ZM56.87,28.42c-3.78,0-6.85,3.07-6.85,6.85h3.43c0-1.89,1.53-3.43,3.43-3.43s3.43,1.53,3.43,3.43c0,3.43-5.14,3-5.14,8.56h3.43c0-3.85,5.14-4.28,5.14-8.56,0-3.78-3.07-6.85-6.85-6.85Z"/>
</svg>