<?xml version="1.0" encoding="UTF-8"?>
<svg id="Layer_1" data-name="Layer 1" xmlns="http://www.w3.org/2000/svg" xmlns:xlink="http://www.w3.org/1999/xlink" viewBox="0 0 200 200">
  <defs>
    <style>
      .cls-1 {
        fill: none;
      }

      .cls-2 {
        fill: #cde1f9;
      }

      .cls-3 {
        fill: #1362ae;
      }

      .cls-4 {
        fill: url(#New_Pattern_Swatch_4);
      }

      .cls-5 {
        fill: url(#New_Pattern_Swatch_2);
      }
    </style>
    <pattern id="New_Pattern_Swatch_4" data-name="New Pattern Swatch 4" x="0" y="0" width="115.45" height="115.45" patternTransform="translate(152.69 -9186.93) rotate(-49.42) scale(.77)" patternUnits="userSpaceOnUse" viewBox="0 0 115.45 115.45">
      <g>
        <rect class="cls-1" width="115.45" height="115.45"/>
        <rect class="cls-2" width="115.45" height="115.45"/>
      </g>
    </pattern>
    <pattern id="New_Pattern_Swatch_2" data-name="New Pattern Swatch 2" x="0" y="0" width="115.45" height="115.45" patternTransform="translate(-2329.46 -2524.03) scale(.77)" patternUnits="userSpaceOnUse" viewBox="0 0 115.45 115.45">
      <g>
        <rect class="cls-1" width="115.45" height="115.45"/>
        <rect class="cls-3" width="115.45" height="115.45"/>
      </g>
    </pattern>
  </defs>
  <path class="cls-4" d="M144.51,134.35c-21.02,24.54-58.09,27.41-82.64,6.38l16.91-19.75c13.65,11.7,34.28,10.1,45.98-3.55,11.7-13.65,10.1-34.28-3.55-45.98-13.65-11.7-34.28-10.1-45.98,3.55l-19.75-16.91c21.02-24.54,58.09-27.41,82.64-6.38s27.41,58.09,6.38,82.64Z"/>
  <path class="cls-5" d="M100,154.83c-32.32,0-58.61-26.29-58.61-58.61h26c0,17.98,14.63,32.61,32.61,32.61s32.61-14.63,32.61-32.61-14.63-32.61-32.61-32.61v-26c32.32,0,58.61,26.29,58.61,58.61s-26.29,58.61-58.61,58.61Z"/>
</svg>