<?xml version="1.0" encoding="UTF-8"?>
<svg id="Layer_1" data-name="Layer 1" xmlns="http://www.w3.org/2000/svg" xmlns:xlink="http://www.w3.org/1999/xlink" viewBox="0 0 200 200">
  <defs>
    <style>
      .cls-1, .cls-2, .cls-3, .cls-4, .cls-5, .cls-6, .cls-7, .cls-8, .cls-9, .cls-10, .cls-11, .cls-12, .cls-13 {
        fill: none;
      }

      .cls-14 {
        fill: #9ccff2;
      }

      .cls-15 {
        fill: url(#New_Pattern_Swatch_3-2);
      }

      .cls-16 {
        fill: url(#New_Pattern_Swatch_2-3);
      }

      .cls-17 {
        fill: url(#New_Pattern_Swatch_2-2);
      }

      .cls-18 {
        fill: #fff;
      }

      .cls-19 {
        fill: #093e61;
      }

      .cls-2 {
        stroke: url(#New_Pattern_Swatch_1);
      }

      .cls-2, .cls-3, .cls-4, .cls-5, .cls-6, .cls-7, .cls-8, .cls-9, .cls-10, .cls-11, .cls-12, .cls-13 {
        stroke-miterlimit: 10;
      }

      .cls-2, .cls-3, .cls-5, .cls-6, .cls-7, .cls-8, .cls-9, .cls-10, .cls-11 {
        stroke-width: 4px;
      }

      .cls-20 {
        fill: #1362ae;
      }

      .cls-3 {
        stroke: url(#New_Pattern_Swatch_3-10);
      }

      .cls-4 {
        stroke: #093e61;
      }

      .cls-4, .cls-12, .cls-13 {
        stroke-width: 6px;
      }

      .cls-21 {
        fill: url(#New_Pattern_Swatch_2);
      }

      .cls-22 {
        fill: url(#New_Pattern_Swatch_3);
      }

      .cls-5 {
        stroke: url(#New_Pattern_Swatch_1-3);
      }

      .cls-6 {
        stroke: url(#New_Pattern_Swatch_1-2);
      }

      .cls-7 {
        stroke: url(#New_Pattern_Swatch_3-3);
      }

      .cls-8 {
        stroke: url(#New_Pattern_Swatch_3-9);
      }

      .cls-9 {
        stroke: url(#New_Pattern_Swatch_3-6);
      }

      .cls-10 {
        stroke: url(#New_Pattern_Swatch_3-7);
      }

      .cls-11 {
        stroke: url(#New_Pattern_Swatch_3-4);
      }

      .cls-12 {
        stroke: url(#New_Pattern_Swatch_3-5);
      }

      .cls-13 {
        stroke: url(#New_Pattern_Swatch_3-8);
      }
    </style>
    <pattern id="New_Pattern_Swatch_3" data-name="New Pattern Swatch 3" x="0" y="0" width="115.45" height="115.45" patternTransform="translate(-2252.18 -3149.33) scale(.76)" patternUnits="userSpaceOnUse" viewBox="0 0 115.45 115.45">
      <g>
        <rect class="cls-1" width="115.45" height="115.45"/>
        <rect class="cls-14" width="115.45" height="115.45"/>
      </g>
    </pattern>
    <pattern id="New_Pattern_Swatch_3-2" data-name="New Pattern Swatch 3" patternTransform="translate(-2252.18 -3107.05) scale(.76)" xlink:href="#New_Pattern_Swatch_3"/>
    <pattern id="New_Pattern_Swatch_2" data-name="New Pattern Swatch 2" x="0" y="0" width="115.45" height="115.45" patternTransform="translate(-322.62 -1289.47)" patternUnits="userSpaceOnUse" viewBox="0 0 115.45 115.45">
      <g>
        <rect class="cls-1" width="115.45" height="115.45"/>
        <rect class="cls-20" width="115.45" height="115.45"/>
      </g>
    </pattern>
    <pattern id="New_Pattern_Swatch_2-2" data-name="New Pattern Swatch 2" patternTransform="translate(-2252.18 -3061.61) scale(.76)" xlink:href="#New_Pattern_Swatch_2"/>
    <pattern id="New_Pattern_Swatch_3-3" data-name="New Pattern Swatch 3" patternTransform="translate(-316.62 -1276.47)" xlink:href="#New_Pattern_Swatch_3"/>
    <pattern id="New_Pattern_Swatch_3-4" data-name="New Pattern Swatch 3" patternTransform="translate(-316.62 -1276.47)" xlink:href="#New_Pattern_Swatch_3"/>
    <pattern id="New_Pattern_Swatch_3-5" data-name="New Pattern Swatch 3" patternTransform="translate(-316.62 -1276.47)" xlink:href="#New_Pattern_Swatch_3"/>
    <pattern id="New_Pattern_Swatch_3-6" data-name="New Pattern Swatch 3" patternTransform="translate(-316.62 -1276.47)" xlink:href="#New_Pattern_Swatch_3"/>
    <pattern id="New_Pattern_Swatch_3-7" data-name="New Pattern Swatch 3" patternTransform="translate(-316.62 -1276.47)" xlink:href="#New_Pattern_Swatch_3"/>
    <pattern id="New_Pattern_Swatch_3-8" data-name="New Pattern Swatch 3" patternTransform="translate(-316.62 -1276.47)" xlink:href="#New_Pattern_Swatch_3"/>
    <pattern id="New_Pattern_Swatch_1" data-name="New Pattern Swatch 1" x="0" y="0" width="115.45" height="115.45" patternTransform="translate(3827.36 -1192.29) scale(1.56 1)" patternUnits="userSpaceOnUse" viewBox="0 0 115.45 115.45">
      <g>
        <rect class="cls-1" width="115.45" height="115.45"/>
        <rect class="cls-19" width="115.45" height="115.45"/>
      </g>
    </pattern>
    <pattern id="New_Pattern_Swatch_3-9" data-name="New Pattern Swatch 3" patternTransform="translate(-322.62 -1276.47)" xlink:href="#New_Pattern_Swatch_3"/>
    <pattern id="New_Pattern_Swatch_3-10" data-name="New Pattern Swatch 3" patternTransform="translate(-322.62 -1277.47)" xlink:href="#New_Pattern_Swatch_3"/>
    <pattern id="New_Pattern_Swatch_1-2" data-name="New Pattern Swatch 1" patternTransform="translate(-322.62 -1223.65)" xlink:href="#New_Pattern_Swatch_1"/>
    <pattern id="New_Pattern_Swatch_1-3" data-name="New Pattern Swatch 1" patternTransform="translate(-331.1 -1277.47)" xlink:href="#New_Pattern_Swatch_1"/>
    <pattern id="New_Pattern_Swatch_2-3" data-name="New Pattern Swatch 2" patternTransform="translate(-331.1 -3652.54) scale(1 .68)" xlink:href="#New_Pattern_Swatch_2"/>
  </defs>
  <g>
    <circle class="cls-18" cx="42.02" cy="31.39" r="15.1"/>
    <path class="cls-22" d="M42.02,20.29c6.12,0,11.1,4.98,11.1,11.1s-4.98,11.1-11.1,11.1-11.1-4.98-11.1-11.1,4.98-11.1,11.1-11.1M42.02,16.29c-8.34,0-15.1,6.76-15.1,15.1s6.76,15.1,15.1,15.1,15.1-6.76,15.1-15.1-6.76-15.1-15.1-15.1h0Z"/>
  </g>
  <g>
    <circle class="cls-18" cx="42.02" cy="73.67" r="15.1"/>
    <path class="cls-15" d="M42.02,62.57c6.12,0,11.1,4.98,11.1,11.1s-4.98,11.1-11.1,11.1-11.1-4.98-11.1-11.1,4.98-11.1,11.1-11.1M42.02,58.57c-8.34,0-15.1,6.76-15.1,15.1s6.76,15.1,15.1,15.1,15.1-6.76,15.1-15.1-6.76-15.1-15.1-15.1h0Z"/>
  </g>
  <g>
    <circle class="cls-21" cx="42.02" cy="119.12" r="15.1"/>
    <path class="cls-17" d="M42.02,106.02c7.22,0,13.1,5.88,13.1,13.1s-5.88,13.1-13.1,13.1-13.1-5.88-13.1-13.1,5.88-13.1,13.1-13.1M42.02,104.02c-8.34,0-15.1,6.76-15.1,15.1s6.76,15.1,15.1,15.1,15.1-6.76,15.1-15.1-6.76-15.1-15.1-15.1h0Z"/>
  </g>
  <line class="cls-7" x1="146.17" y1="38.39" x2="169.08" y2="38.39"/>
  <line class="cls-11" x1="79.11" y1="38.39" x2="131.37" y2="38.39"/>
  <line class="cls-12" x1="79.11" y1="25.39" x2="169.08" y2="25.39"/>
  <line class="cls-9" x1="146.17" y1="80.17" x2="169.08" y2="80.17"/>
  <line class="cls-10" x1="79.11" y1="80.17" x2="131.37" y2="80.17"/>
  <line class="cls-13" x1="79.11" y1="67.17" x2="169.08" y2="67.17"/>
  <line class="cls-2" x1="146.17" y1="130.17" x2="169.08" y2="130.17"/>
  <line class="cls-2" x1="79.11" y1="130.17" x2="131.37" y2="130.17"/>
  <line class="cls-4" x1="79.11" y1="117.17" x2="169.08" y2="117.17"/>
  <line class="cls-8" x1="42.02" y1="48.75" x2="42.02" y2="56.46"/>
  <line class="cls-3" x1="42.02" y1="91.22" x2="42.02" y2="100.88"/>
  <polyline class="cls-6" points="42.02 140.05 42.02 161.71 64.63 161.71"/>
  <polyline class="cls-5" points="57.12 153.18 64.63 161.78 57.44 170.64"/>
  <rect class="cls-16" x="74.91" y="149.71" width="68.24" height="24" rx="12" ry="12"/>
</svg>