<?xml version="1.0" encoding="UTF-8"?>
<svg id="Layer_1" data-name="Layer 1" xmlns="http://www.w3.org/2000/svg" xmlns:xlink="http://www.w3.org/1999/xlink" viewBox="0 0 200 200">
  <defs>
    <style>
      .cls-1, .cls-2, .cls-3 {
        fill: none;
      }

      .cls-4 {
        fill: #cde1f9;
      }

      .cls-5 {
        fill: url(#New_Pattern_Swatch_1-3);
      }

      .cls-6 {
        fill: url(#New_Pattern_Swatch_1-2);
      }

      .cls-2 {
        stroke-width: 2px;
      }

      .cls-2, .cls-3 {
        stroke: #093e61;
        stroke-miterlimit: 10;
      }

      .cls-7 {
        fill: #fff;
      }

      .cls-8 {
        fill: #093e61;
      }

      .cls-3 {
        stroke-width: 6px;
      }

      .cls-9 {
        fill: url(#New_Pattern_Swatch_4);
      }

      .cls-10 {
        fill: url(#New_Pattern_Swatch_1);
      }
    </style>
    <pattern id="New_Pattern_Swatch_4" data-name="New Pattern Swatch 4" x="0" y="0" width="115.45" height="115.45" patternTransform="translate(-2643.15 -1490.46) scale(.7)" patternUnits="userSpaceOnUse" viewBox="0 0 115.45 115.45">
      <g>
        <rect class="cls-1" width="115.45" height="115.45"/>
        <rect class="cls-4" width="115.45" height="115.45"/>
      </g>
    </pattern>
    <pattern id="New_Pattern_Swatch_1" data-name="New Pattern Swatch 1" x="0" y="0" width="115.45" height="115.45" patternTransform="translate(-514.58 795.83)" patternUnits="userSpaceOnUse" viewBox="0 0 115.45 115.45">
      <g>
        <rect class="cls-1" width="115.45" height="115.45"/>
        <rect class="cls-8" width="115.45" height="115.45"/>
      </g>
    </pattern>
    <pattern id="New_Pattern_Swatch_1-2" data-name="New Pattern Swatch 1" patternTransform="translate(-512.58 831.06)" xlink:href="#New_Pattern_Swatch_1"/>
    <pattern id="New_Pattern_Swatch_1-3" data-name="New Pattern Swatch 1" patternTransform="translate(-514.58 725.01) scale(1 1.02)" xlink:href="#New_Pattern_Swatch_1"/>
  </defs>
  <circle class="cls-9" cx="138.88" cy="83.49" r="55.44"/>
  <g>
    <g>
      <rect class="cls-10" x="19.75" y="43.33" width="162.5" height="117.43"/>
      <path class="cls-6" d="M180.25,45.33v113.43H21.75V45.33h158.5M182.25,43.33H19.75v117.43h162.5V43.33h0Z"/>
    </g>
    <g>
      <rect class="cls-7" x="17.75" y="38.04" width="162.5" height="120"/>
      <path class="cls-5" d="M178.25,40.04v116H19.75V40.04h158.5M180.25,38.04H17.75v120h162.5V38.04h0Z"/>
    </g>
    <line class="cls-3" x1="29.94" y1="127.87" x2="92.67" y2="127.87"/>
    <line class="cls-3" x1="29.94" y1="69.86" x2="162.18" y2="69.86"/>
    <line class="cls-3" x1="29.94" y1="98.16" x2="162.18" y2="98.16"/>
  </g>
  <line class="cls-2" x1="101" y1="114.11" x2="101" y2="141.98"/>
</svg>