<svg width="82" height="89" viewBox="0 0 82 89" fill="none" xmlns="http://www.w3.org/2000/svg">
<g clip-path="url(#clip0_4502_997)">
<path d="M0.771484 69.9868H6.33666V71.0806H4.19209V76.8388H2.90534V71.0806H0.771484V69.9868Z" fill="white"/>
<path d="M8.31038 72.1757C8.31038 72.3366 8.28893 72.4974 8.28893 72.6261H8.3211C8.48194 72.3687 8.6964 72.1543 8.95375 72.0149C9.20038 71.8648 9.50062 71.7897 9.85447 71.7897C10.3906 71.7897 10.8088 71.9398 11.0983 72.2401C11.3878 72.5403 11.5487 72.9692 11.5487 73.4946V76.8402H10.3692V73.6876C10.3692 73.3981 10.2834 73.1515 10.1225 72.9907C9.9617 72.8298 9.73652 72.744 9.42556 72.744C9.26472 72.744 9.10387 72.7762 8.9752 72.8298C8.84652 72.8941 8.71785 72.9799 8.62134 73.0764C8.52484 73.1944 8.43905 73.3231 8.39616 73.4625C8.34255 73.6126 8.31038 73.7734 8.31038 73.945V76.8294H7.13086V69.9668H8.31038V71.8219C8.28893 71.8862 8.28893 72.0041 8.28893 72.165L8.31038 72.1757Z" fill="white"/>
<path d="M14.8392 77.0009C14.4532 77.0009 14.0993 76.9366 13.7884 76.7864C13.4774 76.6363 13.2093 76.4647 12.9949 76.2396C12.7804 76.0144 12.6088 75.7249 12.4909 75.4139C12.3729 75.1029 12.3086 74.7491 12.3086 74.3952C12.3086 74.0414 12.3729 73.6875 12.4909 73.3658C12.6088 73.0441 12.7804 72.7654 12.9949 72.5402C13.2093 72.2935 13.4667 72.122 13.7669 71.9933C14.0671 71.8646 14.3996 71.8003 14.7641 71.8003C15.1287 71.8003 15.4397 71.8646 15.7292 71.9826C16.008 72.1005 16.2439 72.2721 16.4584 72.4973C16.705 72.7546 16.8765 73.0763 16.9945 73.4516C17.1125 73.8269 17.1768 74.2451 17.1553 74.6955H13.4881C13.5417 75.1137 13.6704 75.4675 13.8956 75.7249C14.1208 75.9822 14.4425 76.1109 14.8499 76.1109C15.1287 76.1109 15.3646 76.0466 15.5469 75.9286C15.7292 75.8107 15.8579 75.6498 15.9329 75.4568H17.0803C17.0159 75.682 16.9194 75.875 16.8015 76.068C16.6728 76.261 16.512 76.4219 16.3297 76.5505C16.1367 76.7007 15.9222 76.7972 15.6649 76.8722C15.4075 76.9366 15.1287 76.9902 14.8285 76.9902L14.8392 77.0009ZM14.7749 72.6474C14.3888 72.6474 14.0993 72.7654 13.8849 73.0013C13.6704 73.2372 13.5632 73.5481 13.5096 73.9341H15.9651C15.9437 73.5267 15.815 73.205 15.622 72.9798C15.4075 72.7546 15.118 72.6367 14.7641 72.6367L14.7749 72.6474Z" fill="white"/>
<path d="M20.4365 69.9883H21.7447L24.018 73.5912C24.1145 73.7413 24.211 73.9129 24.3075 74.0952C24.404 74.2774 24.5005 74.449 24.5863 74.6099C24.6828 74.8029 24.7793 74.9959 24.8758 75.1782H24.908C24.8865 74.9637 24.8865 74.76 24.8758 74.567C24.8543 74.3847 24.8543 74.1917 24.8436 73.9986C24.8436 73.7842 24.8222 73.6126 24.8222 73.4303V69.9883H26.0339V76.8509H24.7257L22.4524 73.2695C22.3559 73.1194 22.2594 72.9478 22.1629 72.7548C22.0664 72.5618 21.9699 72.4009 21.8841 72.2401C21.7876 72.0471 21.6911 71.8541 21.5946 71.6718H21.5731C21.5731 71.8862 21.5946 72.09 21.6053 72.283C21.6267 72.4653 21.6267 72.6583 21.6375 72.8513C21.6375 73.0658 21.6589 73.2373 21.6589 73.4196V76.8617H20.4472V69.999H20.4258L20.4365 69.9883Z" fill="white"/>
<path d="M29.4974 77.0009C29.1114 77.0009 28.7683 76.9366 28.468 76.7864C28.1571 76.6578 27.889 76.4647 27.6745 76.2396C27.4601 76.0144 27.2885 75.7249 27.1706 75.4139C27.0526 75.1029 26.9883 74.7491 26.9883 74.3952C26.9883 74.0414 27.0526 73.6875 27.1706 73.3658C27.2885 73.0441 27.4601 72.7654 27.6745 72.5402C27.8997 72.2935 28.1571 72.122 28.468 71.9933C28.779 71.8646 29.1329 71.8003 29.4974 71.8003C29.862 71.8003 30.2266 71.8646 30.5268 71.9933C30.8378 72.122 31.0951 72.315 31.3203 72.5402C31.5455 72.7654 31.7064 73.0441 31.8243 73.3658C31.9423 73.6875 32.0066 74.0307 32.0066 74.3952C32.0066 74.7598 31.9423 75.1029 31.8243 75.4139C31.7064 75.7249 31.5348 76.0144 31.3203 76.2396C31.1059 76.4862 30.8378 76.6578 30.5268 76.7864C30.2159 76.9151 29.862 77.0009 29.4974 77.0009ZM29.476 76.1109C29.6904 76.1109 29.8835 76.0573 30.0443 75.9822C30.2051 75.9072 30.3553 75.7678 30.4518 75.6284C30.5697 75.4675 30.6448 75.2852 30.7091 75.0815C30.7735 74.867 30.7949 74.6419 30.7949 74.406C30.7949 74.1701 30.7627 73.9341 30.7091 73.709C30.6448 73.4945 30.559 73.3015 30.4518 73.1621C30.3338 73.0013 30.2051 72.8833 30.0443 72.7868C29.8835 72.701 29.6904 72.6581 29.476 72.6581C29.2615 72.6581 29.0685 72.7117 28.9077 72.7868C28.7468 72.8619 28.5967 73.0013 28.4895 73.1621C28.3715 73.3229 28.2965 73.5052 28.2429 73.709C28.1892 73.9127 28.1571 74.1486 28.1571 74.406C28.1571 74.6526 28.1892 74.8778 28.2429 75.0815C28.2965 75.296 28.393 75.4675 28.4895 75.6284C28.6074 75.7785 28.7361 75.9072 28.9077 75.9822C29.0685 76.068 29.2615 76.1109 29.476 76.1109Z" fill="white"/>
<path d="M33.9364 72.8083H33.9686C34.2796 72.165 34.7621 71.854 35.384 71.854C35.5342 71.854 35.6307 71.8754 35.695 71.9076V72.9585H35.6628C35.5663 72.937 35.4484 72.9263 35.3411 72.9263C34.9551 72.9263 34.6334 73.0442 34.3761 73.3016C34.1187 73.5589 33.9901 73.9128 33.9901 74.3953V76.8616H32.8105V71.9398H33.9364V72.8083Z" fill="white"/>
<path d="M36.0918 71.9185H37.3035L37.9361 74.2132C37.9683 74.3633 38.0219 74.5241 38.0541 74.685C38.0863 74.8673 38.1184 75.0281 38.1506 75.1675C38.1828 75.3498 38.2149 75.5213 38.2471 75.7036H38.2685C38.3007 75.5213 38.3329 75.3605 38.365 75.1889C38.3972 75.0388 38.4294 74.878 38.4616 74.7064C38.4937 74.5241 38.5473 74.3633 38.5795 74.2239L39.1907 71.9292H40.2201L40.8528 74.2239C40.8849 74.374 40.9385 74.5134 40.9707 74.6957C41.0029 74.878 41.035 75.0388 41.0672 75.1782C41.0994 75.3605 41.1316 75.5321 41.1637 75.7144H41.1852C41.2173 75.5321 41.2495 75.3605 41.2817 75.1782C41.3138 75.0281 41.346 74.8673 41.3782 74.6957C41.4104 74.5134 41.464 74.3526 41.5069 74.2132L42.1717 71.9185H43.3512L41.7857 76.8403H40.6597L40.0485 74.5027C40.0164 74.374 39.9842 74.2239 39.952 74.063C39.9199 73.9022 39.8877 73.7413 39.8555 73.5912C39.8234 73.4089 39.7912 73.2374 39.759 73.0551H39.7376C39.7054 73.2374 39.6518 73.4089 39.6196 73.5912C39.5875 73.7413 39.5553 73.9022 39.5231 74.063C39.491 74.2239 39.4588 74.374 39.4266 74.5027L38.794 76.8403H37.6681L36.1132 71.9292L36.0918 71.9185Z" fill="white"/>
<path d="M46.0872 77.0009C45.7012 77.0009 45.3474 76.9366 45.0364 76.7864C44.7254 76.6363 44.4574 76.4647 44.2429 76.2396C44.0284 76.0144 43.8569 75.7249 43.7389 75.4139C43.621 75.0922 43.5566 74.7491 43.5566 74.3952C43.5566 74.0414 43.621 73.6875 43.7389 73.3658C43.8569 73.0441 44.0284 72.7654 44.2429 72.5402C44.4574 72.2935 44.7147 72.122 45.015 71.9933C45.3152 71.8646 45.6476 71.8003 46.0122 71.8003C46.3768 71.8003 46.6877 71.8646 46.9772 71.9826C47.256 72.1005 47.4919 72.2721 47.7064 72.4973C47.953 72.7546 48.1246 73.0763 48.2425 73.4516C48.3605 73.8269 48.4248 74.2451 48.4034 74.6955H44.7254C44.7791 75.1137 44.9077 75.4675 45.1329 75.7249C45.3581 75.9822 45.6798 76.1109 46.0872 76.1109C46.366 76.1109 46.6019 76.0466 46.7842 75.9286C46.9665 75.8107 47.0952 75.6498 47.1703 75.4568H48.3176C48.2533 75.682 48.1568 75.875 48.0388 76.068C47.9101 76.261 47.7493 76.4219 47.567 76.5505C47.3847 76.6792 47.1595 76.7972 46.9022 76.8722C46.6448 76.9366 46.366 76.9902 46.0765 76.9902L46.0872 77.0009ZM46.0229 72.6474C45.6369 72.6474 45.3474 72.7654 45.1329 73.0013C44.9184 73.2372 44.8112 73.5481 44.7576 73.9341H47.2131C47.1917 73.5267 47.063 73.205 46.87 72.9798C46.6448 72.7546 46.366 72.6367 46.0122 72.6367L46.0229 72.6474Z" fill="white"/>
<path d="M51.4167 78.5665C50.7519 78.5665 50.2264 78.4378 49.8297 78.1804C49.4329 77.9231 49.2185 77.5692 49.1541 77.0974H50.28C50.3658 77.5049 50.7304 77.7086 51.3952 77.7086C52.1887 77.7086 52.5855 77.3548 52.5855 76.6256V76.1431C52.5855 76.0251 52.5855 75.9179 52.6069 75.8321H52.5855C52.4246 76.0787 52.2423 76.2718 52.0172 76.4004C51.792 76.5291 51.5132 76.5934 51.1915 76.5934C50.8698 76.5934 50.6125 76.5398 50.3551 76.4326C50.0978 76.3254 49.8726 76.1538 49.6796 75.9608C49.4866 75.7463 49.3364 75.5104 49.2292 75.2209C49.1113 74.9314 49.0684 74.5883 49.0684 74.2344C49.0684 73.8806 49.122 73.5267 49.2292 73.2372C49.3472 72.9262 49.4866 72.6903 49.6688 72.4758C49.8511 72.2614 50.0763 72.1006 50.3337 71.9933C50.591 71.8861 50.8698 71.811 51.1593 71.811C51.8349 71.811 52.3174 72.0684 52.6069 72.5724H52.6284V71.9397H53.7543V76.5398C53.7543 76.8937 53.7007 77.1832 53.5934 77.4406C53.4862 77.6979 53.3361 77.9124 53.1431 78.0732C52.9286 78.2555 52.6927 78.3627 52.4032 78.4485C52.0922 78.5128 51.7705 78.5665 51.4167 78.5665ZM51.3952 75.682C51.6204 75.682 51.8027 75.6498 51.9635 75.564C52.1244 75.4783 52.2531 75.3818 52.3496 75.2531C52.4461 75.1244 52.5319 74.9636 52.564 74.7813C52.6176 74.599 52.6284 74.3953 52.6284 74.1808C52.6284 73.7412 52.5319 73.3873 52.3174 73.1192C52.1029 72.8512 51.8027 72.7118 51.3845 72.7118C50.9985 72.7118 50.709 72.8404 50.4945 73.1192C50.28 73.398 50.1835 73.7519 50.1835 74.2022C50.1835 74.6526 50.28 75.0279 50.4945 75.2852C50.7197 75.5426 51.0092 75.6713 51.3952 75.6713V75.682Z" fill="white"/>
<path d="M54.6113 69.9883H55.8016V71.1142H54.6113V69.9883ZM54.6328 71.9291H55.8123V76.8509H54.6328V71.9291Z" fill="white"/>
<path d="M60.0592 76.8614C60.0592 76.8614 59.9735 76.7327 59.9413 76.6148C59.9091 76.5183 59.8877 76.3682 59.8769 76.2073H59.8555C59.6947 76.4218 59.5016 76.5933 59.255 76.7435C59.0084 76.8936 58.6867 76.9579 58.3007 76.9579C58.0541 76.9579 57.8289 76.9258 57.6359 76.8614C57.4214 76.7971 57.2498 76.7113 57.0997 76.5826C56.9496 76.4539 56.8424 76.3038 56.7459 76.1323C56.6601 75.95 56.6172 75.7462 56.6172 75.4996C56.6172 75.2208 56.6708 74.9956 56.7673 74.8026C56.8638 74.6203 57.0139 74.4809 57.1855 74.363C57.3571 74.245 57.5715 74.17 57.8182 74.1056C58.0648 74.0413 58.3328 73.9877 58.6224 73.9555C59.0298 73.9019 59.3301 73.8376 59.5445 73.7411C59.759 73.6446 59.8555 73.4944 59.8555 73.2693C59.8555 73.0548 59.7697 72.8832 59.6303 72.7546C59.4909 72.6259 59.255 72.5615 58.9655 72.5615C58.6224 72.5615 58.3865 72.6259 58.2256 72.776C58.0648 72.9261 57.9683 73.1191 57.9683 73.355H56.8531C56.8531 73.1406 56.9067 72.9476 57.0032 72.7546C57.089 72.5615 57.2284 72.3793 57.4107 72.2399C57.593 72.0897 57.7967 71.9825 58.0541 71.886C58.3114 71.7895 58.6224 71.7573 58.9762 71.7573C59.2657 71.7573 59.5124 71.7788 59.7375 71.8217C59.9627 71.8753 60.145 71.9396 60.3059 72.0468C60.7777 72.3364 61.0029 72.8082 61.0029 73.4515V76.0465C61.0029 76.2609 61.0243 76.4003 61.0565 76.5183C61.0886 76.6362 61.1422 76.7006 61.1851 76.7435V76.8293H60.07V76.8507L60.0592 76.8614ZM58.676 76.1644C58.8904 76.1644 59.062 76.1323 59.2121 76.0679C59.3622 76.0036 59.4909 75.9178 59.5982 75.8213C59.6947 75.7248 59.7804 75.5961 59.8448 75.4674C59.8984 75.3388 59.9306 75.1887 59.9306 75.06V74.3308C59.8126 74.4166 59.6732 74.4809 59.4909 74.5238C59.3086 74.5774 59.1478 74.6203 58.9548 74.6525C58.5795 74.7168 58.3114 74.8134 58.1184 74.9099C57.9254 75.0278 57.8289 75.1994 57.8289 75.4782C57.8289 75.6068 57.8503 75.7248 57.8932 75.7999C57.9361 75.8749 58.0112 75.9607 58.0755 76.0143C58.1398 76.0679 58.2363 76.1001 58.3543 76.1323C58.483 76.1644 58.5795 76.1644 58.6974 76.1644H58.676Z" fill="white"/>
<path d="M62.8671 72.6474H62.8992C63.0601 72.3686 63.2745 72.1649 63.5319 72.0148C63.7892 71.8646 64.1002 71.8003 64.4326 71.8003C64.9687 71.8003 65.3869 71.9504 65.6765 72.2507C65.9874 72.5616 66.1268 72.9798 66.1268 73.5052V76.8508H64.9473V73.6982C64.9473 73.4087 64.8615 73.1621 64.7007 73.0013C64.5398 72.8404 64.3146 72.7546 64.0037 72.7546C63.8428 72.7546 63.682 72.7868 63.5533 72.8404C63.4246 72.894 63.296 72.9905 63.1995 73.087C63.103 73.205 63.0172 73.3337 62.9743 73.4731C62.9314 73.6125 62.8885 73.784 62.8885 73.9556V76.8401H61.709V71.9182H62.8563V72.626L62.8671 72.6474Z" fill="white"/>
<path d="M0.771484 81.3652H6.33666V82.459H4.19209V88.2172H2.90534V82.459H0.771484V81.3652Z" fill="white"/>
<path d="M9.26431 88.2276C9.26431 88.2276 9.17853 88.099 9.14636 87.981C9.11419 87.8845 9.09275 87.7344 9.08203 87.5735H9.06058C8.89974 87.788 8.70672 87.981 8.4601 88.1097C8.21347 88.2598 7.89178 88.3241 7.50576 88.3241C7.25913 88.3241 7.03395 88.292 6.84094 88.2276C6.62648 88.1633 6.45492 88.0668 6.3048 87.9488C6.15468 87.8202 6.04745 87.67 5.95094 87.4985C5.86516 87.3162 5.82227 87.1125 5.82227 86.8658C5.82227 86.587 5.87588 86.3619 5.97239 86.1688C6.06889 85.9866 6.21901 85.8472 6.39058 85.7292C6.56215 85.6112 6.7766 85.5362 7.02323 85.4719C7.26986 85.4075 7.53793 85.3539 7.82745 85.3217C8.23492 85.2681 8.53516 85.2038 8.74962 85.1073C8.96407 85.0215 9.06058 84.8606 9.06058 84.6355C9.06058 84.421 8.9748 84.2494 8.8354 84.1208C8.696 83.9921 8.4601 83.9278 8.17058 83.9278C7.82745 83.9278 7.59154 83.9921 7.4307 84.1422C7.26986 84.2923 7.17335 84.4853 7.17335 84.7213H6.09034C6.09034 84.5068 6.14395 84.3138 6.24046 84.1208C6.32624 83.9278 6.46564 83.7455 6.64793 83.6061C6.83022 83.4667 7.03395 83.3487 7.2913 83.2522C7.54865 83.1664 7.85962 83.1235 8.21347 83.1235C8.50299 83.1235 8.74962 83.145 8.9748 83.1879C9.19998 83.2308 9.38227 83.3058 9.54311 83.4131C10.0149 83.6919 10.2401 84.1744 10.2401 84.8178V87.4127C10.2401 87.6272 10.2615 87.7666 10.2937 87.8845C10.3259 88.0025 10.3795 88.0668 10.4224 88.1097V88.1955H9.27504V88.2169L9.26431 88.2276ZM7.88106 87.5521C8.09552 87.5521 8.26709 87.5199 8.41721 87.4556C8.56733 87.3912 8.696 87.3055 8.80323 87.209C8.89974 87.1125 8.98552 86.9945 9.04986 86.8551C9.10347 86.7264 9.13564 86.5763 9.13564 86.4476V85.7185C9.01769 85.8043 8.87829 85.8472 8.696 85.9115C8.51371 85.9651 8.35287 86.008 8.15986 86.0402C7.78456 86.1045 7.51648 86.201 7.32347 86.2975C7.13046 86.394 7.03395 86.587 7.03395 86.8658C7.03395 86.9945 7.0554 87.1125 7.09829 87.1875C7.1519 87.2733 7.21624 87.3484 7.28058 87.402C7.36636 87.4556 7.44142 87.4985 7.55937 87.5199C7.68805 87.5414 7.78455 87.5521 7.90251 87.5521H7.88106Z" fill="white"/>
<path d="M12.6736 85.6437L11.0759 83.3062H12.4162L12.8988 84.0782C12.9524 84.164 12.9953 84.2605 13.0489 84.357C13.1025 84.4535 13.1454 84.55 13.199 84.6358C13.2526 84.7537 13.3169 84.8502 13.3598 84.9468H13.3813C13.4349 84.8502 13.4778 84.7323 13.5421 84.6358C13.5957 84.55 13.6386 84.4535 13.6923 84.357C13.7459 84.2605 13.7888 84.164 13.8424 84.0782L14.3463 83.3062H15.6009L14.0354 85.6009L15.8476 88.228H14.5286L13.8853 87.2415C13.8316 87.1557 13.7673 87.0592 13.703 86.9519C13.6386 86.8447 13.585 86.7375 13.5421 86.641C13.4778 86.523 13.4242 86.4158 13.3813 86.2978H13.3598C13.3062 86.4158 13.2419 86.523 13.1776 86.641C13.1239 86.7375 13.0596 86.8554 13.0167 86.9519C12.9524 87.0699 12.8988 87.1664 12.8559 87.2415L12.191 88.228H10.9043L12.695 85.6437H12.6736Z" fill="white"/>
<path d="M20.9848 81.3652H22.3573L24.8558 88.2279H23.4832L22.9364 86.598H20.3414L19.7946 88.2279H18.5078L20.9955 81.3652H20.9848ZM20.6631 85.6544H22.6361L22.1 84.0674C22.0356 83.8529 21.9713 83.6599 21.9177 83.4669C21.8641 83.2739 21.8212 83.0916 21.789 82.9308C21.7354 82.7485 21.7032 82.5769 21.6711 82.3946H21.6496C21.596 82.5876 21.5531 82.7807 21.4995 82.9737C21.4459 83.1345 21.403 83.3168 21.3494 83.5098C21.2958 83.7028 21.2314 83.8851 21.1885 84.046L20.6417 85.6437L20.6631 85.6544Z" fill="white"/>
<path d="M27.2354 88.3887C26.9137 88.3887 26.6027 88.3244 26.3454 88.2064C26.088 88.0884 25.8629 87.9169 25.6698 87.6917C25.4875 87.4665 25.3482 87.1877 25.2302 86.866C25.1337 86.5444 25.0801 86.1905 25.0801 85.783C25.0801 85.3756 25.1337 85.0217 25.2409 84.7215C25.3589 84.3998 25.4983 84.121 25.6806 83.8958C25.8736 83.6706 26.0988 83.4883 26.3561 83.3597C26.6135 83.231 26.903 83.1774 27.2139 83.1774C27.5571 83.1774 27.8573 83.2631 28.1039 83.4025C28.3613 83.5527 28.5543 83.7564 28.7151 84.0137H28.7366C28.7151 83.8851 28.7151 83.7242 28.7044 83.5419C28.7044 83.3597 28.683 83.1666 28.683 82.9951V81.3438H29.8625V88.2064H28.7366V87.4772H28.7151C28.565 87.7668 28.3613 87.9812 28.1039 88.1421C27.8788 88.3029 27.5678 88.3672 27.2354 88.3672V88.3887ZM27.482 87.4344C27.6965 87.4344 27.8895 87.3807 28.0503 87.3164C28.2112 87.2306 28.3613 87.1234 28.4578 86.9733C28.5757 86.8231 28.6508 86.6516 28.7044 86.4371C28.758 86.2227 28.7902 86.0189 28.7902 85.7723C28.7902 85.5257 28.758 85.3005 28.7044 85.0968C28.6508 84.893 28.5543 84.7107 28.4578 84.5606C28.3398 84.4105 28.2112 84.2818 28.0503 84.2068C27.8895 84.1317 27.6965 84.0781 27.482 84.0781C27.289 84.0781 27.1067 84.1317 26.9673 84.2068C26.8279 84.2818 26.6885 84.3998 26.592 84.5606C26.4955 84.7107 26.4097 84.8823 26.3668 85.0968C26.3132 85.3112 26.281 85.5364 26.281 85.7616C26.281 86.2656 26.3775 86.6516 26.5706 86.9518C26.785 87.2628 27.0745 87.4236 27.4713 87.4236L27.482 87.4344Z" fill="white"/>
<path d="M30.9785 83.3059H32.1044V84.0458H32.1365C32.2974 83.767 32.4904 83.5418 32.737 83.4024C32.9837 83.2523 33.2732 83.1772 33.6056 83.1772C33.9165 83.1772 34.1846 83.263 34.4098 83.4024C34.635 83.5525 34.7958 83.7885 34.9138 84.0994H34.9352C35.1282 83.7777 35.3749 83.5525 35.6322 83.4024C35.8896 83.2523 36.1791 83.1772 36.49 83.1772C36.994 83.1772 37.3908 83.3274 37.6696 83.6276C37.9484 83.9278 38.0878 84.3568 38.0878 84.8822V88.2277H36.9082V85.043C36.9082 84.7535 36.8225 84.5391 36.6831 84.3782C36.5437 84.2174 36.3399 84.1316 36.104 84.1316C35.8145 84.1316 35.5679 84.2495 35.3963 84.4533C35.2033 84.6677 35.1175 84.9572 35.1175 85.3111V88.2385H33.938V85.0538C33.938 84.7642 33.8737 84.5498 33.7235 84.3889C33.5949 84.2281 33.4018 84.1423 33.1552 84.1423C33.0265 84.1423 32.8979 84.1745 32.7692 84.2281C32.6405 84.2924 32.544 84.3782 32.4475 84.4747C32.351 84.5712 32.2652 84.6999 32.2223 84.85C32.1687 85.0001 32.1365 85.161 32.1365 85.3218V88.2492H30.957V83.3059H30.9785Z" fill="white"/>
<path d="M39.0957 81.3652H40.2859V82.4911H39.0957V81.3652ZM39.1171 83.3061H40.2967V88.2279H39.1171V83.3061Z" fill="white"/>
<path d="M42.494 84.0244H42.5262C42.687 83.7456 42.9015 83.5418 43.1588 83.3917C43.4162 83.2416 43.7271 83.1772 44.0596 83.1772C44.5957 83.1772 45.0139 83.3274 45.3034 83.6276C45.6144 83.9386 45.7538 84.3568 45.7538 84.8822V88.2277H44.5743V85.0645C44.5743 84.775 44.4885 84.5283 44.3276 84.3675C44.1668 84.2066 43.9416 84.1209 43.6306 84.1209C43.4698 84.1209 43.309 84.153 43.1803 84.2066C43.0516 84.271 42.9229 84.3568 42.8264 84.4533C42.7299 84.5712 42.6441 84.6999 42.6012 84.8393C42.5583 84.9787 42.5155 85.1503 42.5155 85.3218V88.2063H41.3359V83.2845H42.4833V84.0136L42.494 84.0244Z" fill="white"/>
<path d="M46.7734 81.3652H47.9637V82.4911H46.7734V81.3652ZM46.7949 83.3061H47.9744V88.2279H46.7949V83.3061Z" fill="white"/>
<path d="M50.9978 88.3889C50.2901 88.3889 49.7432 88.2281 49.3465 87.9171C48.9605 87.6062 48.746 87.2094 48.7031 86.7054H49.829C49.8826 86.995 50.0113 87.2201 50.2151 87.3488C50.4188 87.4775 50.6869 87.5418 51.0085 87.5418C51.3302 87.5418 51.5769 87.4775 51.7377 87.3488C51.8878 87.2201 51.9629 87.0593 51.9629 86.8663C51.9629 86.7376 51.9307 86.6411 51.8664 86.5553C51.802 86.4695 51.7163 86.4052 51.609 86.3623C51.5018 86.3194 51.3624 86.2658 51.2016 86.2336C51.0407 86.2015 50.8799 86.1693 50.6869 86.1157C50.4617 86.0621 50.2365 86.0192 50.0113 85.9548C49.7969 85.8905 49.6039 85.8047 49.443 85.6975C49.2822 85.5795 49.132 85.4509 49.0355 85.2793C48.939 85.1077 48.8854 84.8718 48.8854 84.6038C48.8854 84.3786 48.939 84.1641 49.0355 83.9711C49.132 83.7888 49.2607 83.628 49.443 83.4993C49.6039 83.3706 49.8183 83.2741 50.0542 83.2098C50.2901 83.1454 50.5582 83.1133 50.8477 83.1133C51.5125 83.1133 52.0058 83.242 52.3382 83.5207C52.6813 83.7995 52.8743 84.132 52.9387 84.5716H51.7913C51.7055 84.132 51.3731 83.9068 50.8048 83.9068C50.526 83.9068 50.3223 83.9604 50.1722 84.0676C50.022 84.1748 49.9577 84.325 49.9577 84.4858C49.9577 84.6038 49.9899 84.6788 50.0542 84.7646C50.1185 84.8504 50.2043 84.8933 50.3116 84.9469C50.4188 85.0005 50.5582 85.0327 50.719 85.0648C50.8692 85.097 51.0407 85.1292 51.223 85.1613C51.4696 85.215 51.6948 85.2579 51.8986 85.3115C52.1237 85.3758 52.3167 85.4616 52.499 85.5688C52.6813 85.6868 52.8207 85.8262 52.9172 86.0192C53.0137 86.2122 53.0781 86.4588 53.0781 86.7483C53.0781 87.0057 53.0245 87.2309 52.9172 87.4239C52.81 87.6169 52.6599 87.7777 52.4776 87.9279C52.2846 88.0565 52.0701 88.153 51.8128 88.2388C51.5554 88.3246 51.2766 88.3997 50.9871 88.3997L50.9978 88.3889Z" fill="white"/>
<path d="M53.4853 83.3063H54.2467V81.7407H55.394V83.3063H56.3805V84.1105H55.394V86.8663C55.394 87.0486 55.4476 87.1772 55.5441 87.2416C55.6406 87.3059 55.7693 87.3381 55.9302 87.3381C55.9945 87.3381 56.0588 87.3381 56.1232 87.3166C56.1875 87.3166 56.2518 87.2952 56.3055 87.2845H56.3591V88.2066C56.2626 88.2281 56.1446 88.2388 56.0159 88.2602C55.8873 88.2817 55.7371 88.2817 55.5763 88.2817C55.3833 88.2817 55.201 88.2602 55.0294 88.2173C54.8686 88.1637 54.7185 88.0994 54.6112 88.0243C54.504 87.9493 54.3968 87.8099 54.3324 87.6705C54.2681 87.5204 54.2359 87.3488 54.2359 87.1236V84.1212H53.4746V83.317H53.4961L53.4853 83.3063Z" fill="white"/>
<path d="M58.3427 84.1853H58.3749C58.6858 83.5419 59.1684 83.231 59.7903 83.231C59.9404 83.231 60.0369 83.2524 60.1013 83.2846V84.3354H60.0691C59.9726 84.314 59.8546 84.3032 59.7474 84.3032C59.3614 84.3032 59.0397 84.4212 58.7823 84.6785C58.525 84.9359 58.3963 85.2897 58.3963 85.7723V88.2385H57.2168V83.2953H58.3427V84.1853Z" fill="white"/>
<path d="M63.9069 88.2276C63.9069 88.2276 63.8211 88.099 63.7889 87.981C63.7568 87.8845 63.7353 87.7344 63.7246 87.5735H63.7032C63.5423 87.788 63.3493 87.981 63.1027 88.1097C62.856 88.2598 62.5344 88.3241 62.1483 88.3241C61.9017 88.3241 61.6765 88.292 61.4835 88.2276C61.2691 88.1633 61.0975 88.0668 60.9474 87.9488C60.7973 87.8202 60.69 87.67 60.5935 87.4985C60.5077 87.3162 60.4648 87.1125 60.4648 86.8658C60.4648 86.587 60.5185 86.3619 60.615 86.1688C60.7115 85.9866 60.8616 85.8472 61.0332 85.7292C61.2047 85.6112 61.4192 85.5362 61.6658 85.4719C61.9124 85.4075 62.1805 85.3539 62.47 85.3217C62.8775 85.2681 63.1777 85.2038 63.3922 85.1073C63.6067 85.0215 63.7032 84.8606 63.7032 84.6355C63.7032 84.421 63.6174 84.2494 63.478 84.1208C63.3386 83.9921 63.1027 83.9278 62.8132 83.9278C62.47 83.9278 62.2341 83.9921 62.0733 84.1422C61.9124 84.2923 61.8159 84.4853 61.8159 84.7213H60.7007C60.7007 84.5068 60.7544 84.3138 60.8509 84.1208C60.9367 83.9278 61.0761 83.7455 61.2583 83.6061C61.4406 83.4667 61.6444 83.3487 61.9017 83.2522C62.1591 83.1664 62.47 83.1235 62.8239 83.1235C63.1134 83.1235 63.36 83.145 63.5852 83.1879C63.8104 83.2415 63.9927 83.3058 64.1535 83.4131C64.6253 83.6919 64.8505 84.1744 64.8505 84.8178V87.4127C64.8505 87.6272 64.872 87.7666 64.9041 87.8845C64.9363 88.0025 64.9899 88.0668 65.0328 88.1097V88.1955H63.9176V88.2169L63.9069 88.2276ZM62.5022 87.5521C62.7167 87.5521 62.8882 87.5199 63.0383 87.4556C63.1885 87.3912 63.3171 87.3055 63.4244 87.209C63.5209 87.1125 63.6067 86.9945 63.671 86.8551C63.7246 86.7264 63.7568 86.5763 63.7568 86.4476V85.7185C63.6388 85.8043 63.4994 85.8472 63.3171 85.9115C63.1348 85.9758 62.974 86.008 62.781 86.0402C62.4057 86.1045 62.1376 86.201 61.9446 86.2975C61.7516 86.394 61.6551 86.587 61.6551 86.8658C61.6551 86.9945 61.6765 87.1125 61.7194 87.1875C61.7623 87.2626 61.8374 87.3484 61.9017 87.402C61.9875 87.4556 62.0626 87.4985 62.1805 87.5199C62.3092 87.5414 62.4271 87.5521 62.5236 87.5521H62.5022Z" fill="white"/>
<path d="M65.5595 83.3063H66.3209V81.7407H67.4682V83.3063H68.4547V84.1105H67.4682V86.8663C67.4682 87.0486 67.5218 87.1772 67.6183 87.2416C67.7149 87.3059 67.8435 87.3381 68.0044 87.3381C68.0687 87.3381 68.133 87.3381 68.1974 87.3166C68.2617 87.3166 68.3261 87.2952 68.3797 87.2845H68.4333V88.2066C68.3368 88.2281 68.2188 88.2388 68.0902 88.2602C67.9615 88.2817 67.8114 88.2817 67.6505 88.2817C67.4575 88.2817 67.2752 88.2602 67.1036 88.2173C66.9428 88.1637 66.7927 88.0994 66.6855 88.0243C66.5782 87.9493 66.471 87.8099 66.4067 87.6705C66.3423 87.5204 66.3102 87.3488 66.3102 87.1236V84.1212H65.5488V83.317H65.5703L65.5595 83.3063Z" fill="white"/>
<path d="M69.2578 81.3652H70.4481V82.4911H69.2578V81.3652ZM69.2793 83.3061H70.4588V88.2279H69.2793V83.3061Z" fill="white"/>
<path d="M73.7728 88.3886C73.3868 88.3886 73.0437 88.3243 72.7434 88.1741C72.4325 88.0455 72.1644 87.8524 71.9499 87.6273C71.7355 87.3806 71.5639 87.1126 71.446 86.8016C71.328 86.4799 71.2637 86.1368 71.2637 85.7829C71.2637 85.4291 71.328 85.0752 71.446 84.7535C71.5639 84.4318 71.7355 84.153 71.9499 83.9279C72.1751 83.6812 72.4325 83.5097 72.7434 83.381C73.0544 83.2523 73.4083 83.188 73.7728 83.188C74.1374 83.188 74.502 83.2523 74.8022 83.381C75.1025 83.5097 75.3705 83.7027 75.5957 83.9279C75.8209 84.1745 75.9817 84.4426 76.0997 84.7535C76.2176 85.0752 76.282 85.4183 76.282 85.7829C76.282 86.1475 76.2176 86.4906 76.0997 86.8016C75.9817 87.1233 75.8102 87.4021 75.5957 87.6273C75.3813 87.8524 75.1132 88.0455 74.8022 88.1741C74.4913 88.3028 74.1374 88.3886 73.7728 88.3886ZM73.7514 87.4986C73.9658 87.4986 74.1589 87.445 74.3197 87.3699C74.4805 87.2949 74.6307 87.1555 74.7272 87.0161C74.8451 86.8659 74.9202 86.6729 74.9845 86.4692C75.0489 86.2547 75.0703 86.0296 75.0703 85.7937C75.0703 85.5577 75.0381 85.3218 74.9845 85.0967C74.9202 84.8822 74.8344 84.6892 74.7272 84.5498C74.6092 84.3889 74.4805 84.271 74.3197 84.1745C74.1589 84.0887 73.9658 84.0458 73.7514 84.0458C73.5369 84.0458 73.3439 84.0994 73.1831 84.1745C73.0222 84.2496 72.8721 84.3889 72.7649 84.5498C72.6576 84.7106 72.5719 84.8929 72.5182 85.0967C72.4646 85.3111 72.4325 85.5363 72.4325 85.7937C72.4325 86.051 72.4646 86.2655 72.5182 86.4692C72.5719 86.6729 72.6684 86.8552 72.7649 87.0161C72.8828 87.1769 73.0115 87.2949 73.1831 87.3699C73.3439 87.4557 73.5369 87.4986 73.7514 87.4986Z" fill="white"/>
<path d="M78.2342 84.0244H78.2664C78.4273 83.7456 78.6417 83.5418 78.8991 83.3917C79.1564 83.2416 79.4674 83.1772 79.7998 83.1772C80.3359 83.1772 80.7541 83.3274 81.0436 83.6276C81.3546 83.9386 81.494 84.3568 81.494 84.8822V88.2277H80.3145V85.0645C80.3145 84.775 80.2287 84.5283 80.0679 84.3675C79.907 84.2066 79.6818 84.1209 79.3709 84.1209C79.21 84.1209 79.0492 84.153 78.9205 84.2066C78.7918 84.271 78.6632 84.3568 78.5667 84.4533C78.4701 84.5712 78.3844 84.6999 78.3415 84.8393C78.2986 84.9787 78.2557 85.1503 78.2557 85.3218V88.2063H77.0762V83.2845H78.2235V84.0136L78.2342 84.0244Z" fill="white"/>
<path d="M66.9966 66.9966H0V0H66.9966V66.9966ZM1.61916 65.3775H65.3882V1.61916H1.61916V65.3882V65.3775Z" fill="white"/>
<path d="M32.6734 46.1192C21.4572 46.1192 12.3535 41.1652 12.3535 35.0317C12.3535 28.8982 21.4465 23.955 32.6412 23.9443V18.4756C36.1154 18.4756 39.4395 18.9474 42.2918 19.7838L32.6841 29.4558V35.0425L42.2918 25.2739C48.6719 27.1504 53.0147 30.8069 53.0147 35.0425C53.0147 41.1652 43.911 46.1299 32.6734 46.1299V46.1192Z" fill="white"/>
</g>
<defs>
<clipPath id="clip0_4502_997">
<rect width="81.494" height="89" fill="white"/>
</clipPath>
</defs>
</svg>
