<?xml version="1.0" encoding="UTF-8"?>
<svg id="uuid-3c55e981-3f53-4a6b-8525-ab0584d62a35" data-name="Layer 1" xmlns="http://www.w3.org/2000/svg" viewBox="0 0 76 83">
  <g>
    <path d="m.72,65.27h5.19v1.02h-2v5.37h-1.2v-5.37H.72v-1.02Z" style="fill: #fff; stroke-width: 0px;"/>
    <path d="m7.75,67.31c0,.15-.02.3-.02.42h.03c.15-.24.35-.44.59-.57.23-.14.51-.21.84-.21.5,0,.89.14,1.16.42s.42.68.42,1.17v3.12h-1.1v-2.94c0-.27-.08-.5-.23-.65s-.36-.23-.65-.23c-.15,0-.3.03-.42.08-.12.06-.24.14-.33.23-.09.11-.17.23-.21.36-.05.14-.08.29-.08.45v2.69h-1.1v-6.4h1.1v1.73c-.02.06-.02.17-.02.32Z" style="fill: #fff; stroke-width: 0px;"/>
    <path d="m13.84,71.81c-.36,0-.69-.06-.98-.2s-.54-.3-.74-.51-.36-.48-.47-.77-.17-.62-.17-.95.06-.66.17-.96.27-.56.47-.77c.2-.23.44-.39.72-.51s.59-.18.93-.18.63.06.9.17c.26.11.48.27.68.48.23.24.39.54.5.89.11.35.17.74.15,1.16h-3.42c.05.39.17.72.38.96s.51.36.89.36c.26,0,.48-.06.65-.17.17-.11.29-.26.36-.44h1.07c-.06.21-.15.39-.26.57-.12.18-.27.33-.44.45-.18.14-.38.23-.62.3-.24.06-.5.11-.78.11Zm-.06-4.06c-.36,0-.63.11-.83.33s-.3.51-.35.87h2.29c-.02-.38-.14-.68-.32-.89-.2-.21-.47-.32-.8-.32Z" style="fill: #fff; stroke-width: 0px;"/>
    <path d="m19.06,65.27h1.22l2.12,3.36c.09.14.18.3.27.47s.18.33.26.48c.09.18.18.36.27.53h.03c-.02-.2-.02-.39-.03-.57-.02-.17-.02-.35-.03-.53,0-.2-.02-.36-.02-.53v-3.21h1.13v6.4h-1.22l-2.12-3.34c-.09-.14-.18-.3-.27-.48s-.18-.33-.26-.48c-.09-.18-.18-.36-.27-.53h-.02c0,.2.02.39.03.57.02.17.02.35.03.53,0,.2.02.36.02.53v3.21h-1.13v-6.4h-.02Z" style="fill: #fff; stroke-width: 0px;"/>
    <path d="m27.51,71.81c-.36,0-.68-.06-.96-.2-.29-.12-.54-.3-.74-.51-.2-.21-.36-.48-.47-.77s-.17-.62-.17-.95.06-.66.17-.96.27-.56.47-.77c.21-.23.45-.39.74-.51s.62-.18.96-.18.68.06.96.18c.29.12.53.3.74.51s.36.47.47.77.17.62.17.96-.06.66-.17.95-.27.56-.47.77c-.2.23-.45.39-.74.51s-.62.2-.96.2Zm-.02-.83c.2,0,.38-.05.53-.12s.29-.2.38-.33c.11-.15.18-.32.24-.51.06-.2.08-.41.08-.63s-.03-.44-.08-.65c-.06-.2-.14-.38-.24-.51-.11-.15-.23-.26-.38-.35-.15-.08-.33-.12-.53-.12s-.38.05-.53.12-.29.2-.39.35c-.11.15-.18.32-.23.51s-.08.41-.08.65c0,.23.03.44.08.63.05.2.14.36.23.51.11.14.23.26.39.33.15.08.33.12.53.12Z" style="fill: #fff; stroke-width: 0px;"/>
    <path d="m31.65,67.9h.03c.29-.6.74-.89,1.32-.89.14,0,.23.02.29.05v.98h-.03c-.09-.02-.2-.03-.3-.03-.36,0-.66.11-.9.35-.24.24-.36.57-.36,1.02v2.3h-1.1v-4.59h1.05v.81Z" style="fill: #fff; stroke-width: 0px;"/>
    <path d="m33.66,67.07h1.13l.59,2.14c.03.14.08.29.11.44.03.17.06.32.09.45.03.17.06.33.09.5h.02c.03-.17.06-.32.09-.48.03-.14.06-.29.09-.45.03-.17.08-.32.11-.45l.57-2.14h.96l.59,2.14c.03.14.08.27.11.44s.06.32.09.45c.03.17.06.33.09.5h.02c.03-.17.06-.33.09-.5.03-.14.06-.29.09-.45.03-.17.08-.32.12-.45l.62-2.14h1.1l-1.46,4.59h-1.05l-.57-2.18c-.03-.12-.06-.26-.09-.41-.03-.15-.06-.3-.09-.44-.03-.17-.06-.33-.09-.5h-.02c-.03.17-.08.33-.11.5-.03.14-.06.29-.09.44-.03.15-.06.29-.09.41l-.59,2.18h-1.05l-1.45-4.58Z" style="fill: #fff; stroke-width: 0px;"/>
    <path d="m42.98,71.81c-.36,0-.69-.06-.98-.2s-.54-.3-.74-.51-.36-.48-.47-.77c-.11-.3-.17-.62-.17-.95s.06-.66.17-.96.27-.56.47-.77c.2-.23.44-.39.72-.51s.59-.18.93-.18.63.06.9.17c.26.11.48.27.68.48.23.24.39.54.5.89.11.35.17.74.15,1.16h-3.43c.05.39.17.72.38.96s.51.36.89.36c.26,0,.48-.06.65-.17.17-.11.29-.26.36-.44h1.07c-.06.21-.15.39-.26.57-.12.18-.27.33-.44.45s-.38.23-.62.3c-.24.06-.5.11-.77.11Zm-.06-4.06c-.36,0-.63.11-.83.33s-.3.51-.35.87h2.29c-.02-.38-.14-.68-.32-.89-.21-.21-.47-.32-.8-.32Z" style="fill: #fff; stroke-width: 0px;"/>
    <path d="m47.95,73.27c-.62,0-1.11-.12-1.48-.36s-.57-.57-.63-1.01h1.05c.08.38.42.57,1.04.57.74,0,1.11-.33,1.11-1.01v-.45c0-.11,0-.21.02-.29h-.02c-.15.23-.32.41-.53.53s-.47.18-.77.18-.54-.05-.78-.15-.45-.26-.63-.44c-.18-.2-.32-.42-.42-.69-.11-.27-.15-.59-.15-.92s.05-.66.15-.93c.11-.29.24-.51.41-.71.17-.2.38-.35.62-.45s.5-.17.77-.17c.63,0,1.08.24,1.35.71h.02v-.59h1.05v4.29c0,.33-.05.6-.15.84s-.24.44-.42.59c-.2.17-.42.27-.69.35-.29.06-.59.11-.92.11Zm-.02-2.69c.21,0,.38-.03.53-.11s.27-.17.36-.29.17-.27.2-.44c.05-.17.06-.36.06-.56,0-.41-.09-.74-.29-.99s-.48-.38-.87-.38c-.36,0-.63.12-.83.38s-.29.59-.29,1.01.09.77.29,1.01c.21.24.48.36.84.36Z" style="fill: #fff; stroke-width: 0px;"/>
    <path d="m50.93,65.27h1.11v1.05h-1.11v-1.05Zm.02,1.81h1.1v4.59h-1.1v-4.59Z" style="fill: #fff; stroke-width: 0px;"/>
    <path d="m56.01,71.68s-.08-.12-.11-.23c-.03-.09-.05-.23-.06-.38h-.02c-.15.2-.33.36-.56.5s-.53.2-.89.2c-.23,0-.44-.03-.62-.09-.2-.06-.36-.14-.5-.26-.14-.12-.24-.26-.33-.42-.08-.17-.12-.36-.12-.59,0-.26.05-.47.14-.65.09-.17.23-.3.39-.41s.36-.18.59-.24.48-.11.75-.14c.38-.05.66-.11.86-.2s.29-.23.29-.44c0-.2-.08-.36-.21-.48s-.35-.18-.62-.18c-.32,0-.54.06-.69.2s-.24.32-.24.54h-1.04c0-.2.05-.38.14-.56.08-.18.21-.35.38-.48.17-.14.36-.24.6-.33s.53-.12.86-.12c.27,0,.5.02.71.06.21.05.38.11.53.21.44.27.65.71.65,1.31v2.42c0,.2.02.33.05.44.03.11.08.17.12.21v.08h-1.04v.02Zm-1.29-.65c.2,0,.36-.03.5-.09s.26-.14.36-.23c.09-.09.17-.21.23-.33.05-.12.08-.26.08-.38v-.68c-.11.08-.24.14-.41.18-.17.05-.32.09-.5.12-.35.06-.6.15-.78.24-.18.11-.27.27-.27.53,0,.12.02.23.06.3s.11.15.17.2.15.08.26.11c.12.03.21.03.32.03Z" style="fill: #fff; stroke-width: 0px;"/>
    <path d="m58.63,67.75h.03c.15-.26.35-.45.59-.59s.53-.2.84-.2c.5,0,.89.14,1.16.42.29.29.42.68.42,1.17v3.12h-1.1v-2.94c0-.27-.08-.5-.23-.65s-.36-.23-.65-.23c-.15,0-.3.03-.42.08s-.24.14-.33.23c-.09.11-.17.23-.21.36s-.08.29-.08.45v2.69h-1.1v-4.59h1.07v.66h0Z" style="fill: #fff; stroke-width: 0px;"/>
    <path d="m.72,75.88h5.19v1.02h-2v5.37h-1.2v-5.37H.72v-1.02Z" style="fill: #fff; stroke-width: 0px;"/>
    <path d="m8.64,82.28s-.08-.12-.11-.23c-.03-.09-.05-.23-.06-.38h-.02c-.15.2-.33.38-.56.5-.23.14-.53.2-.89.2-.23,0-.44-.03-.62-.09-.2-.06-.36-.15-.5-.26-.14-.12-.24-.26-.33-.42-.08-.17-.12-.36-.12-.59,0-.26.05-.47.14-.65.09-.17.23-.3.39-.41s.36-.18.59-.24c.23-.06.48-.11.75-.14.38-.05.66-.11.86-.2.2-.08.29-.23.29-.44,0-.2-.08-.36-.21-.48s-.35-.18-.62-.18c-.32,0-.54.06-.69.2-.15.14-.24.32-.24.54h-1.01c0-.2.05-.38.14-.56.08-.18.21-.35.38-.48s.36-.24.6-.33c.24-.08.53-.12.86-.12.27,0,.5.02.71.06s.38.11.53.21c.44.26.65.71.65,1.31v2.42c0,.2.02.33.05.44s.08.17.12.21v.08h-1.07v.02Zm-1.29-.63c.2,0,.36-.03.5-.09.14-.06.26-.14.36-.23.09-.09.17-.2.23-.33.05-.12.08-.26.08-.38v-.68c-.11.08-.24.12-.41.18-.17.05-.32.09-.5.12-.35.06-.6.15-.78.24s-.27.27-.27.53c0,.12.02.23.06.3.05.08.11.15.17.2.08.05.15.09.26.11.12.02.21.03.32.03Z" style="fill: #fff; stroke-width: 0px;"/>
    <path d="m11.82,79.87l-1.49-2.18h1.25l.45.72c.05.08.09.17.14.26.05.09.09.18.14.26.05.11.11.2.15.29h.02c.05-.09.09-.2.15-.29.05-.08.09-.17.14-.26.05-.09.09-.18.14-.26l.47-.72h1.17l-1.46,2.14,1.69,2.45h-1.23l-.6-.92c-.05-.08-.11-.17-.17-.27s-.11-.2-.15-.29c-.06-.11-.11-.21-.15-.32h-.02c-.05.11-.11.21-.17.32-.05.09-.11.2-.15.29-.06.11-.11.2-.15.27l-.62.92h-1.2l1.67-2.41Z" style="fill: #fff; stroke-width: 0px;"/>
    <path d="m19.57,75.88h1.28l2.33,6.4h-1.28l-.51-1.52h-2.42l-.51,1.52h-1.2l2.32-6.4Zm-.3,4h1.84l-.5-1.48c-.06-.2-.12-.38-.17-.56s-.09-.35-.12-.5c-.05-.17-.08-.33-.11-.5h-.02c-.05.18-.09.36-.14.54-.05.15-.09.32-.14.5s-.11.35-.15.5l-.51,1.49Z" style="fill: #fff; stroke-width: 0px;"/>
    <path d="m25.4,82.43c-.3,0-.59-.06-.83-.17-.24-.11-.45-.27-.63-.48-.17-.21-.3-.47-.41-.77-.09-.3-.14-.63-.14-1.01s.05-.71.15-.99c.11-.3.24-.56.41-.77.18-.21.39-.38.63-.5s.51-.17.8-.17c.32,0,.6.08.83.21.24.14.42.33.57.57h.02c-.02-.12-.02-.27-.03-.44,0-.17-.02-.35-.02-.51v-1.54h1.1v6.4h-1.05v-.68h-.02c-.14.27-.33.47-.57.62-.21.15-.5.21-.81.21Zm.23-.89c.2,0,.38-.05.53-.11.15-.08.29-.18.38-.32.11-.14.18-.3.23-.5s.08-.39.08-.62-.03-.44-.08-.63-.14-.36-.23-.5c-.11-.14-.23-.26-.38-.33s-.33-.12-.53-.12c-.18,0-.35.05-.48.12s-.26.18-.35.33c-.09.14-.17.3-.21.5-.05.2-.08.41-.08.62,0,.47.09.83.27,1.11.2.29.47.44.84.44Z" style="fill: #fff; stroke-width: 0px;"/>
    <path d="m28.89,77.69h1.05v.69h.03c.15-.26.33-.47.56-.6.23-.14.5-.21.81-.21.29,0,.54.08.75.21.21.14.36.36.47.65h.02c.18-.3.41-.51.65-.65.24-.14.51-.21.8-.21.47,0,.84.14,1.1.42s.39.68.39,1.17v3.12h-1.1v-2.97c0-.27-.08-.47-.21-.62s-.32-.23-.54-.23c-.27,0-.5.11-.66.3-.18.2-.26.47-.26.8v2.73h-1.1v-2.97c0-.27-.06-.47-.2-.62-.12-.15-.3-.23-.53-.23-.12,0-.24.03-.36.08-.12.06-.21.14-.3.23s-.17.21-.21.35c-.05.14-.08.29-.08.44v2.73h-1.1v-4.61h.02Z" style="fill: #fff; stroke-width: 0px;"/>
    <path d="m36.46,75.88h1.11v1.05h-1.11v-1.05Zm.02,1.81h1.1v4.59h-1.1v-4.59Z" style="fill: #fff; stroke-width: 0px;"/>
    <path d="m39.63,78.36h.03c.15-.26.35-.45.59-.59s.53-.2.84-.2c.5,0,.89.14,1.16.42.29.29.42.68.42,1.17v3.12h-1.1v-2.95c0-.27-.08-.5-.23-.65s-.36-.23-.65-.23c-.15,0-.3.03-.42.08-.12.06-.24.14-.33.23-.09.11-.17.23-.21.36s-.08.29-.08.45v2.69h-1.1v-4.59h1.07v.68h0Z" style="fill: #fff; stroke-width: 0px;"/>
    <path d="m43.62,75.88h1.11v1.05h-1.11v-1.05Zm.02,1.81h1.1v4.59h-1.1v-4.59Z" style="fill: #fff; stroke-width: 0px;"/>
    <path d="m47.56,82.43c-.66,0-1.17-.15-1.54-.44-.36-.29-.56-.66-.6-1.13h1.05c.05.27.17.48.36.6s.44.18.74.18.53-.06.68-.18c.14-.12.21-.27.21-.45,0-.12-.03-.21-.09-.29s-.14-.14-.24-.18-.23-.09-.38-.12-.3-.06-.48-.11c-.21-.05-.42-.09-.63-.15-.2-.06-.38-.14-.53-.24-.15-.11-.29-.23-.38-.39s-.14-.38-.14-.63c0-.21.05-.41.14-.59.09-.17.21-.32.38-.44.15-.12.35-.21.57-.27s.47-.09.74-.09c.62,0,1.08.12,1.39.38.32.26.5.57.56.98h-1.07c-.08-.41-.39-.62-.92-.62-.26,0-.45.05-.59.15s-.2.24-.2.39c0,.11.03.18.09.26s.14.12.24.17.23.08.38.11c.14.03.3.06.47.09.23.05.44.09.63.14.21.06.39.14.56.24.17.11.3.24.39.42s.15.41.15.68c0,.24-.05.45-.15.63s-.24.33-.41.47c-.18.12-.38.21-.62.29s-.5.15-.77.15Z" style="fill: #fff; stroke-width: 0px;"/>
    <path d="m49.88,77.69h.71v-1.46h1.07v1.46h.92v.75h-.92v2.57c0,.17.05.29.14.35.09.06.21.09.36.09.06,0,.12,0,.18-.02.06,0,.12-.02.17-.03h.05v.86c-.09.02-.2.03-.32.05-.12.02-.26.02-.41.02-.18,0-.35-.02-.51-.06-.15-.05-.29-.11-.39-.18s-.2-.2-.26-.33c-.06-.14-.09-.3-.09-.51v-2.8h-.71v-.75h.02Z" style="fill: #fff; stroke-width: 0px;"/>
    <path d="m54.41,78.51h.03c.29-.6.74-.89,1.32-.89.14,0,.23.02.29.05v.98h-.03c-.09-.02-.2-.03-.3-.03-.36,0-.66.11-.9.35s-.36.57-.36,1.02v2.3h-1.1v-4.61h1.05v.83Z" style="fill: #fff; stroke-width: 0px;"/>
    <path d="m59.6,82.28s-.08-.12-.11-.23c-.03-.09-.05-.23-.06-.38h-.02c-.15.2-.33.38-.56.5-.23.14-.53.2-.89.2-.23,0-.44-.03-.62-.09-.2-.06-.36-.15-.5-.26-.14-.12-.24-.26-.33-.42-.08-.17-.12-.36-.12-.59,0-.26.05-.47.14-.65.09-.17.23-.3.39-.41s.36-.18.59-.24c.23-.06.48-.11.75-.14.38-.05.66-.11.86-.2.2-.08.29-.23.29-.44,0-.2-.08-.36-.21-.48s-.35-.18-.62-.18c-.32,0-.54.06-.69.2-.15.14-.24.32-.24.54h-1.04c0-.2.05-.38.14-.56.08-.18.21-.35.38-.48s.36-.24.6-.33c.24-.08.53-.12.86-.12.27,0,.5.02.71.06.21.05.38.11.53.21.44.26.65.71.65,1.31v2.42c0,.2.02.33.05.44.03.11.08.17.12.21v.08h-1.04v.02Zm-1.31-.63c.2,0,.36-.03.5-.09.14-.06.26-.14.36-.23.09-.09.17-.2.23-.33.05-.12.08-.26.08-.38v-.68c-.11.08-.24.12-.41.18s-.32.09-.5.12c-.35.06-.6.15-.78.24s-.27.27-.27.53c0,.12.02.23.06.3s.11.15.17.2c.08.05.15.09.26.11.12.02.23.03.32.03Z" style="fill: #fff; stroke-width: 0px;"/>
    <path d="m61.14,77.69h.71v-1.46h1.07v1.46h.92v.75h-.92v2.57c0,.17.05.29.14.35.09.06.21.09.36.09.06,0,.12,0,.18-.02.06,0,.12-.02.17-.03h.05v.86c-.09.02-.2.03-.32.05-.12.02-.26.02-.41.02-.18,0-.35-.02-.51-.06-.15-.05-.29-.11-.39-.18s-.2-.2-.26-.33c-.06-.14-.09-.3-.09-.51v-2.8h-.71v-.75h.02Z" style="fill: #fff; stroke-width: 0px;"/>
    <path d="m64.59,75.88h1.11v1.05h-1.11v-1.05Zm.02,1.81h1.1v4.59h-1.1v-4.59Z" style="fill: #fff; stroke-width: 0px;"/>
    <path d="m68.8,82.43c-.36,0-.68-.06-.96-.2-.29-.12-.54-.3-.74-.51-.2-.23-.36-.48-.47-.77-.11-.3-.17-.62-.17-.95s.06-.66.17-.96.27-.56.47-.77c.21-.23.45-.39.74-.51.29-.12.62-.18.96-.18s.68.06.96.18.53.3.74.51c.21.23.36.48.47.77.11.3.17.62.17.96s-.06.66-.17.95c-.11.3-.27.56-.47.77-.2.21-.45.39-.74.51-.29.12-.62.2-.96.2Zm-.02-.83c.2,0,.38-.05.53-.12s.29-.2.38-.33c.11-.14.18-.32.24-.51.06-.2.08-.41.08-.63s-.03-.44-.08-.65c-.06-.2-.14-.38-.24-.51-.11-.15-.23-.26-.38-.35-.15-.08-.33-.12-.53-.12s-.38.05-.53.12-.29.2-.39.35-.18.32-.23.51c-.05.2-.08.41-.08.65s.03.44.08.63.14.36.23.51c.11.15.23.26.39.33.15.08.33.12.53.12Z" style="fill: #fff; stroke-width: 0px;"/>
    <path d="m72.96,78.36h.03c.15-.26.35-.45.59-.59s.53-.2.84-.2c.5,0,.89.14,1.16.42.29.29.42.68.42,1.17v3.12h-1.1v-2.95c0-.27-.08-.5-.23-.65s-.36-.23-.65-.23c-.15,0-.3.03-.42.08-.12.06-.24.14-.33.23-.09.11-.17.23-.21.36s-.08.29-.08.45v2.69h-1.1v-4.59h1.07v.68h0Z" style="fill: #fff; stroke-width: 0px;"/>
  </g>
  <path d="m62.48,62.48H0V0h62.48v62.48Zm-60.97-1.51h59.47V1.51H1.51v59.47Z" style="fill: #fff; stroke-width: 0px;"/>
  <path d="m30.47,43.01c-10.46,0-18.95-4.62-18.95-10.34s8.48-10.33,18.92-10.34v-5.1c3.24,0,6.34.44,9,1.22l-8.96,9.02v5.21l8.96-9.11c5.95,1.75,10,5.16,10,9.11,0,5.71-8.49,10.34-18.97,10.34Z" style="fill: #fff; stroke-width: 0px;"/>
</svg>