<svg xmlns="http://www.w3.org/2000/svg" id="uuid-3b064e8f-47f7-49c4-b5ed-fec31c8db2bd" viewBox="0 0 68 80.8">
    <path d="m33.66,45.94c-11.47,0-20.75-5.06-20.75-11.31s9.27-11.31,20.71-11.31v-5.58c3.53,0,6.94.49,9.85,1.33l-9.82,9.89v5.67l9.79-9.98c6.52,1.91,10.96,5.67,10.96,9.98,0,6.26-9.3,11.31-20.75,11.31" style="fill:#fff;"/><path d="m4.19,80.4c-.62,0-1.13-.06-1.62-.23-.45-.16-.88-.36-1.2-.62s-.58-.58-.75-.94-.26-.78-.29-1.23h1.65c.13,1.13.84,1.72,2.2,1.72.23,0,.45-.03.68-.06.23-.06.39-.13.55-.23.16-.1.29-.23.39-.39s.13-.36.13-.58-.06-.42-.16-.58-.26-.29-.45-.39c-.19-.1-.42-.19-.71-.26-.29-.06-.58-.16-.94-.23-.42-.1-.81-.19-1.17-.29s-.68-.26-.97-.45c-.26-.19-.49-.42-.65-.71-.16-.29-.23-.65-.23-1.1,0-.42.06-.78.23-1.1s.39-.58.68-.78c.29-.19.65-.36,1.04-.49.39-.1.84-.16,1.3-.16,1.04,0,1.85.23,2.4.68.58.45.91,1.1.97,1.91h-1.59c-.06-.42-.26-.78-.58-1s-.75-.36-1.26-.36c-.49,0-.91.1-1.2.29s-.45.45-.45.81c0,.19.06.39.16.52s.26.26.45.36c.19.1.42.16.71.26.26.06.58.13.91.23.42.1.81.19,1.17.29.39.13.71.29,1,.49.29.19.52.45.71.78.16.32.26.71.26,1.2,0,.45-.1.84-.26,1.17-.16.32-.42.62-.71.84s-.68.39-1.07.52c-.39.06-.84.13-1.33.13Z" style="fill:#fff;"/><path d="m10.29,77.19l-.75.75v2.3h-1.49v-8.82h1.49v3.4c0,.29,0,.58-.03.88,0,.29-.03.52-.03.68l2.37-2.46h1.78l-2.33,2.3,2.59,4.02h-1.75l-1.85-3.05Z" style="fill:#fff;"/><path d="m18.17,80.21c-.06-.06-.1-.16-.13-.29s-.06-.29-.06-.52h-.03c-.19.29-.45.52-.78.68s-.71.29-1.23.29c-.29,0-.58-.03-.84-.13s-.49-.19-.68-.36-.32-.36-.45-.58c-.1-.23-.16-.52-.16-.81,0-.36.06-.65.19-.88s.32-.42.55-.55c.23-.13.49-.26.81-.32s.65-.13,1.04-.19c.52-.06.91-.16,1.17-.26.26-.13.39-.32.39-.58,0-.29-.1-.49-.29-.65s-.49-.26-.84-.26c-.42,0-.75.1-.94.26-.19.19-.32.42-.32.75h-1.43c0-.26.06-.52.19-.78s.29-.45.52-.65.52-.36.84-.45c.32-.13.71-.16,1.17-.16.36,0,.68.03.97.1.29.06.52.16.71.29.62.36.91.97.91,1.82v3.24c0,.26.03.45.06.62.03.13.1.23.16.29v.1h-1.49Zm-1.78-.88c.26,0,.49-.03.68-.13s.36-.19.49-.32.23-.29.29-.45c.06-.16.1-.36.1-.52v-.94c-.16.1-.32.16-.55.23s-.45.13-.68.16c-.45.1-.81.19-1.07.32s-.39.39-.39.71c0,.16.03.29.1.42.06.13.13.19.23.26.1.06.23.13.36.13.19.13.32.13.45.13Z" style="fill:#fff;"/><path d="m19.82,73.89h.97v-2.01h1.49v2.01h1.26v1.04h-1.26v3.53c0,.23.06.39.16.45s.29.13.49.13h.26c.1,0,.16-.03.23-.03h.06v1.17c-.13.03-.26.03-.45.06-.16.03-.36.03-.55.03-.26,0-.49-.03-.71-.06-.23-.06-.39-.13-.55-.26s-.26-.26-.36-.45c-.1-.19-.13-.42-.13-.71v-3.86h-.97v-1.04h.06Z" style="fill:#fff;"/><path d="m23.74,73.89h.97v-2.01h1.49v2.01h1.26v1.04h-1.26v3.53c0,.23.06.39.16.45s.29.13.49.13h.26c.1,0,.16-.03.23-.03h.06v1.17c-.13.03-.26.03-.45.06-.16.03-.36.03-.55.03-.26,0-.49-.03-.71-.06-.23-.06-.39-.13-.55-.26s-.26-.26-.36-.45c-.1-.19-.13-.42-.13-.71v-3.86h-.97v-1.04h.06Z" style="fill:#fff;"/><path d="m30.94,80.4c-.52,0-.97-.1-1.36-.26s-.75-.42-1-.71c-.29-.29-.49-.65-.65-1.07s-.23-.84-.23-1.3c0-.49.06-.91.23-1.33.16-.42.36-.75.65-1.07.29-.29.62-.52,1-.71.39-.16.81-.26,1.26-.26s.88.06,1.23.23.68.39.94.65c.29.32.55.75.68,1.2.16.49.23,1,.23,1.62h-4.73c.06.55.23.97.52,1.33.29.32.68.52,1.23.52.36,0,.65-.06.91-.23.23-.16.39-.36.52-.62h1.46c-.06.29-.19.55-.36.78-.16.23-.36.45-.62.62-.26.16-.52.32-.84.42-.32.13-.68.19-1.07.19Zm-.1-5.58c-.49,0-.88.16-1.13.45s-.42.71-.49,1.2h3.14c-.03-.52-.19-.94-.45-1.23-.26-.29-.62-.42-1.07-.42Z" style="fill:#fff;"/><path d="m37.65,80.4c-.52,0-.97-.1-1.36-.26s-.75-.42-1-.71c-.29-.29-.49-.65-.65-1.07s-.23-.84-.23-1.3c0-.49.06-.91.23-1.33.16-.42.36-.75.65-1.07.29-.29.62-.52,1-.71.39-.16.81-.26,1.26-.26s.88.06,1.23.23.68.39.94.65c.29.32.55.75.68,1.2.16.49.23,1,.23,1.62h-4.73c.06.55.23.97.52,1.33.29.32.68.52,1.23.52.36,0,.65-.06.91-.23.23-.16.39-.36.52-.62h1.46c-.06.29-.19.55-.36.78-.16.23-.36.45-.62.62-.26.16-.52.32-.84.42-.32.13-.68.19-1.07.19Zm-.1-5.58c-.49,0-.88.16-1.13.45s-.42.71-.49,1.2h3.14c-.03-.52-.19-.94-.45-1.23-.23-.29-.62-.42-1.07-.42Z" style="fill:#fff;"/><path d="m40.73,73.89h.97v-2.01h1.49v2.01h1.26v1.04h-1.26v3.53c0,.23.06.39.16.45.13.1.29.13.49.13h.26c.1,0,.16-.03.23-.03h.06v1.17c-.13.03-.26.03-.45.06-.16.03-.36.03-.55.03-.26,0-.49-.03-.71-.06-.23-.06-.39-.13-.55-.26s-.26-.26-.36-.45-.13-.42-.13-.71v-3.86h-.97v-1.04h.06Z" style="fill:#fff;"/><path d="m49.12,80.21c-.06-.06-.1-.16-.13-.29-.03-.13-.06-.29-.06-.52h-.03c-.19.29-.45.52-.78.68s-.71.29-1.23.29c-.29,0-.58-.03-.84-.13s-.49-.19-.68-.36-.32-.36-.45-.58c-.1-.23-.16-.52-.16-.81,0-.36.06-.65.19-.88.13-.23.32-.42.55-.55.23-.13.49-.26.81-.32s.65-.13,1.04-.19c.52-.06.91-.16,1.17-.26.26-.13.39-.32.39-.58,0-.29-.1-.49-.29-.65-.19-.16-.49-.26-.84-.26-.42,0-.75.1-.94.26-.19.19-.32.42-.32.75h-1.46c0-.26.06-.52.19-.78.13-.26.29-.45.52-.65.23-.19.52-.36.84-.45.32-.13.71-.16,1.17-.16.36,0,.68.03.97.1.29.06.52.16.71.29.62.36.91.97.91,1.82v3.24c0,.26.03.45.06.62.03.13.1.23.16.29v.1h-1.46Zm-1.78-.88c.26,0,.49-.03.68-.13s.36-.19.49-.32.23-.29.29-.45.1-.36.1-.52v-.94c-.16.1-.32.16-.55.23s-.45.13-.68.16c-.45.1-.81.19-1.07.32s-.39.39-.39.71c0,.16.03.29.1.42s.13.19.23.26c.1.06.23.13.36.13.16.13.29.13.45.13Z" style="fill:#fff;"/><path d="m50.48,73.89h.97v-2.01h1.49v2.01h1.26v1.04h-1.26v3.53c0,.23.06.39.16.45.13.1.29.13.49.13h.26c.1,0,.16-.03.23-.03h.06v1.17c-.13.03-.26.03-.45.06-.16.03-.36.03-.55.03-.26,0-.49-.03-.71-.06-.23-.06-.39-.13-.55-.26s-.26-.26-.36-.45-.13-.42-.13-.71v-3.86h-.97v-1.04h.06Z" style="fill:#fff;"/><path d="m57.65,80.4c-.52,0-.97-.1-1.36-.26s-.75-.42-1-.71c-.29-.29-.49-.65-.65-1.07s-.23-.84-.23-1.3c0-.49.06-.91.23-1.33.16-.42.36-.75.65-1.07.29-.29.62-.52,1-.71.39-.16.81-.26,1.26-.26s.88.06,1.23.23.68.39.94.65c.29.32.55.75.68,1.2.16.49.23,1,.23,1.62h-4.73c.06.55.23.97.52,1.33.29.32.68.52,1.23.52.36,0,.65-.06.91-.23.23-.16.39-.36.52-.62h1.46c-.06.29-.19.55-.36.78-.16.23-.36.45-.62.62-.26.16-.52.32-.84.42-.32.13-.68.19-1.07.19Zm-.1-5.58c-.49,0-.88.16-1.13.45s-.42.71-.49,1.2h3.14c-.03-.52-.19-.94-.45-1.23-.23-.29-.62-.42-1.07-.42Z" style="fill:#fff;"/><path d="m62.67,74.83h.03c.19-.36.49-.62.81-.81s.71-.29,1.17-.29c.68,0,1.23.19,1.62.58.39.39.58.94.58,1.62v4.28h-1.49v-4.05c0-.39-.1-.68-.32-.88-.19-.23-.52-.32-.91-.32-.23,0-.42.03-.58.1-.16.06-.32.19-.45.32s-.23.29-.29.49-.1.39-.1.62v3.7h-1.49v-6.32h1.46v.97h-.03Z" style="fill:#fff;"/>
    <path d="m65.66,2.4v62.74H2.92V2.4h62.74m2-2H.92v66.74h66.74V.4h0Z" style="fill:#fff;"/>
</svg>