<?xml version="1.0" encoding="UTF-8"?>
<svg id="uuid-e8daaf54-a955-4ba6-bd90-59eb2dfc232c" data-name="Layer 1" xmlns="http://www.w3.org/2000/svg" viewBox="0 0 164 40">
  <rect x="-.15" width="36" height="40" style="fill: #6f2c3f; stroke-width: 0px;"/>
  <g>
    <path d="m3.14,4.1h3.61v11.52h6.54v3.06H3.14V4.1Z" style="fill: #fff; stroke-width: 0px;"/>
    <path d="m13.55,11.42c0-4.36,2.79-7.6,7.2-7.6s7.22,3.24,7.22,7.6-2.79,7.6-7.22,7.6-7.2-3.24-7.2-7.6Zm10.74,0c0-2.65-1.16-4.69-3.53-4.69s-3.55,2.04-3.55,4.69,1.2,4.67,3.55,4.67,3.53-2.02,3.53-4.67Z" style="fill: #fff; stroke-width: 0px;"/>
  </g>
  <g>
    <path d="m5.09,34.09c-1.26-1.39-1.96-3.3-1.96-5.52s.77-4.3,2.16-5.69c1.2-1.22,2.89-1.94,4.99-1.94,3.75,0,5.99,2,6.46,5.06h-3.51c-.27-1.18-1.24-2.08-2.83-2.08-2.41,0-3.61,2-3.61,4.65s1.39,4.65,3.67,4.65c1.9,0,3.02-1.26,3.16-2.55v-.04h-2.73v-2.65h6.07v7.83h-2.53l-.2-1.75h-.04c-.96,1.49-2.39,2.08-4.14,2.08-2.08,0-3.77-.73-4.97-2.04Z" style="fill: #fff; stroke-width: 0px;"/>
    <path d="m18.14,28.54c0-4.36,2.79-7.6,7.2-7.6s7.22,3.24,7.22,7.6-2.79,7.6-7.22,7.6-7.2-3.24-7.2-7.6Zm10.74,0c0-2.65-1.16-4.69-3.53-4.69s-3.55,2.04-3.55,4.69,1.2,4.67,3.55,4.67,3.53-2.02,3.53-4.67Z" style="fill: #fff; stroke-width: 0px;"/>
  </g>
  <g>
    <path d="m46.34,8.19h6.06v.95h-4.98v2.71h4.52v.91h-4.52v3.01h5.12v1h-6.2v-8.58Z" style="fill: #6f2c3f; stroke-width: 0px;"/>
    <path d="m54.63,11.38h.02c.44-.59,1.07-.96,1.97-.96,1.3,0,2.09.71,2.09,1.99v4.35h-.97v-4.27c0-.8-.53-1.26-1.4-1.26-.98,0-1.7.7-1.7,1.71v3.81h-.97v-6.2h.97v.82Z" style="fill: #6f2c3f; stroke-width: 0px;"/>
    <path d="m61.51,14.75h1c.13,1.08.85,1.38,1.77,1.38,1.02,0,1.44-.44,1.44-1.02,0-.7-.48-.88-1.62-1.12-1.22-.25-2.31-.5-2.31-1.86,0-1.03.79-1.7,2.23-1.7,1.54,0,2.29.73,2.43,1.94h-1c-.1-.82-.54-1.18-1.46-1.18s-1.25.4-1.25.89c0,.67.6.8,1.67,1.02,1.25.25,2.29.53,2.29,1.96,0,1.25-1.02,1.88-2.45,1.88-1.7,0-2.65-.8-2.75-2.19Z" style="fill: #6f2c3f; stroke-width: 0px;"/>
    <path d="m69.52,13.42l-.91.86v2.48h-.97v-8.58h.97v5.03l2.72-2.65h1.24l-2.38,2.23,2.66,3.97h-1.14l-2.19-3.35Z" style="fill: #6f2c3f; stroke-width: 0px;"/>
    <path d="m74.48,11.6h.02c.37-.6,1.02-1.1,1.85-1.1.18,0,.28.02.4.07v.94h-.04c-.14-.05-.24-.06-.43-.06-.96,0-1.8.72-1.8,1.88v3.44h-.97v-6.2h.97v1.03Z" style="fill: #6f2c3f; stroke-width: 0px;"/>
    <path d="m77.03,13.67c0-1.8,1.18-3.26,2.94-3.26,1.86,0,2.85,1.44,2.85,3.49h-4.8c.07,1.26.75,2.22,2,2.22.9,0,1.5-.43,1.71-1.27h.95c-.29,1.33-1.26,2.09-2.66,2.09-1.9,0-3-1.46-3-3.26Zm1.02-.5h3.73c-.06-1.24-.7-1.99-1.81-1.99s-1.77.86-1.92,1.99Z" style="fill: #6f2c3f; stroke-width: 0px;"/>
    <path d="m83.43,13.68c0-2.06,1.19-3.26,2.72-3.26.88,0,1.55.43,1.94,1.02h.02v-3.25h.97v8.58h-.97v-.76h-.02c-.47.6-1.04.94-1.92.94-1.69,0-2.75-1.27-2.75-3.26Zm4.75.01c0-1.44-.7-2.45-1.98-2.45-1.17,0-1.77,1.06-1.77,2.45s.6,2.43,1.79,2.43c1.38,0,1.97-1.03,1.97-2.43Z" style="fill: #6f2c3f; stroke-width: 0px;"/>
    <path d="m90.07,13.68c0-2.06,1.19-3.26,2.72-3.26.88,0,1.55.43,1.94,1.02h.02v-3.25h.97v8.58h-.97v-.76h-.02c-.47.6-1.04.94-1.92.94-1.69,0-2.75-1.27-2.75-3.26Zm4.75.01c0-1.44-.7-2.45-1.98-2.45-1.17,0-1.77,1.06-1.77,2.45s.6,2.43,1.79,2.43c1.38,0,1.97-1.03,1.97-2.43Z" style="fill: #6f2c3f; stroke-width: 0px;"/>
    <path d="m96.7,13.67c0-1.8,1.18-3.26,2.94-3.26,1.86,0,2.85,1.44,2.85,3.49h-4.8c.07,1.26.75,2.22,2,2.22.9,0,1.5-.43,1.71-1.27h.95c-.29,1.33-1.26,2.09-2.66,2.09-1.9,0-3-1.46-3-3.26Zm1.02-.5h3.73c-.06-1.24-.7-1.99-1.81-1.99s-1.77.86-1.92,1.99Z" style="fill: #6f2c3f; stroke-width: 0px;"/>
    <path d="m104.42,11.6h.02c.37-.6,1.02-1.1,1.85-1.1.18,0,.28.02.4.07v.94h-.04c-.14-.05-.24-.06-.43-.06-.96,0-1.8.72-1.8,1.88v3.44h-.97v-6.2h.97v1.03Z" style="fill: #6f2c3f; stroke-width: 0px;"/>
    <path d="m107.17,14.75h1c.13,1.08.85,1.38,1.77,1.38,1.02,0,1.44-.44,1.44-1.02,0-.7-.48-.88-1.62-1.12-1.22-.25-2.31-.5-2.31-1.86,0-1.03.79-1.7,2.23-1.7,1.54,0,2.29.73,2.43,1.94h-1c-.1-.82-.54-1.18-1.46-1.18s-1.25.4-1.25.89c0,.67.6.8,1.67,1.02,1.25.25,2.29.53,2.29,1.96,0,1.25-1.02,1.88-2.45,1.88-1.7,0-2.65-.8-2.75-2.19Z" style="fill: #6f2c3f; stroke-width: 0px;"/>
    <path d="m113.15,18.69v-.86h.05c.13.07.34.13.66.13.41,0,.68-.16.92-.76l.24-.61-2.42-6.02h1.05l1.46,3.86c.19.52.42,1.21.42,1.21h.02s.22-.7.41-1.21l1.42-3.86h1.03l-2.65,6.7c-.5,1.28-.98,1.55-1.74,1.55-.37,0-.61-.02-.88-.13Z" style="fill: #6f2c3f; stroke-width: 0px;"/>
    <path d="m118.64,13.68c0-2.06,1.19-3.26,2.72-3.26.88,0,1.55.43,1.94,1.02h.02v-3.25h.97v8.58h-.97v-.76h-.02c-.47.6-1.04.94-1.92.94-1.69,0-2.75-1.27-2.75-3.26Zm4.75.01c0-1.44-.7-2.45-1.98-2.45-1.17,0-1.77,1.06-1.77,2.45s.6,2.43,1.79,2.43c1.38,0,1.97-1.03,1.97-2.43Z" style="fill: #6f2c3f; stroke-width: 0px;"/>
    <path d="m125.27,13.68c0-2.06,1.19-3.26,2.72-3.26.88,0,1.55.43,1.94,1.02h.02v-3.25h.97v8.58h-.97v-.76h-.02c-.47.6-1.04.94-1.92.94-1.69,0-2.75-1.27-2.75-3.26Zm4.75.01c0-1.44-.7-2.45-1.98-2.45-1.17,0-1.77,1.06-1.77,2.45s.6,2.43,1.79,2.43c1.38,0,1.97-1.03,1.97-2.43Z" style="fill: #6f2c3f; stroke-width: 0px;"/>
    <path d="m134.2,8.19h.97v8.58h-.97v-8.58Z" style="fill: #6f2c3f; stroke-width: 0px;"/>
    <path d="m136.18,13.67c0-1.8,1.15-3.26,3-3.26s2.99,1.46,2.99,3.26-1.13,3.26-2.99,3.26-3-1.46-3-3.26Zm4.99,0c0-1.37-.67-2.46-1.99-2.46s-2,1.09-2,2.46.68,2.45,2,2.45,1.99-1.08,1.99-2.45Z" style="fill: #6f2c3f; stroke-width: 0px;"/>
    <path d="m142.99,17.11h.9c.1.68.74.95,1.7.95,1.14,0,1.77-.52,1.77-1.6v-.88h-.02c-.46.59-.95.96-1.83.96-1.61,0-2.71-1.28-2.71-3.07,0-1.93,1.21-3.06,2.65-3.06.9,0,1.48.35,1.9.94h.02v-.79h.97v5.86c0,1.63-1.08,2.4-2.72,2.4s-2.52-.65-2.63-1.72Zm4.45-3.68c0-1.36-.58-2.19-1.89-2.19-1.16,0-1.75.91-1.75,2.25s.61,2.24,1.76,2.24c1.43,0,1.88-1,1.88-2.3Z" style="fill: #6f2c3f; stroke-width: 0px;"/>
    <path d="m149.31,13.67c0-1.8,1.15-3.26,3-3.26s2.99,1.46,2.99,3.26-1.13,3.26-2.99,3.26-3-1.46-3-3.26Zm4.99,0c0-1.37-.67-2.46-1.99-2.46s-2,1.09-2,2.46.68,2.45,2,2.45,1.99-1.08,1.99-2.45Z" style="fill: #6f2c3f; stroke-width: 0px;"/>
    <path d="m45.8,24.97h.85v-1c0-1.07.61-1.45,1.64-1.45.2,0,.36.01.49.02v.83c-.17-.01-.22-.01-.31-.01-.62,0-.85.16-.85.66v.95h1.15v.79h-1.15v5.41h-.97v-5.41h-.85v-.79Z" style="fill: #6f2c3f; stroke-width: 0px;"/>
    <path d="m49.2,28.07c0-1.8,1.15-3.26,3-3.26s2.99,1.46,2.99,3.26-1.13,3.26-2.99,3.26-3-1.46-3-3.26Zm4.99,0c0-1.37-.67-2.46-1.99-2.46s-2,1.09-2,2.46.68,2.45,2,2.45,1.99-1.08,1.99-2.45Z" style="fill: #6f2c3f; stroke-width: 0px;"/>
    <path d="m57.13,26h.02c.37-.6,1.02-1.1,1.85-1.1.18,0,.28.02.4.07v.94h-.04c-.14-.05-.24-.06-.43-.06-.96,0-1.8.72-1.8,1.88v3.44h-.97v-6.2h.97v1.03Z" style="fill: #6f2c3f; stroke-width: 0px;"/>
    <path d="m61.83,28.07c0-1.8,1.18-3.26,2.94-3.26,1.86,0,2.85,1.44,2.85,3.49h-4.8c.07,1.26.76,2.22,2,2.22.9,0,1.5-.43,1.72-1.27h.95c-.29,1.33-1.26,2.09-2.66,2.09-1.9,0-3-1.46-3-3.26Zm1.02-.5h3.73c-.06-1.24-.7-1.99-1.81-1.99s-1.77.86-1.92,1.99Z" style="fill: #6f2c3f; stroke-width: 0px;"/>
    <path d="m68.42,31.51h.9c.1.68.74.95,1.7.95,1.14,0,1.77-.52,1.77-1.6v-.88h-.02c-.46.59-.95.96-1.83.96-1.61,0-2.71-1.28-2.71-3.07,0-1.93,1.21-3.06,2.65-3.06.9,0,1.48.35,1.89.94h.02v-.79h.97v5.86c0,1.63-1.08,2.4-2.72,2.4s-2.52-.65-2.63-1.72Zm4.45-3.68c0-1.36-.58-2.19-1.9-2.19-1.16,0-1.75.91-1.75,2.25s.61,2.24,1.76,2.24c1.43,0,1.88-1,1.88-2.3Z" style="fill: #6f2c3f; stroke-width: 0px;"/>
    <path d="m74.74,28.07c0-1.8,1.18-3.26,2.94-3.26,1.86,0,2.85,1.44,2.85,3.49h-4.8c.07,1.26.75,2.22,2,2.22.9,0,1.5-.43,1.71-1.27h.95c-.29,1.33-1.26,2.09-2.66,2.09-1.9,0-3-1.46-3-3.26Zm1.02-.5h3.73c-.06-1.24-.7-1.99-1.81-1.99s-1.77.86-1.92,1.99Z" style="fill: #6f2c3f; stroke-width: 0px;"/>
    <path d="m82.46,25.78h.02c.44-.59,1.07-.96,1.97-.96,1.29,0,2.09.71,2.09,1.99v4.35h-.97v-4.27c0-.8-.53-1.26-1.4-1.26-.98,0-1.7.7-1.7,1.71v3.81h-.97v-6.2h.97v.82Z" style="fill: #6f2c3f; stroke-width: 0px;"/>
    <path d="m89.73,24.97h.97v.89h.02c.38-.6,1.04-1.03,1.82-1.03s1.35.38,1.62,1.1h.02c.4-.71,1.14-1.1,1.9-1.1,1.1,0,1.88.71,1.88,1.99v4.35h-.97v-4.31c0-.77-.52-1.22-1.14-1.22-.8,0-1.52.7-1.52,1.67v3.86h-.97v-4.31c0-.77-.43-1.22-1.07-1.22-.76,0-1.6.7-1.6,1.67v3.86h-.97v-6.2Z" style="fill: #6f2c3f; stroke-width: 0px;"/>
    <path d="m98.91,28.07c0-1.8,1.18-3.26,2.94-3.26,1.86,0,2.85,1.44,2.85,3.49h-4.8c.07,1.26.75,2.22,2,2.22.9,0,1.5-.43,1.71-1.27h.95c-.29,1.33-1.26,2.09-2.66,2.09-1.9,0-3-1.46-3-3.26Zm1.02-.5h3.73c-.06-1.24-.7-1.99-1.81-1.99s-1.77.86-1.92,1.99Z" style="fill: #6f2c3f; stroke-width: 0px;"/>
    <path d="m106.62,26h.02c.37-.6,1.02-1.1,1.85-1.1.18,0,.28.02.4.07v.94h-.04c-.14-.05-.24-.06-.43-.06-.96,0-1.8.72-1.8,1.88v3.44h-.97v-6.2h.97v1.03Z" style="fill: #6f2c3f; stroke-width: 0px;"/>
    <path d="m111.65,27.82l-.91.86v2.48h-.97v-8.58h.97v5.03l2.72-2.65h1.24l-2.38,2.23,2.66,3.97h-1.14l-2.19-3.35Z" style="fill: #6f2c3f; stroke-width: 0px;"/>
    <path d="m114.93,28.07c0-1.8,1.18-3.26,2.94-3.26,1.86,0,2.85,1.44,2.85,3.49h-4.8c.07,1.26.75,2.22,2,2.22.9,0,1.5-.43,1.71-1.27h.95c-.29,1.33-1.26,2.09-2.66,2.09-1.9,0-3-1.46-3-3.26Zm1.02-.5h3.73c-.06-1.24-.7-1.99-1.81-1.99s-1.77.86-1.92,1.99Z" style="fill: #6f2c3f; stroke-width: 0px;"/>
    <path d="m120.92,24.97h1.04l1.28,3.93c.18.55.41,1.31.41,1.31h.02s.23-.77.41-1.31l1.31-3.93h1.01l-2.23,6.2h-1.08l-2.17-6.2Z" style="fill: #6f2c3f; stroke-width: 0px;"/>
    <path d="m130.71,30.3h-.01c-.37.48-1.01.98-2.06.98-1.18,0-2.1-.55-2.1-1.73,0-1.46,1.15-1.76,2.7-2,.88-.13,1.49-.22,1.49-.89s-.5-1.09-1.39-1.09c-1.01,0-1.51.43-1.55,1.37h-.94c.04-1.2.83-2.1,2.47-2.1,1.32,0,2.29.49,2.29,1.97v2.95c0,.5.12.78.66.66h.04v.71c-.12.05-.28.1-.53.1-.64,0-.97-.29-1.07-.92Zm.02-1.43v-1.06c-.32.2-.89.36-1.42.46-.97.18-1.75.35-1.75,1.26,0,.83.65,1.01,1.28,1.01,1.29,0,1.88-.95,1.88-1.67Z" style="fill: #6f2c3f; stroke-width: 0px;"/>
    <path d="m134,26h.02c.37-.6,1.02-1.1,1.85-1.1.18,0,.28.02.4.07v.94h-.04c-.14-.05-.24-.06-.43-.06-.96,0-1.8.72-1.8,1.88v3.44h-.97v-6.2h.97v1.03Z" style="fill: #6f2c3f; stroke-width: 0px;"/>
    <path d="m136.55,28.07c0-1.8,1.18-3.26,2.94-3.26,1.86,0,2.85,1.44,2.85,3.49h-4.8c.07,1.26.75,2.22,2,2.22.9,0,1.5-.43,1.71-1.27h.95c-.29,1.33-1.26,2.09-2.66,2.09-1.9,0-3-1.46-3-3.26Zm1.02-.5h3.73c-.06-1.24-.7-1.99-1.81-1.99s-1.77.86-1.92,1.99Z" style="fill: #6f2c3f; stroke-width: 0px;"/>
  </g>
</svg>