<svg xmlns="http://www.w3.org/2000/svg" id="Layer_1" data-name="Layer 1" viewBox="0 0 176.01 49.25"><defs><style>.cls-1{fill:#fff;}</style></defs><path class="cls-1" d="M51.25,15.22H60c5.06,0,7.64,1,7.64,7.21S65,29.73,60,29.73H56.44v5.08H51.25ZM60,25.6c1.14,0,2.42-.1,2.42-3.11S61.07,19.4,60,19.4H56.44v6.2Z" transform="translate(-0.07 -0.02)"/><path class="cls-1" d="M69.24,25c0-8.6,3.8-10.12,9.65-10.12S88.5,16.37,88.5,25s-3.78,10.17-9.66,10.17S69.24,33.61,69.24,25Zm13.81.77V24.24c0-3.69-.93-4.92-4.21-4.92s-4.15,1.17-4.15,4.87v1.54c0,3.7,1,5.09,4.2,5.09S83.05,29.49,83.05,25.79Z" transform="translate(-0.07 -0.02)"/><path class="cls-1" d="M90.92,15.22h5.21V30.44h8.81v4.37h-14Z" transform="translate(-0.07 -0.02)"/><path class="cls-1" d="M107.09,15.22h5.25V34.81h-5.25Z" transform="translate(-0.07 -0.02)"/><path class="cls-1" d="M120.74,19.72h-6.22v-4.5h17.69v4.5H126V34.81h-5.22Z" transform="translate(-0.07 -0.02)"/><path class="cls-1" d="M134.39,15.22h5.24V34.81h-5.24Z" transform="translate(-0.07 -0.02)"/><path class="cls-1" d="M142.85,15.22h14v4.5h-8.8v3h7.1v4.49h-7.1v3.22h8.8v4.37h-14Z" transform="translate(-0.07 -0.02)"/><path class="cls-1" d="M164.61,19.72h-6.22v-4.5h17.69v4.5h-6.25V34.81h-5.22Z" transform="translate(-0.07 -0.02)"/><path class="cls-1" d="M21.44,44.25l-.08,0A30,30,0,0,1,11.12,32C9,27.11,8.84,15.53,8.83,15.42v-.19H34v.19c0,.11-.18,11.69-2.28,16.61A30,30,0,0,1,21.51,44.2l-.07,0ZM9.12,15.55c0,1.35.3,11.8,2.26,16.36a29.51,29.51,0,0,0,10.06,12,29.67,29.67,0,0,0,10.06-12c2-4.56,2.23-15,2.25-16.36Z" transform="translate(-0.07 -0.02)"/><path class="cls-1" d="M21.29,19.07l-.92-.1a1.46,1.46,0,0,1-.47-.14c-.08,0-.15.11-.13.18a2.18,2.18,0,0,0,.56.17l1.11.09Z" transform="translate(-0.07 -0.02)"/><path class="cls-1" d="M14.14,17.93a4.44,4.44,0,0,1-1.72-.43c-.65-.39-1.6-1.14-1.6-1.14a8.45,8.45,0,0,0,.12,2.12,14.33,14.33,0,0,0,.83,2.09s.32-.37,1-1a2,2,0,0,1,1.41-.53h1.14V17.93Z" transform="translate(-0.07 -0.02)"/><path class="cls-1" d="M20.93,7.6a2.3,2.3,0,0,0,.49.06A3.94,3.94,0,0,0,22,7.6l-.13,1.9a1.18,1.18,0,0,0-.43-.09,1.12,1.12,0,0,0-.41.08Z" transform="translate(-0.07 -0.02)"/><path class="cls-1" d="M11.79,9.87a1.16,1.16,0,0,0-.37-.07,1.7,1.7,0,0,0-.34,0,4,4,0,0,1-.16-2c.2-.48,1.21-.6,2.08-.64,1.14,0,2.58,0,2.58,0a.7.7,0,0,0-.13.26,2.64,2.64,0,0,0-.06.26s-1.26-.08-1.83,0a3.86,3.86,0,0,0-1.7.37,1,1,0,0,0-.21.85C11.7,9.32,11.79,9.87,11.79,9.87Z" transform="translate(-0.07 -0.02)"/><path class="cls-1" d="M16.73,9.64a1.17,1.17,0,0,0-.25,0,1.12,1.12,0,0,0-.6.19,5.18,5.18,0,0,1-.15-2.37c.18-.4,1-.52,2.14-.48a13.34,13.34,0,0,1,2.81.6v.3a12.45,12.45,0,0,0-2.35-.42c-1,0-1.34.05-1.52.24a1.42,1.42,0,0,0-.19,1C16.66,9.06,16.73,9.64,16.73,9.64Z" transform="translate(-0.07 -0.02)"/><path class="cls-1" d="M31.14,9.87a1.09,1.09,0,0,1,.37-.07,1.38,1.38,0,0,1,.34,0,4.08,4.08,0,0,0,.16-2c-.2-.48-1.21-.6-2.08-.64-1.14,0-2.6,0-2.6,0a.7.7,0,0,1,.13.26,2.64,2.64,0,0,1,.06.26s1.28-.08,1.85,0a3.86,3.86,0,0,1,1.7.37.92.92,0,0,1,.2.85C31.22,9.32,31.14,9.87,31.14,9.87Z" transform="translate(-0.07 -0.02)"/><path class="cls-1" d="M26.22,9.63a.9.9,0,0,1,.25,0,1.12,1.12,0,0,1,.6.19,5.15,5.15,0,0,0,.13-2.35C27,7,26.2,6.91,25.06,7a13.59,13.59,0,0,0-2.81.59v.3a13,13,0,0,1,2.36-.41c1,0,1.34.05,1.52.24a1.53,1.53,0,0,1,.2,1C26.3,9.12,26.22,9.63,26.22,9.63Z" transform="translate(-0.07 -0.02)"/><path class="cls-1" d="M18.89,15.38H31l1.13-5.13a1.63,1.63,0,0,0-.65-.19.69.69,0,0,0-.66.32c-.22.46.35.95.35.95l-.29.38A1.83,1.83,0,0,0,30.1,11c-.19,0-.55.11-.55.79s.14.8.48.78S31,12,31,12l.16.36-.63,1.25a4.51,4.51,0,0,1-1.63.26c-1.49,0-1.63-.28-1.63-.28l-.62-1.23.16-.36s.58.62,1,.66.5-.22.5-.78-.32-.83-.57-.78-.8.65-.8.65l-.28-.38s.57-.46.52-.87-.75-.58-.75-.58-.61,0-.75.47.5,1,.5,1l-.29.38s-.41-.59-.83-.66c-.14,0-.54.06-.53.83,0,.53.15.76.48.74s1-.66,1-.66l.17.36-.63,1.23s-.14.28-1.51.28h0c-1.37,0-1.52-.2-1.52-.2l-.74-1.38.2-.36s.56.68.93.7.57-.22.6-.77-.34-.92-.59-.87a2.58,2.58,0,0,0-.93.66l-.21-.35s.68-.63.51-1.11-.74-.45-.74-.45-.6.05-.74.45.51,1.11.51,1.11L21,11.6s-.59-.63-1-.66-.58.27-.56.79.26.86.6.85.94-.71.94-.71l.19.36-.72,1.37s0,.22-1.57.22c-1.37,0-1.51-.28-1.51-.28l-.63-1.23.17-.36s.59.64,1,.66.48-.21.48-.74c0-.77-.39-.85-.53-.83-.42.07-.83.66-.83.66l-.29-.38s.65-.51.5-1-.75-.47-.75-.47-.68,0-.75.58.52.87.52.87L16,11.7s-.41-.57-.8-.65-.57.15-.57.78.16.82.5.78S16,12,16,12l.17.36-.62,1.23s-.14.26-1.63.28a4.45,4.45,0,0,1-1.63-.26l-.63-1.25.16-.36s.59.65,1,.66.48-.21.48-.78S13,11,12.76,11a1.83,1.83,0,0,0-.81.67l-.29-.38s.57-.49.35-.95a.69.69,0,0,0-.66-.32,1.63,1.63,0,0,0-.65.19l1.16,5.13H24" transform="translate(-0.07 -0.02)"/><path class="cls-1" d="M21.47,3.58A1.93,1.93,0,1,0,23.4,5.51,1.94,1.94,0,0,0,21.47,3.58Z" transform="translate(-0.07 -0.02)"/><path class="cls-1" d="M22,3.42V2.06h1V1.14H21.93V0H21V1.14H19.93v.92h1V3.42a2,2,0,0,1,1,0Z" transform="translate(-0.07 -0.02)"/><path class="cls-1" d="M15.48,9a8,8,0,0,0-1.73.54,7.43,7.43,0,0,0-1.49.84.88.88,0,0,1,0,.35,7.28,7.28,0,0,1,1.63-1,8.38,8.38,0,0,1,1.6-.49Z" transform="translate(-0.07 -0.02)"/><path class="cls-1" d="M16.86,8.77l0,.28s2-.21,3.84-.24V8.54C19.62,8.55,17.63,8.68,16.86,8.77Z" transform="translate(-0.07 -0.02)"/><path class="cls-1" d="M27.44,9a7.2,7.2,0,0,1,1.74.52,6.92,6.92,0,0,1,1.41.78.68.68,0,0,0-.06.32A6.63,6.63,0,0,0,29,9.72a7.87,7.87,0,0,0-1.62-.48Z" transform="translate(-0.07 -0.02)"/><path class="cls-1" d="M26.06,8.78l0,.27s-2-.21-3.88-.23l0-.28C23.27,8.55,25.29,8.68,26.06,8.78Z" transform="translate(-0.07 -0.02)"/><path class="cls-1" d="M31.44,25.5a1.62,1.62,0,0,1-.84,0,2.7,2.7,0,0,0-.61-.15,2.76,2.76,0,0,0-.59.11,6.22,6.22,0,0,1,1.26-1.48c.9-.8,2.12-2.48,1.77-4s-1.17-2-2.22-2-1.78.32-2.15,1.2a8.29,8.29,0,0,0-.15,1.11,6.89,6.89,0,0,1-.48.74,8.26,8.26,0,0,0-.52,1.25l.13,0,.88-.9.06.51s-.41.54-1,1.27A8,8,0,0,0,26,25l.23-.05a7.68,7.68,0,0,1,1.7-1.58c.4-.3,1.09-.76,1.23-1.21a2.17,2.17,0,0,0,0-1,1.56,1.56,0,0,1,.47.71,1.75,1.75,0,0,1,.05.8A4.49,4.49,0,0,0,30,21.14c-.12-.85-.34-1-.74-1.14-.1,0-.46,0-.46,0a1,1,0,0,1,.68-1.29,1.55,1.55,0,0,1,2,.65A2.46,2.46,0,0,1,31.33,22a14.59,14.59,0,0,1-3,2.59c-1.2.82-2.18,1.9-2,3a11.7,11.7,0,0,0,2,4.07,2.49,2.49,0,0,1,.35,2.71,1.87,1.87,0,0,1-2.47.47,7.86,7.86,0,0,1-2-3.4,8.4,8.4,0,0,0-1.15-2.18l.1-4.81.35.16a3.57,3.57,0,0,1,.18-.84c.18-.49.8-1.31,1.18-2.24a6.78,6.78,0,0,0,.38-2.24,2.83,2.83,0,0,0,.4-.44l0-.45-.39-.25h0l.74-1.13c-.13-.06-.46.1-.46.1s-.31-.39-.51,0a.25.25,0,0,0,.16.37l-.14.21-.8-.2-.06-.29s.36.24.46-.13-.31-.3-.31-.3.12-.24-.22-.33-.33.19-.33.19-.34-.23-.42.1.28.33.28.33l-.22.24-.75-.15-.09-.27s.42,0,.36-.33-.47-.18-.47-.18a.31.31,0,0,0-.36-.18l.12,1.2,2.64.62-.3.11-2.4-.56-.82.59.08.63.39.5-.33.54,1.25.13-.14.32a11.85,11.85,0,0,0-1.54.31,13.15,13.15,0,0,0-2.31,1.57,2,2,0,0,0-.41.63l-1.86-1-.1-.38-.42.12-.44-.26a3.75,3.75,0,0,0,.58-1,1.5,1.5,0,0,0-.11-.93l-.16-.1,0,.68-.45.17L15,21l-.15-.1V17.34h-.62v3.15s-.05-.08-.49-.13a1.7,1.7,0,0,0-.81.14l-.14.18.7.09.12.45.62.17v.38a.76.76,0,0,0-.63.24,1.88,1.88,0,0,0-.55.85l0,.18c.11-.12.31-.45.4-.43a1.22,1.22,0,0,1,.49.18l.24-.2v4.85a1.13,1.13,0,0,0-.59,0,2.53,2.53,0,0,0-.44.14l-.1.2s.47-.12.64,0,.08.25.15.38.22.13.27.22v.78l-.36.61,0,.33.48-.39v1.69h.62V29.81l.27,0,.79-.87s.43,0,.54.21,0,.38.1.49a1,1,0,0,0,.16.08l4.06-4.87-1.66,2,.32.85.78.86.26,1.59-2,.94a6.59,6.59,0,0,0-.32,1.25c-.14.81-.22,1.43-.22,1.43l.16.67-2.43-.26-.17-.65a3.94,3.94,0,0,0,.52-.83,1.58,1.58,0,0,0,0-1.1l-.16-.18-.05.73-.42.09-.09.75H15a1.72,1.72,0,0,0-.66-.79,1.4,1.4,0,0,0-1-.17l-.09.11.71.22-.11.48.82.34-.11.18-.75.13-.08.26-.71,0,.07.13a1.39,1.39,0,0,0,.86.29,1.66,1.66,0,0,0,.86-.22l.31.76-.38.38.12.14.35,0,2.71.57.51.44.89-.4a1.45,1.45,0,0,1,.17-.68c.11-.16.32-.44.46-.62,0,0-.42-.74-.49-.89a4.54,4.54,0,0,1-.18-1.66c.1-.49,1.6-1.76,1.6-1.76l.42-.86.18.08-.42.92A5.42,5.42,0,0,0,19.45,32a4.22,4.22,0,0,0,.18,1.51l.43.78a7.68,7.68,0,0,0,1,1.07A2.67,2.67,0,0,1,22,36.71a12.07,12.07,0,0,1,.23,2.74c0,.34,0,.65,0,.65l-.59.14s-.46-.83-.68-.92c-.47-.21-.87-.37-.87-.37l-.2.07.52.42-.06.63.82.52a2.77,2.77,0,0,1-.69.18c-.49,0-.87.79-.87.79v.17l.53-.29.46.25.7-.58.14.11a2.56,2.56,0,0,0-.05.93,2.7,2.7,0,0,0,.39.83l.21,0-.2-.77.44-.38-.19-.7.63-.44.57.45.08-.1a21.51,21.51,0,0,1,.21-3.51,1.2,1.2,0,0,0,.31-.51,3.39,3.39,0,0,0,0-.85,1.69,1.69,0,0,1-.28-.53,8.59,8.59,0,0,1-.17-2.32c0-.29,0-.55,0-.8a16,16,0,0,0,1.33,2,2.88,2.88,0,0,0,2.84,1.23,2.66,2.66,0,0,0,2-3.23c-1-2.49-.82-2.9-.82-2.9l1.72-.73,0-.11-.64,0L29,28.69h-.48v-.26l2.47-1.1-.05-.14-.47.06-1-.22-.87.18.09-.43Zm-6.46-7,.22.11,0,.24-.26.23-.07-.26-.19-.21ZM14.87,29.1v-.7s.46,0,.47.24S14.87,29.1,14.87,29.1Zm1.55-.91L16,27.88l0-1.1-.59-1h-.21l.29.6-.29.52.26.67-.21.21-.37-.46V21.88l.49.28-.17.32.29.21.23-.09L18,24.37l-.15.55.7-.07Zm3.31-5.8a7.22,7.22,0,0,0-.85,1.28l-.18-.09a6.09,6.09,0,0,1,.92-1.37A6,6,0,0,1,21.09,22v.2A6.39,6.39,0,0,0,19.73,22.39Zm2.11-4.24.45-.31,1.43.31.06.23a5.23,5.23,0,0,0-.71-.2c-.07.26-.17.29-.23.31a.74.74,0,0,1-.39,0c-.17-.08-.17-.39-.17-.39a1,1,0,0,0-.35.19Zm.24,1.2L22,19l1,.12.08.35Zm.7-1.05s.08-.17.08-.17l-.39-.06s0,.21.05.22A1.11,1.11,0,0,0,22.78,18.3Z" transform="translate(-0.07 -0.02)"/><path class="cls-1" d="M38.33,15.23H37l.86-2.43L36.17,8.21,34.52,12.8l.86,2.43H34v.09a.14.14,0,0,0-.1.12v1h0v1.43h0v22h0V41.3h0v1a.15.15,0,0,0,.14.14H35.5v2.57a2.75,2.75,0,0,0-2.41,2.71v.41H9.75v-.41a2.74,2.74,0,0,0-2.38-2.7V42.48H8.83A.14.14,0,0,0,9,42.34V15.44a.15.15,0,0,0-.13-.14v-.07H7.51l.86-2.42L6.72,8.21l-1.65,4.6.87,2.42H4.55A4.79,4.79,0,0,0,.07,20.14,4.82,4.82,0,0,0,4.4,25.05V42.62H6v3.46h1.2a1.69,1.69,0,0,1,1.51,1.68v1.51H34.14V47.76a1.62,1.62,0,0,1,1.61-1.67h1.12V42.62h1.62V25.06a4.82,4.82,0,0,0,4.34-4.91A4.8,4.8,0,0,0,38.33,15.23ZM4.46,24.62h0A1.56,1.56,0,0,1,3.21,23a1.58,1.58,0,0,1,1.25-1.59Zm0-3.45A1.85,1.85,0,0,0,2.93,23a1.93,1.93,0,0,0,.6,1.41,4.57,4.57,0,0,1,0-8.59,1.89,1.89,0,0,0-.58,1.39,1.86,1.86,0,0,0,1.56,1.88Zm0-4.76v2.44a1.58,1.58,0,0,1-1.28-1.6,1.6,1.6,0,0,1,1.1-1.56l.18,0ZM8.69,38.14,7.4,36.3l1.29-1.88Zm-2-17.67L4.89,17.85H8.53Zm2-2.32,0,.93L7.22,21.2l-.34-.48Zm0,5.59v1l-3.9-5.58v-1Zm0,1.89,0,.93L7.22,28.69l-.34-.48Zm0-.44L6.71,28,4.82,25.23v-.08l1.89-2.73Zm0,6v1L4.82,26.72v-1Zm0,1.82,0,.94L7.22,36.06l-.33-.48Zm-2,2.29L4.82,32.64l1.89-2.73,1.9,2.73ZM6,28.94,4.82,30.73V27.17Zm.17.24.33.48L4.82,32.14v-.95Zm2.45,9.37v1L4.82,34.13v-1Zm-.13,1.31H4.89l1.82-2.58ZM6,36.3,4.82,38.06V34.58Zm.17.25.34.48L4.82,39.48v-1Zm2.49,3.59V41H4.82v-.88Zm0-9.33-1.3-1.88L8.69,27Zm0-7.48-1.3-1.88,1.3-1.92Zm-1.83-8.1V13h1l-.81,2.28Zm0-5.4,1,2.84h-1Zm-.29,0v2.8h-1ZM5.57,13h1v2.28H6.39Zm-.83,2.7H8.69v.76H4.74Zm0,1H8.69v.88H4.74Zm0,2.89L6,21.45l-1.3,1.9Zm0,5.06h0v-.83L6.21,21.7l.33.48L4.79,24.71Zm2.32,21H6.44V42.48h.65ZM6.22,42.2H4.82v-.9H8.69v.9H6.22ZM35.5,45.69a2.07,2.07,0,0,0-1.78,2.07v1.09H9.14V47.76a2.11,2.11,0,0,0-1.77-2.08v-.34a2.46,2.46,0,0,1,2.1,2.42v.55a.14.14,0,0,0,.14.14H33.23a.14.14,0,0,0,.14-.14v-.55a2.46,2.46,0,0,1,2.13-2.42Zm.8-30.46V12.94h1l-.81,2.29Zm0-5.4,1,2.83h-1Zm-.28,0v2.79H35Zm-1,3.07h1v2.29h-.19Zm-.82,6.63,1.3,1.88-1.3,1.91Zm1.47,2.12.33.48L34.2,24.75v-.93Zm-1.47,5.36,1.3,1.88-1.3,1.91Zm0,5.18V31.3l1.47-2.12.33.48Zm2-2.33,1.89,2.74-1.89,2.69-1.89-2.69Zm-2,4.56,1.29,1.85-1.29,1.88Zm0,5.12v-.94l1.46-2.09L36,37Zm2-2.3L38,39.86H34.35Zm.29,8.38h-.66V42.48h.66Zm1.62-3.46H34.19v-.9h3.88Zm0-1.18H34.19v-.88h3.88Zm0-1.51-3.86-5.46V33l3.86,5.46Zm0-1.46-1.23-1.74,1.23-1.78Zm0-4-1.4,2-.34-.48,1.74-2.47Zm0-1.91-3.86-5.52v-1l3.86,5.52Zm0-1.45-1.24-1.78,1.24-1.81Zm0-4.05-1.41,2-.33-.47,1.74-2.51Zm0-1.45L36.16,28l-1.92-2.77,1.92-2.77,1.91,2.75Zm0-.56h0v0l-3.86-5.52v-1l3.9,5.58Zm-3.77-6.81H38l-1.82,2.63Zm3.79,5.47-1.3-1.86,1.3-1.91Zm0-4.22L36.66,21.2l-.33-.48,1.79-2.58v.95Zm0-1.53H34.19v-.87h3.94Zm0-1.15H34.19v-.76h3.94Zm.28,1.43V15.66l.21,0a1.64,1.64,0,0,1-.21,3.15Zm.19,6.75-.19,0V21.45a1.64,1.64,0,0,1,.19,3.14Zm.79-.16A2,2,0,0,0,40,23a1.87,1.87,0,0,0-1.56-1.88v-2A1.87,1.87,0,0,0,40,17.25a2,2,0,0,0-.58-1.39,4.56,4.56,0,0,1,0,8.57Z" transform="translate(-0.07 -0.02)"/><path class="cls-1" d="M15.08,43.53H13.91a.14.14,0,0,1-.14-.14V42.21a.14.14,0,0,1,.14-.14h1.17a.14.14,0,0,1,.14.14v1.18a.14.14,0,0,1-.14.14Zm-1-.28h.89v-.9h-.89v.9Z" transform="translate(-0.07 -0.02)"/><path class="cls-1" d="M18.54,46.87H17.36a.14.14,0,0,1-.14-.14V45.55a.14.14,0,0,1,.14-.14h1.18a.15.15,0,0,1,.14.14v1.18a.14.14,0,0,1-.14.14Zm-1-.28h.9v-.9h-.9v.9Z" transform="translate(-0.07 -0.02)"/><path class="cls-1" d="M11.62,40.17H10.45a.14.14,0,0,1-.14-.14V38.86a.14.14,0,0,1,.14-.14h1.17a.14.14,0,0,1,.14.14V40a.14.14,0,0,1-.14.14Zm-1-.28h.89V39h-.89v.89Z" transform="translate(-0.07 -0.02)"/><path class="cls-1" d="M11.63,46.87H10.45a.14.14,0,0,1-.14-.14V45.55a.14.14,0,0,1,.14-.14h1.18a.15.15,0,0,1,.14.14v1.18a.14.14,0,0,1-.14.14Zm-1-.28h.9v-.9h-.9v.9Z" transform="translate(-0.07 -0.02)"/><path class="cls-1" d="M25.43,46.87H24.26a.14.14,0,0,1-.14-.14V45.55a.14.14,0,0,1,.14-.14h1.17a.14.14,0,0,1,.14.14v1.18a.14.14,0,0,1-.14.14Zm-1-.28h.89v-.9H24.4v.9Z" transform="translate(-0.07 -0.02)"/><path class="cls-1" d="M28.89,43.53H27.71a.14.14,0,0,1-.14-.14V42.21a.14.14,0,0,1,.14-.14h1.18a.14.14,0,0,1,.14.14v1.18a.15.15,0,0,1-.14.14Zm-1-.28h.9v-.9h-.9v.9Z" transform="translate(-0.07 -0.02)"/><path class="cls-1" d="M32.35,40.17H31.17A.14.14,0,0,1,31,40V38.86a.14.14,0,0,1,.14-.14h1.18a.14.14,0,0,1,.14.14V40a.14.14,0,0,1-.14.14Zm-1-.28h.89V39h-.89v.89Z" transform="translate(-0.07 -0.02)"/><path class="cls-1" d="M32.34,46.87H31.17a.14.14,0,0,1-.14-.14V45.55a.14.14,0,0,1,.14-.14h1.17a.14.14,0,0,1,.14.14v1.18a.14.14,0,0,1-.14.14Zm-1-.28h.89v-.9h-.89v.9Z" transform="translate(-0.07 -0.02)"/><path class="cls-1" d="M11.44,32.1a.14.14,0,0,0-.13-.09h-.86a.14.14,0,0,0-.14.14v1.18a.14.14,0,0,0,.14.14h1.17a.14.14,0,0,0,.14-.14v-.56C11.65,32.55,11.54,32.33,11.44,32.1Zm0,1.09h-.89v-.9h.63a5.57,5.57,0,0,0,.26.54Z" transform="translate(-0.07 -0.02)"/><path class="cls-1" d="M32.35,32h-.82a.13.13,0,0,0-.13.09l-.37.83v.4a.14.14,0,0,0,.14.14h1.18a.14.14,0,0,0,.14-.14V32.15A.15.15,0,0,0,32.35,32Zm-.15,1.18h-.9V33c.11-.23.22-.47.32-.71h.58Z" transform="translate(-0.07 -0.02)"/><path class="cls-1" d="M16.32,40v-.46a.18.18,0,0,0,0-.1l-.62-.7a.16.16,0,0,0-.11-.05h-.12l-.16-.19V38.3a.16.16,0,0,0,0-.09l-.44-.54a.11.11,0,0,0-.11-.06H14a.14.14,0,0,0-.14.14v.91h-.91a.14.14,0,0,0-.14.14V40a.14.14,0,0,0,.14.14h.91V41a.14.14,0,0,0,.14.14h1.17a.14.14,0,0,0,.14-.14v-.91h.91A.14.14,0,0,0,16.32,40ZM16,39.83h-.9A.14.14,0,0,0,15,40v.91H14.1V40a.15.15,0,0,0-.14-.14h-.91v-.89H14a.14.14,0,0,0,.14-.14v-.91h.52c.12.16.25.31.37.46v.45a.14.14,0,0,0,.14.14h.36c.18.22.36.42.54.62Z" transform="translate(-0.07 -0.02)"/><path class="cls-1" d="M19,42a.11.11,0,0,0-.09,0h-.17v-.12a.16.16,0,0,0,0-.11c-.27-.24-.55-.49-.84-.77a.14.14,0,0,0-.09,0H17.4a.14.14,0,0,0-.14.14V42h-.9a.15.15,0,0,0-.15.14v1.18a.15.15,0,0,0,.15.14h.9v.9a.14.14,0,0,0,.14.14h1.18a.14.14,0,0,0,.14-.14v-.9h.9a.14.14,0,0,0,.14-.14v-.57a.16.16,0,0,0-.05-.11Zm.5,1.13h-.9a.15.15,0,0,0-.14.15v.9h-.9v-.9a.15.15,0,0,0-.14-.15h-.9v-.89h.9a.14.14,0,0,0,.14-.14v-.9h.14l.76.69v.21a.14.14,0,0,0,.14.14h.26c.22.2.44.37.64.54Z" transform="translate(-0.07 -0.02)"/><path class="cls-1" d="M10.37,31.1a.14.14,0,0,0,.14.14h.39a.14.14,0,0,0,.12-.06.15.15,0,0,0,0-.13c-.21-.63-.41-1.37-.6-2.2a.13.13,0,0,0-.13-.11H9.46a.14.14,0,0,0-.14.14v1.17a.14.14,0,0,0,.14.14h.91ZM9.6,29.91V29h.58c.07.31.15.61.22.89Z" transform="translate(-0.07 -0.02)"/><path class="cls-1" d="M26.51,42h-.9v-.9a.14.14,0,0,0-.14-.14h-.36a.15.15,0,0,0-.1,0c-.28.27-.55.52-.81.74a.15.15,0,0,0,0,.11V42l-.05,0H24a.11.11,0,0,0-.09,0l-.7.58a.16.16,0,0,0-.05.11v.59a.14.14,0,0,0,.14.14h.91v.9a.14.14,0,0,0,.14.14h1.17a.14.14,0,0,0,.14-.14v-.9h.9a.14.14,0,0,0,.14-.14V42.14A.14.14,0,0,0,26.51,42Zm-.14,1.17h-.9a.15.15,0,0,0-.14.15v.9h-.89v-.9a.15.15,0,0,0-.14-.15h-.91V42.8c.19-.16.4-.33.61-.52h.3a.14.14,0,0,0,.14-.14V41.9c.23-.2.47-.43.72-.66h.17v.9a.14.14,0,0,0,.14.14h.9Z" transform="translate(-0.07 -0.02)"/><path class="cls-1" d="M30,38.66h-.9v-.91a.15.15,0,0,0-.15-.14h-.76a.13.13,0,0,0-.11.06l-.41.51a.11.11,0,0,0,0,.08v.17l-.19.23h-.12a.16.16,0,0,0-.11.05l-.59.67a.18.18,0,0,0,0,.09V40a.14.14,0,0,0,.14.14h.91V41a.14.14,0,0,0,.14.14h1.17a.15.15,0,0,0,.15-.14v-.91H30A.14.14,0,0,0,30.1,40V38.8A.14.14,0,0,0,30,38.66Zm-.14,1.17h-.91a.15.15,0,0,0-.14.14v.91h-.89V40a.14.14,0,0,0-.14-.14h-.9v-.3l.51-.59h.39a.14.14,0,0,0,.14-.14v-.49c.11-.13.23-.27.34-.42h.55v.91a.14.14,0,0,0,.14.14h.91Z" transform="translate(-0.07 -0.02)"/><path class="cls-1" d="M33.41,28.74h-.87a.14.14,0,0,0-.13.11,20.6,20.6,0,0,1-.61,2.21.16.16,0,0,0,0,.12.14.14,0,0,0,.12.06h.42a.14.14,0,0,0,.14-.14v-.9h.91a.14.14,0,0,0,.14-.14V28.88A.14.14,0,0,0,33.41,28.74Zm-.14,1.18h-.83c.07-.29.15-.59.22-.9h.61Z" transform="translate(-0.07 -0.02)"/><path class="cls-1" d="M9.46,36.77h.91v.9a.14.14,0,0,0,.14.14h1.17a.14.14,0,0,0,.14-.14v-.9h.91a.15.15,0,0,0,.14-.15V35.45a.14.14,0,0,0-.14-.14h-.91v-.9a.15.15,0,0,0-.14-.15H10.51a.15.15,0,0,0-.14.15v.9H9.46a.14.14,0,0,0-.14.14v1.17A.15.15,0,0,0,9.46,36.77Zm.14-1.18h.91a.14.14,0,0,0,.14-.14v-.9h.89v.9a.14.14,0,0,0,.14.14h.91v.9h-.91a.13.13,0,0,0-.14.13v.91h-.89v-.91a.13.13,0,0,0-.14-.13H9.6Z" transform="translate(-0.07 -0.02)"/><path class="cls-1" d="M9.46,43.46h.91v.9a.14.14,0,0,0,.14.14h1.17a.14.14,0,0,0,.14-.14v-.9h.91a.14.14,0,0,0,.14-.14V42.14a.14.14,0,0,0-.14-.14h-.91v-.9a.14.14,0,0,0-.14-.14H10.51a.14.14,0,0,0-.14.14V42H9.46a.15.15,0,0,0-.14.14v1.18A.15.15,0,0,0,9.46,43.46Zm.14-1.18h.91a.14.14,0,0,0,.14-.14v-.9h.89v.9a.14.14,0,0,0,.14.14h.91v.89h-.91a.15.15,0,0,0-.14.15v.9h-.89v-.9a.15.15,0,0,0-.14-.15H9.6Z" transform="translate(-0.07 -0.02)"/><path class="cls-1" d="M26.69,46.79h.91v.9a.15.15,0,0,0,.14.15h1.17a.15.15,0,0,0,.15-.15v-.9H30a.14.14,0,0,0,.14-.14V45.48a.14.14,0,0,0-.14-.14h-.9v-.91a.15.15,0,0,0-.15-.14H27.74a.14.14,0,0,0-.14.14v.91h-.91a.14.14,0,0,0-.14.14v1.17A.14.14,0,0,0,26.69,46.79Zm.15-1.17h.9a.14.14,0,0,0,.14-.14v-.91h.89v.91a.15.15,0,0,0,.14.14h.91v.89h-.91a.14.14,0,0,0-.14.14v.9h-.89v-.9a.14.14,0,0,0-.14-.14h-.9Z" transform="translate(-0.07 -0.02)"/><path class="cls-1" d="M19.8,46.79h.91v.9a.15.15,0,0,0,.14.15H22a.15.15,0,0,0,.14-.15v-.9h.91a.14.14,0,0,0,.14-.14V45.48a.14.14,0,0,0-.14-.14h-.91v-.91a.14.14,0,0,0-.14-.14H20.85a.14.14,0,0,0-.14.14v.91H19.8a.14.14,0,0,0-.14.14v1.17A.14.14,0,0,0,19.8,46.79Zm.14-1.17h.91a.14.14,0,0,0,.14-.14v-.91h.89v.91a.14.14,0,0,0,.14.14h.91v.89H22a.14.14,0,0,0-.14.14v.9H21v-.9a.14.14,0,0,0-.14-.14h-.91Z" transform="translate(-0.07 -0.02)"/><path class="cls-1" d="M12.77,45.48v1.17a.14.14,0,0,0,.14.14h.91v.9a.15.15,0,0,0,.14.15h1.17a.15.15,0,0,0,.14-.15v-.9h.91a.14.14,0,0,0,.14-.14V45.48a.14.14,0,0,0-.14-.14h-.91v-.91a.14.14,0,0,0-.14-.14H14a.14.14,0,0,0-.14.14v.91h-.91A.14.14,0,0,0,12.77,45.48Zm.28.14H14a.15.15,0,0,0,.14-.14v-.91H15v.91a.14.14,0,0,0,.14.14H16v.89h-.9a.14.14,0,0,0-.14.14v.9H14.1v-.9a.14.14,0,0,0-.14-.14h-.91Z" transform="translate(-0.07 -0.02)"/><path class="cls-1" d="M30.14,36.77h.91v.9a.14.14,0,0,0,.14.14h1.17a.14.14,0,0,0,.14-.14v-.9h.91a.15.15,0,0,0,.14-.15V35.45a.14.14,0,0,0-.14-.14H32.5v-.9a.15.15,0,0,0-.14-.15H31.19a.15.15,0,0,0-.14.15v.9h-.91a.14.14,0,0,0-.14.14v1.17A.15.15,0,0,0,30.14,36.77Zm.14-1.18h.91a.14.14,0,0,0,.14-.14v-.9h.89v.9a.14.14,0,0,0,.14.14h.91v.9h-.91a.13.13,0,0,0-.14.13v.91h-.89v-.91a.14.14,0,0,0-.14-.13h-.91Z" transform="translate(-0.07 -0.02)"/><path class="cls-1" d="M30.14,43.46h.91v.9a.14.14,0,0,0,.14.14h1.17a.14.14,0,0,0,.14-.14v-.9h.91a.14.14,0,0,0,.14-.14V42.14a.14.14,0,0,0-.14-.14H32.5v-.9a.14.14,0,0,0-.14-.14H31.19a.14.14,0,0,0-.14.14V42h-.91a.14.14,0,0,0-.14.14v1.18A.14.14,0,0,0,30.14,43.46Zm.14-1.18h.91a.14.14,0,0,0,.14-.14v-.9h.89v.9a.14.14,0,0,0,.14.14h.91v.89h-.91a.15.15,0,0,0-.14.15v.9h-.89v-.9a.15.15,0,0,0-.14-.15h-.91Z" transform="translate(-0.07 -0.02)"/></svg>