<?xml version="1.0" encoding="utf-8"?>
<svg version="1.1" id="uuid-dc617cd3-3ed4-4e4d-a5ee-c349e34667ba"
	 xmlns="http://www.w3.org/2000/svg" xmlns:xlink="http://www.w3.org/1999/xlink" x="0px" y="0px" viewBox="0 0 148.1 40"
	 style="enable-background:new 0 0 148.1 40;" xml:space="preserve">
<g>
	<path d="M0,40h40V0H0V40z M20,27.7c-6.9,0-12.4-3-12.4-6.8s5.6-6.8,12.4-6.8v-3.3c2.1,0,4.1,0.3,5.9,0.8L20,17.5v3.4l5.9-6
		c3.9,1.1,6.6,3.4,6.6,6C32.5,24.7,26.9,27.7,20,27.7"/>
	<path d="M52.8,26c-0.7,0-1.4-0.1-2-0.2c-0.6-0.2-1.1-0.4-1.5-0.7c-0.4-0.3-0.7-0.7-1-1.2c-0.2-0.5-0.3-1-0.4-1.6h2.5
		c0.1,0.6,0.3,1,0.7,1.3c0.4,0.3,0.9,0.4,1.6,0.4c0.2,0,0.5,0,0.7-0.1c0.2,0,0.4-0.1,0.6-0.2s0.3-0.2,0.4-0.4s0.2-0.4,0.2-0.6
		s-0.1-0.4-0.2-0.6c-0.1-0.2-0.3-0.3-0.5-0.4c-0.2-0.1-0.5-0.2-0.8-0.3c-0.3-0.1-0.7-0.2-1-0.3c-0.5-0.1-1-0.2-1.5-0.4
		c-0.5-0.1-0.9-0.3-1.2-0.6c-0.3-0.2-0.6-0.5-0.8-0.9c-0.2-0.4-0.3-0.8-0.3-1.4s0.1-1.1,0.3-1.5s0.5-0.7,0.9-1
		c0.4-0.3,0.8-0.5,1.3-0.6s1.1-0.2,1.7-0.2s1.1,0.1,1.7,0.2c0.5,0.1,0.9,0.3,1.3,0.6c0.4,0.3,0.7,0.6,0.9,1c0.2,0.4,0.4,0.9,0.4,1.4
		h-2.5c-0.1-0.4-0.3-0.8-0.6-1c-0.3-0.2-0.8-0.4-1.3-0.4c-0.5,0-0.9,0.1-1.2,0.3c-0.3,0.2-0.5,0.5-0.5,0.8c0,0.2,0.1,0.4,0.2,0.5
		s0.3,0.3,0.5,0.4c0.2,0.1,0.5,0.2,0.8,0.3c0.3,0.1,0.7,0.2,1.1,0.3c0.5,0.1,1,0.2,1.4,0.4c0.5,0.1,0.8,0.4,1.2,0.6
		c0.3,0.2,0.6,0.6,0.8,0.9c0.2,0.4,0.3,0.9,0.3,1.4s-0.1,1.1-0.3,1.5c-0.2,0.4-0.5,0.8-0.9,1.1c-0.4,0.3-0.9,0.5-1.4,0.7
		C54.1,25.9,53.5,26,52.8,26"/>
	<path d="M61.6,22.3l-0.8,0.8v2.6h-2.3V14.8h2.3v3.4c0,0.6,0,1.1,0,1.5c0,0.4,0,0.8,0,1l2.6-2.8h2.7l-2.8,2.9l3.1,4.9h-2.7
		L61.6,22.3L61.6,22.3z"/>
	<path d="M71.9,25.7c-0.1-0.1-0.1-0.2-0.2-0.4c0-0.2-0.1-0.4-0.1-0.6h0c-0.3,0.4-0.6,0.6-0.9,0.8c-0.4,0.2-0.8,0.3-1.4,0.3
		c-0.4,0-0.7,0-1.1-0.2c-0.3-0.1-0.6-0.2-0.8-0.4c-0.2-0.2-0.4-0.4-0.6-0.7c-0.1-0.3-0.2-0.6-0.2-1c0-0.4,0.1-0.8,0.2-1.1
		c0.2-0.3,0.4-0.5,0.6-0.7c0.3-0.2,0.6-0.3,1-0.4c0.4-0.1,0.8-0.2,1.2-0.2c0.7-0.1,1.2-0.2,1.5-0.3c0.3-0.1,0.5-0.4,0.5-0.6
		c0-0.3-0.1-0.5-0.3-0.7s-0.5-0.3-0.9-0.3c-0.4,0-0.8,0.1-1,0.3c-0.2,0.2-0.3,0.4-0.4,0.8h-2.1c0-0.3,0.1-0.7,0.2-1
		c0.2-0.3,0.4-0.6,0.6-0.8c0.3-0.2,0.6-0.4,1.1-0.6c0.4-0.1,0.9-0.2,1.5-0.2c0.5,0,0.9,0,1.3,0.1c0.4,0.1,0.7,0.2,0.9,0.4
		c0.4,0.2,0.7,0.5,0.9,0.9c0.2,0.4,0.3,0.9,0.3,1.4v4c0,0.6,0.1,1,0.3,1.1v0.1L71.9,25.7L71.9,25.7z M69.9,24.4
		c0.5,0,0.9-0.1,1.2-0.4c0.3-0.3,0.5-0.6,0.5-1.1v-1c-0.2,0.1-0.4,0.2-0.6,0.3c-0.2,0.1-0.5,0.1-0.7,0.2c-0.5,0.1-0.9,0.2-1.1,0.4
		s-0.4,0.4-0.4,0.8c0,0.3,0.1,0.6,0.3,0.7C69.4,24.3,69.6,24.4,69.9,24.4"/>
	<path d="M74.8,17.9H76v-2.5h2.3v2.5h1.5v1.5h-1.5v3.9c0,0.3,0.1,0.5,0.2,0.6c0.1,0.1,0.4,0.2,0.6,0.2c0.1,0,0.2,0,0.3,0
		c0.1,0,0.2,0,0.3,0h0.1v1.7c-0.1,0-0.3,0-0.5,0.1s-0.5,0-0.8,0c-0.4,0-0.7,0-1-0.1c-0.3-0.1-0.6-0.2-0.8-0.3
		c-0.2-0.2-0.4-0.4-0.5-0.6c-0.1-0.3-0.2-0.6-0.2-1v-4.4h-1.2L74.8,17.9L74.8,17.9z"/>
	<path d="M80.5,17.9h1.2v-2.5h2.3v2.5h1.5v1.5h-1.5v3.9c0,0.3,0.1,0.5,0.2,0.6s0.4,0.2,0.6,0.2c0.1,0,0.2,0,0.3,0c0.1,0,0.2,0,0.3,0
		h0.1v1.7c-0.1,0-0.3,0-0.5,0.1s-0.5,0-0.8,0c-0.4,0-0.7,0-1-0.1c-0.3-0.1-0.6-0.2-0.8-0.3c-0.2-0.2-0.4-0.4-0.5-0.6s-0.2-0.6-0.2-1
		v-4.4h-1.2L80.5,17.9L80.5,17.9z"/>
	<path d="M90.4,25.9c-0.6,0-1.2-0.1-1.7-0.3c-0.5-0.2-0.9-0.5-1.3-0.9c-0.4-0.4-0.6-0.8-0.8-1.3c-0.2-0.5-0.3-1-0.3-1.6
		c0-0.6,0.1-1.1,0.3-1.6c0.2-0.5,0.5-0.9,0.8-1.3c0.3-0.4,0.8-0.7,1.3-0.9c0.5-0.2,1-0.3,1.6-0.3c0.6,0,1.1,0.1,1.5,0.3
		c0.4,0.2,0.8,0.4,1.2,0.7c0.4,0.4,0.8,1,1,1.6c0.2,0.6,0.3,1.3,0.3,2.1h-5.7c0.1,0.6,0.3,1.1,0.6,1.4c0.3,0.3,0.8,0.5,1.3,0.5
		c0.4,0,0.7-0.1,0.9-0.2c0.2-0.1,0.4-0.3,0.5-0.6H94c-0.1,0.3-0.3,0.7-0.5,1c-0.2,0.3-0.5,0.6-0.8,0.8s-0.7,0.4-1.1,0.5
		C91.3,25.9,90.9,25.9,90.4,25.9 M90.2,19.3c-0.5,0-0.9,0.2-1.2,0.5c-0.3,0.3-0.4,0.7-0.5,1.3h3.3c0-0.5-0.2-1-0.5-1.3
		C91.1,19.4,90.7,19.3,90.2,19.3"/>
	<path d="M99.1,25.9c-0.6,0-1.2-0.1-1.7-0.3c-0.5-0.2-0.9-0.5-1.3-0.9c-0.4-0.4-0.6-0.8-0.8-1.3c-0.2-0.5-0.3-1-0.3-1.6
		c0-0.6,0.1-1.1,0.3-1.6c0.2-0.5,0.5-0.9,0.8-1.3c0.4-0.4,0.8-0.7,1.3-0.9c0.5-0.2,1-0.3,1.6-0.3c0.6,0,1.1,0.1,1.5,0.3
		c0.5,0.2,0.8,0.4,1.2,0.7c0.4,0.4,0.8,1,1,1.6c0.2,0.6,0.3,1.3,0.3,2.1h-5.7c0.1,0.6,0.3,1.1,0.6,1.4c0.3,0.3,0.8,0.5,1.3,0.5
		c0.4,0,0.7-0.1,0.9-0.2s0.4-0.3,0.5-0.6h2.2c-0.1,0.3-0.2,0.7-0.5,1c-0.2,0.3-0.5,0.6-0.8,0.8s-0.7,0.4-1.1,0.5
		C100.1,25.9,99.6,25.9,99.1,25.9 M99,19.3c-0.5,0-0.9,0.2-1.2,0.5c-0.3,0.3-0.5,0.7-0.5,1.3h3.3c0-0.5-0.2-1-0.5-1.3
		S99.4,19.3,99,19.3"/>
	<path d="M103.5,17.9h1.2v-2.5h2.3v2.5h1.5v1.5h-1.5v3.9c0,0.3,0.1,0.5,0.2,0.6c0.1,0.1,0.4,0.2,0.6,0.2c0.1,0,0.2,0,0.3,0
		c0.1,0,0.2,0,0.3,0h0.1v1.7c-0.1,0-0.3,0-0.5,0.1s-0.5,0-0.8,0c-0.4,0-0.7,0-1-0.1c-0.3-0.1-0.6-0.2-0.8-0.3
		c-0.2-0.2-0.4-0.4-0.5-0.6c-0.1-0.3-0.2-0.6-0.2-1v-4.4h-1.2L103.5,17.9L103.5,17.9z"/>
	<path d="M114.8,25.7c-0.1-0.1-0.1-0.2-0.2-0.4c-0.1-0.2-0.1-0.4-0.1-0.6h0c-0.3,0.4-0.6,0.6-0.9,0.8c-0.4,0.2-0.8,0.3-1.4,0.3
		c-0.4,0-0.7,0-1.1-0.2c-0.3-0.1-0.6-0.2-0.9-0.4c-0.2-0.2-0.4-0.4-0.6-0.7c-0.1-0.3-0.2-0.6-0.2-1c0-0.4,0.1-0.8,0.2-1.1
		c0.2-0.3,0.4-0.5,0.6-0.7s0.6-0.3,1-0.4c0.4-0.1,0.8-0.2,1.2-0.2c0.7-0.1,1.2-0.2,1.5-0.3c0.3-0.1,0.5-0.4,0.5-0.6
		c0-0.3-0.1-0.5-0.3-0.7s-0.5-0.3-0.9-0.3c-0.4,0-0.8,0.1-1,0.3c-0.2,0.2-0.3,0.4-0.4,0.8h-2.1c0-0.3,0.1-0.7,0.2-1
		c0.1-0.3,0.4-0.6,0.6-0.8c0.3-0.2,0.6-0.4,1.1-0.6c0.4-0.1,0.9-0.2,1.5-0.2c0.5,0,0.9,0,1.3,0.1c0.4,0.1,0.7,0.2,0.9,0.4
		c0.4,0.2,0.7,0.5,0.9,0.9c0.2,0.4,0.3,0.9,0.3,1.4v4c0,0.6,0.1,1,0.3,1.1v0.1L114.8,25.7L114.8,25.7z M112.9,24.4
		c0.5,0,0.9-0.1,1.2-0.4c0.3-0.3,0.5-0.6,0.5-1.1v-1c-0.2,0.1-0.4,0.2-0.6,0.3c-0.2,0.1-0.5,0.1-0.7,0.2c-0.5,0.1-0.9,0.2-1.1,0.4
		c-0.2,0.2-0.4,0.4-0.4,0.8c0,0.3,0.1,0.6,0.3,0.7C112.3,24.3,112.6,24.4,112.9,24.4"/>
	<path d="M117.8,17.9h1.2v-2.5h2.3v2.5h1.5v1.5h-1.5v3.9c0,0.3,0.1,0.5,0.2,0.6c0.1,0.1,0.4,0.2,0.6,0.2c0.1,0,0.2,0,0.3,0
		c0.1,0,0.2,0,0.3,0h0.1v1.7c-0.1,0-0.3,0-0.5,0.1c-0.2,0-0.5,0-0.8,0c-0.4,0-0.7,0-1-0.1c-0.3-0.1-0.6-0.2-0.8-0.3
		c-0.2-0.2-0.4-0.4-0.5-0.6s-0.2-0.6-0.2-1v-4.4h-1.2C117.8,19.4,117.8,17.9,117.8,17.9z"/>
	<path d="M127.7,25.9c-0.6,0-1.2-0.1-1.7-0.3c-0.5-0.2-0.9-0.5-1.3-0.9c-0.4-0.4-0.6-0.8-0.8-1.3c-0.2-0.5-0.3-1-0.3-1.6
		c0-0.6,0.1-1.1,0.3-1.6c0.2-0.5,0.5-0.9,0.8-1.3c0.3-0.4,0.8-0.7,1.3-0.9c0.5-0.2,1-0.3,1.6-0.3c0.6,0,1.1,0.1,1.5,0.3
		c0.4,0.2,0.8,0.4,1.2,0.7c0.4,0.4,0.8,1,1,1.6c0.2,0.6,0.3,1.3,0.3,2.1h-5.7c0.1,0.6,0.3,1.1,0.6,1.4c0.3,0.3,0.7,0.5,1.3,0.5
		c0.4,0,0.7-0.1,0.9-0.2c0.2-0.1,0.4-0.3,0.5-0.6h2.2c-0.1,0.3-0.3,0.7-0.5,1c-0.2,0.3-0.5,0.6-0.8,0.8s-0.7,0.4-1.1,0.5
		C128.6,25.9,128.2,25.9,127.7,25.9 M127.6,19.3c-0.5,0-0.9,0.2-1.2,0.5c-0.3,0.3-0.4,0.7-0.5,1.3h3.3c0-0.5-0.2-1-0.5-1.3
		C128.4,19.4,128,19.3,127.6,19.3"/>
	<path d="M134.9,19.1L134.9,19.1c0.3-0.5,0.6-0.8,1-1.1c0.4-0.2,0.9-0.4,1.4-0.4c0.9,0,1.5,0.3,2,0.8c0.5,0.5,0.7,1.2,0.7,2.1v5.1
		h-2.3V21c0-0.4-0.1-0.8-0.3-1c-0.2-0.3-0.5-0.4-1-0.4c-0.4,0-0.8,0.2-1.1,0.5c-0.3,0.3-0.4,0.7-0.4,1.2v4.4h-2.3v-7.8h2.2V19.1
		L134.9,19.1z"/>
</g>
</svg>
