<?xml version="1.0" encoding="UTF-8"?>
<svg id="Layer_1" data-name="Layer 1" xmlns="http://www.w3.org/2000/svg" xmlns:xlink="http://www.w3.org/1999/xlink" viewBox="0 0 200 200">
  <defs>
    <style>
      .cls-1, .cls-2, .cls-3, .cls-4, .cls-5, .cls-6, .cls-7, .cls-8, .cls-9, .cls-10 {
        fill: none;
      }

      .cls-11 {
        fill: #cde1f9;
      }

      .cls-2 {
        stroke: url(#New_Pattern_Swatch_2-4);
      }

      .cls-2, .cls-3, .cls-4, .cls-5, .cls-6, .cls-7, .cls-8, .cls-9, .cls-10 {
        stroke-miterlimit: 10;
      }

      .cls-2, .cls-10 {
        stroke-width: 2px;
      }

      .cls-12 {
        fill: url(#New_Pattern_Swatch_2-3);
      }

      .cls-13 {
        fill: url(#New_Pattern_Swatch_2-2);
      }

      .cls-14 {
        fill: url(#New_Pattern_Swatch_2-8);
      }

      .cls-15 {
        fill: url(#New_Pattern_Swatch_2-9);
      }

      .cls-16 {
        fill: #fff;
      }

      .cls-17 {
        fill: #093e61;
      }

      .cls-18 {
        fill: #1362ae;
      }

      .cls-3 {
        stroke: url(#New_Pattern_Swatch_2-14);
      }

      .cls-3, .cls-4, .cls-5, .cls-7, .cls-8, .cls-9 {
        stroke-width: 3px;
      }

      .cls-4 {
        stroke: url(#New_Pattern_Swatch_2-12);
      }

      .cls-5 {
        stroke: url(#New_Pattern_Swatch_2-13);
      }

      .cls-19 {
        fill: url(#New_Pattern_Swatch_2-10);
      }

      .cls-6 {
        stroke: #093e61;
        stroke-width: 6px;
      }

      .cls-20 {
        fill: url(#New_Pattern_Swatch_4);
      }

      .cls-21 {
        fill: url(#New_Pattern_Swatch_1);
      }

      .cls-22 {
        fill: url(#New_Pattern_Swatch_2);
      }

      .cls-7 {
        stroke: url(#New_Pattern_Swatch_2-6);
      }

      .cls-8 {
        stroke: url(#New_Pattern_Swatch_2-7);
      }

      .cls-9 {
        stroke: url(#New_Pattern_Swatch_2-5);
      }

      .cls-10 {
        stroke: url(#New_Pattern_Swatch_2-11);
      }
    </style>
    <pattern id="New_Pattern_Swatch_4" data-name="New Pattern Swatch 4" x="0" y="0" width="115.45" height="115.45" patternTransform="translate(-2195.06 -1873.3) scale(.7)" patternUnits="userSpaceOnUse" viewBox="0 0 115.45 115.45">
      <g>
        <rect class="cls-1" width="115.45" height="115.45"/>
        <rect class="cls-11" width="115.45" height="115.45"/>
      </g>
    </pattern>
    <pattern id="New_Pattern_Swatch_2" data-name="New Pattern Swatch 2" x="0" y="0" width="115.45" height="115.45" patternTransform="translate(-4198.14 -4100.76) scale(.45)" patternUnits="userSpaceOnUse" viewBox="0 0 115.45 115.45">
      <g>
        <rect class="cls-1" width="115.45" height="115.45"/>
        <rect class="cls-18" width="115.45" height="115.45"/>
      </g>
    </pattern>
    <pattern id="New_Pattern_Swatch_2-2" data-name="New Pattern Swatch 2" patternTransform="translate(-4197.24 -4084.99) scale(.45)" xlink:href="#New_Pattern_Swatch_2"/>
    <pattern id="New_Pattern_Swatch_2-3" data-name="New Pattern Swatch 2" patternTransform="translate(-4198.14 -4085.89) scale(.45)" xlink:href="#New_Pattern_Swatch_2"/>
    <pattern id="New_Pattern_Swatch_2-4" data-name="New Pattern Swatch 2" patternTransform="translate(-30.01 -12.89)" xlink:href="#New_Pattern_Swatch_2"/>
    <pattern id="New_Pattern_Swatch_2-5" data-name="New Pattern Swatch 2" patternTransform="translate(-30.01 -12.89)" xlink:href="#New_Pattern_Swatch_2"/>
    <pattern id="New_Pattern_Swatch_2-6" data-name="New Pattern Swatch 2" patternTransform="translate(-30.01 -12.89)" xlink:href="#New_Pattern_Swatch_2"/>
    <pattern id="New_Pattern_Swatch_2-7" data-name="New Pattern Swatch 2" patternTransform="translate(-30.01 -12.89)" xlink:href="#New_Pattern_Swatch_2"/>
    <pattern id="New_Pattern_Swatch_2-8" data-name="New Pattern Swatch 2" patternTransform="translate(-4109.25 -4100.76) scale(.45)" xlink:href="#New_Pattern_Swatch_2"/>
    <pattern id="New_Pattern_Swatch_2-9" data-name="New Pattern Swatch 2" patternTransform="translate(-4108.35 -4084.99) scale(.45)" xlink:href="#New_Pattern_Swatch_2"/>
    <pattern id="New_Pattern_Swatch_2-10" data-name="New Pattern Swatch 2" patternTransform="translate(-4109.25 -4085.89) scale(.45)" xlink:href="#New_Pattern_Swatch_2"/>
    <pattern id="New_Pattern_Swatch_2-11" data-name="New Pattern Swatch 2" patternTransform="translate(-30.01 -12.89)" xlink:href="#New_Pattern_Swatch_2"/>
    <pattern id="New_Pattern_Swatch_2-12" data-name="New Pattern Swatch 2" patternTransform="translate(-30.01 -12.89)" xlink:href="#New_Pattern_Swatch_2"/>
    <pattern id="New_Pattern_Swatch_2-13" data-name="New Pattern Swatch 2" patternTransform="translate(-30.01 -12.89)" xlink:href="#New_Pattern_Swatch_2"/>
    <pattern id="New_Pattern_Swatch_2-14" data-name="New Pattern Swatch 2" patternTransform="translate(-30.01 -12.89)" xlink:href="#New_Pattern_Swatch_2"/>
    <pattern id="New_Pattern_Swatch_1" data-name="New Pattern Swatch 1" x="0" y="0" width="115.45" height="115.45" patternTransform="translate(-30.01 -12.89)" patternUnits="userSpaceOnUse" viewBox="0 0 115.45 115.45">
      <g>
        <rect class="cls-1" width="115.45" height="115.45"/>
        <rect class="cls-17" width="115.45" height="115.45"/>
      </g>
    </pattern>
  </defs>
  <circle class="cls-20" cx="100" cy="106.46" r="55.44"/>
  <g>
    <g>
      <g>
        <rect class="cls-22" x="19.64" y="109.46" width="72.73" height="24.75"/>
        <path class="cls-13" d="M90.37,111.46v20.75H21.64v-20.75h68.73M92.37,109.46H19.64v24.75h72.73v-24.75h0Z"/>
      </g>
      <g>
        <rect class="cls-16" x="18.74" y="108.57" width="72.73" height="24.75"/>
        <path class="cls-12" d="M89.47,110.57v20.75H20.74v-20.75h68.73M91.47,108.57H18.74v24.75h72.73v-24.75h0Z"/>
      </g>
      <line class="cls-2" x1="69.73" y1="108.57" x2="69.73" y2="133.32"/>
      <polyline class="cls-9" points="85.55 118.89 80.92 122.79 76.3 118.89"/>
      <line class="cls-7" x1="24.2" y1="120.84" x2="59.89" y2="120.84"/>
    </g>
    <line class="cls-8" x1="18.74" y1="97.98" x2="82.9" y2="97.98"/>
    <line class="cls-6" x1="18.74" y1="69.48" x2="144.89" y2="69.48"/>
    <g>
      <g>
        <rect class="cls-14" x="108.53" y="109.46" width="72.73" height="24.75"/>
        <path class="cls-15" d="M179.26,111.46v20.75h-68.73v-20.75h68.73M181.26,109.46h-72.73v24.75h72.73v-24.75h0Z"/>
      </g>
      <g>
        <rect class="cls-16" x="107.63" y="108.57" width="72.73" height="24.75"/>
        <path class="cls-19" d="M178.36,110.57v20.75h-68.73v-20.75h68.73M180.36,108.57h-72.73v24.75h72.73v-24.75h0Z"/>
      </g>
      <line class="cls-10" x1="158.63" y1="108.57" x2="158.63" y2="133.32"/>
      <polyline class="cls-4" points="174.44 118.89 169.82 122.79 165.19 118.89"/>
      <line class="cls-5" x1="113.09" y1="120.84" x2="148.78" y2="120.84"/>
    </g>
    <line class="cls-3" x1="107.63" y1="97.98" x2="171.8" y2="97.98"/>
    <path id="a" class="cls-21" d="M164.19,74.7h2v-2h-2v2ZM165.19,58.7c-5.52,0-10,4.48-10,10s4.48,10,10,10,10-4.48,10-10-4.48-10-10-10ZM165.19,76.7c-4.41,0-8-3.59-8-8s3.59-8,8-8,8,3.59,8,8-3.59,8-8,8ZM165.19,62.7c-2.21,0-4,1.79-4,4h2c0-1.1.9-2,2-2s2,.9,2,2c0,2-3,1.75-3,5h2c0-2.25,3-2.5,3-5,0-2.21-1.79-4-4-4Z"/>
  </g>
</svg>