<?xml version="1.0" encoding="UTF-8"?>
<svg id="Layer_1" data-name="Layer 1" xmlns="http://www.w3.org/2000/svg" viewBox="0 0 320 320">
  <defs>
    <style>
      .cls-1 {
        fill: none;
      }

      .cls-1, .cls-2 {
        stroke: #1a1a1a;
        stroke-miterlimit: 10;
        stroke-width: 4px;
      }

      .cls-3 {
        fill: #f06674;
      }

      .cls-2 {
        fill: #fff;
      }
    </style>
  </defs>
  <path class="cls-2" d="M40.73,78.8h241.64c4.42,0,8,3.58,8,8v144.8H32.73V86.8c0-4.42,3.58-8,8-8Z"/>
  <path class="cls-3" d="M166.79-43.58h1.2V214.06h-3.68c-5.07,0-9.19-4.12-9.19-9.19V-31.9c0-6.45,5.23-11.68,11.68-11.68Z" transform="translate(246.79 -76.31) rotate(90)"/>
  <rect class="cls-3" x="155.11" y="90.36" width="12.88" height="257.64" transform="translate(380.72 57.63) rotate(90)"/>
  <path class="cls-3" d="M278.68,78.8h12.88v146.81h-3.47c-5.19,0-9.41-4.22-9.41-9.41V78.8h0Z" transform="translate(570.24 304.41) rotate(-180)"/>
  <path class="cls-3" d="M32.73,78.8h12.88v137.67c0,5.05-4.1,9.15-9.15,9.15h-3.73V78.8h0Z" transform="translate(78.34 304.41) rotate(-180)"/>
  <rect class="cls-3" x="91.85" y="78.8" width="12.88" height="146.81" transform="translate(196.59 304.41) rotate(-180)"/>
  <path class="cls-2" d="M299.88,222v15.2c0,2.21-1.79,4-4,4H24.12c-2.21,0-4-1.79-4-4v-15.2h117v1.8c0,2.21,1.79,4,4,4h37.76c2.21,0,4-1.79,4-4v-1.8h117Z"/>
  <path class="cls-1" d="M290.37,222V86.8c0-4.42-3.58-8-8-8H40.73c-4.42,0-8,3.58-8,8v135.2"/>
</svg>