<?xml version="1.0" encoding="UTF-8"?>
<svg xmlns="http://www.w3.org/2000/svg" viewBox="0 0 808 600"  focusable="false" aria-hidden="true"><path d="m370,0v116.34c78.64,24.02,136,97.27,136,183.66s-57.36,159.64-136,183.66v116.34h438V0h-438Z" style="fill:#0035ad;"/><path d="m474,300c0-68.53-43.31-127.13-104-149.88v299.76c60.69-22.75,104-81.35,104-149.88Z" style="fill:#0035ad;"/><path d="m370,116.34V0h-56v108c19.47,0,38.28,2.92,56,8.34Z" style="fill:#ffce00;"/><path d="m314,492v108h56v-116.34c-17.72,5.42-36.53,8.34-56,8.34Z" style="fill:#ffce00;"/><path d="m370,449.88V150.12c-17.44-6.54-36.31-10.12-56-10.12v320c19.69,0,38.56-3.58,56-10.12Z" style="fill:#ffce00;"/><path d="m258,449.92c17.43,6.51,36.3,10.08,56,10.08V140c-19.7,0-38.57,3.57-56,10.08v299.83Z" style="fill:#007229;"/><path d="m314,108V0h-56v116.31c17.72-5.39,36.52-8.31,56-8.31Z" style="fill:#007229;"/><path d="m258,483.69v116.31h56v-108c-19.48,0-38.28-2.91-56-8.31Z" style="fill:#007229;"/><path d="m122,300c0-86.56,57.28-159.73,136-183.69V0H0v600h258v-116.31c-78.72-23.97-136-97.14-136-183.69Z" style="fill:#dc241f;"/><path d="m154,300c0,68.66,43.26,127.22,104,149.92V150.08c-60.74,22.7-104,81.25-104,149.92Z" style="fill:#dc241f;"/><path d="m258,449.92c-60.74-22.7-104-81.25-104-149.92s43.26-127.22,104-149.92c17.43-6.51,36.3-10.08,56-10.08v-32c-19.48,0-38.28,2.91-56,8.31-78.72,23.97-136,97.14-136,183.69s57.28,159.73,136,183.69c17.72,5.39,36.52,8.31,56,8.31v-32c-19.7,0-38.57-3.57-56-10.08Z" style="fill:#0035ad;"/><path d="m314,140c19.69,0,38.56,3.58,56,10.12,60.69,22.75,104,81.35,104,149.88s-43.31,127.13-104,149.88c-17.44,6.54-36.31,10.12-56,10.12v32c19.47,0,38.28-2.92,56-8.34,78.64-24.02,136-97.27,136-183.66s-57.36-159.64-136-183.66c-17.72-5.42-36.53-8.34-56-8.34v32Z" style="fill:#dc241f;"/></svg>
