<?xml version="1.0" encoding="UTF-8"?>
<svg id="Layer_1" data-name="Layer 1" xmlns="http://www.w3.org/2000/svg" xmlns:xlink="http://www.w3.org/1999/xlink" viewBox="0 0 200 200">
  <defs>
    <style>
      .cls-1, .cls-2, .cls-3, .cls-4 {
        fill: none;
      }

      .cls-5 {
        fill: #cde1f9;
      }

      .cls-2 {
        stroke: url(#New_Pattern_Swatch_2);
        stroke-width: 4px;
      }

      .cls-2, .cls-6, .cls-3, .cls-4 {
        stroke-miterlimit: 10;
      }

      .cls-6 {
        fill: #fff;
      }

      .cls-6, .cls-3 {
        stroke-width: 6px;
      }

      .cls-6, .cls-3, .cls-4 {
        stroke: #093e61;
      }

      .cls-7 {
        fill: #1362ae;
      }

      .cls-4 {
        stroke-width: 10px;
      }

      .cls-8 {
        fill: url(#New_Pattern_Swatch_4);
      }
    </style>
    <pattern id="New_Pattern_Swatch_4" data-name="New Pattern Swatch 4" x="0" y="0" width="115.45" height="115.45" patternTransform="translate(-2709.79 -2709.9) scale(.7)" patternUnits="userSpaceOnUse" viewBox="0 0 115.45 115.45">
      <g>
        <rect class="cls-1" width="115.45" height="115.45"/>
        <rect class="cls-5" width="115.45" height="115.45"/>
      </g>
    </pattern>
    <pattern id="New_Pattern_Swatch_2" data-name="New Pattern Swatch 2" x="0" y="0" width="115.45" height="115.45" patternTransform="translate(-630 -437.87)" patternUnits="userSpaceOnUse" viewBox="0 0 115.45 115.45">
      <g>
        <rect class="cls-1" width="115.45" height="115.45"/>
        <rect class="cls-7" width="115.45" height="115.45"/>
      </g>
    </pattern>
  </defs>
  <circle class="cls-8" cx="72.25" cy="81.49" r="55.44"/>
  <line class="cls-4" x1="84.17" y1="106.05" x2="179.19" y2="106.05"/>
  <line class="cls-2" x1="83.45" y1="76.45" x2="178.47" y2="76.45"/>
  <line class="cls-2" x1="83.45" y1="117.67" x2="178.47" y2="117.67"/>
  <line class="cls-2" x1="83.45" y1="160.39" x2="178.47" y2="160.39"/>
  <line class="cls-4" x1="157.52" y1="63.45" x2="178.47" y2="63.45"/>
  <line class="cls-4" x1="83.45" y1="63.45" x2="145.61" y2="63.45"/>
  <g>
    <line class="cls-6" x1="33.77" y1="63.79" x2="63.38" y2="63.24"/>
    <polyline class="cls-3" points="51.95 50.17 63.38 63.24 52.44 76.73"/>
  </g>
  <g>
    <line class="cls-6" x1="33.77" y1="106.39" x2="63.38" y2="105.85"/>
    <polyline class="cls-3" points="51.95 92.77 63.38 105.85 52.44 119.34"/>
  </g>
  <line class="cls-4" x1="157.52" y1="148.66" x2="179.19" y2="148.66"/>
  <line class="cls-4" x1="84.17" y1="148.66" x2="145.61" y2="148.66"/>
  <g>
    <line class="cls-6" x1="33.77" y1="149" x2="63.38" y2="148.45"/>
    <polyline class="cls-3" points="51.95 135.38 63.38 148.45 52.44 161.94"/>
  </g>
</svg>