<?xml version="1.0" encoding="UTF-8"?>
<svg id="uuid-ddd3ac11-a4a7-4036-b3e1-38b0db0f0f38" data-name="uuid-dc617cd3-3ed4-4e4d-a5ee-c349e34667ba" xmlns="http://www.w3.org/2000/svg" viewBox="0 0 156.1 40">
  <g>
    <path d="m48.43,7.76h6.78v1.44h-2.54v7h-1.71v-7h-2.54v-1.44Z" style="stroke-width: 0px;"/>
    <path d="m57.74,10.93h.04c.44-.64.93-.96,1.76-.96,1.25,0,2.09.94,2.09,2.27v3.95h-1.6v-3.72c0-.65-.38-1.11-1.05-1.11-.71,0-1.23.57-1.23,1.39v3.43h-1.6V7.76h1.6v3.17Z" style="stroke-width: 0px;"/>
    <path d="m62.51,13.16c0-1.79,1.22-3.19,2.98-3.19,1.95,0,2.98,1.49,2.98,3.65h-4.39c.12.93.64,1.51,1.55,1.51.63,0,.99-.28,1.17-.74h1.58c-.22,1.07-1.18,1.98-2.74,1.98-2.01,0-3.14-1.4-3.14-3.21Zm1.6-.65h2.69c-.05-.77-.55-1.3-1.29-1.3-.85,0-1.26.51-1.4,1.3Z" style="stroke-width: 0px;"/>
    <path d="m71.71,7.76h1.73l2.81,4.71c.27.46.59,1.18.59,1.18h.02s-.05-.87-.05-1.46v-4.42h1.69v8.43h-1.65l-2.88-4.66c-.27-.45-.6-1.17-.6-1.17h-.02s.05.88.05,1.47v4.35h-1.69V7.76Z" style="stroke-width: 0px;"/>
    <path d="m79.57,13.17c0-1.8,1.29-3.2,3.16-3.2s3.16,1.39,3.16,3.2-1.29,3.2-3.16,3.2-3.16-1.39-3.16-3.2Zm4.7,0c0-1.18-.55-1.98-1.53-1.98s-1.53.8-1.53,1.98.54,1.97,1.53,1.97,1.53-.79,1.53-1.97Z" style="stroke-width: 0px;"/>
    <path d="m88.37,11.11h.04c.37-.68.78-1.04,1.49-1.04.18,0,.28.01.38.05v1.4h-.04c-1.05-.11-1.8.45-1.8,1.72v2.95h-1.6v-6.05h1.55v.97Z" style="stroke-width: 0px;"/>
    <path d="m90.8,10.14h1.59l.73,2.81c.13.5.27,1.13.27,1.13h.02s.13-.65.26-1.14l.76-2.8h1.37l.79,2.8c.13.51.28,1.14.28,1.14h.02s.14-.64.27-1.13l.77-2.81h1.56l-1.8,6.05h-1.46l-.8-2.97c-.13-.48-.27-1.05-.27-1.05h-.02s-.15.57-.28,1.05l-.83,2.97h-1.45l-1.77-6.05Z" style="stroke-width: 0px;"/>
    <path d="m99.78,13.16c0-1.79,1.22-3.19,2.98-3.19,1.95,0,2.98,1.49,2.98,3.65h-4.39c.12.93.64,1.51,1.55,1.51.63,0,.99-.28,1.17-.74h1.58c-.22,1.07-1.18,1.98-2.74,1.98-2.01,0-3.14-1.4-3.14-3.21Zm1.6-.65h2.69c-.05-.77-.55-1.3-1.29-1.3-.85,0-1.26.51-1.4,1.3Z" style="stroke-width: 0px;"/>
    <path d="m106.51,16.37h1.59c.13.38.47.67,1.22.67.91,0,1.34-.44,1.34-1.26v-.66h-.04c-.35.4-.81.71-1.58.71-1.34,0-2.67-1.06-2.67-2.89s1.09-2.96,2.62-2.96c.76,0,1.31.29,1.68.8h.02v-.64h1.55v5.59c0,.85-.27,1.43-.72,1.84-.51.47-1.29.68-2.18.68-1.65,0-2.67-.71-2.83-1.89Zm4.24-3.47c0-.88-.47-1.64-1.44-1.64-.81,0-1.36.64-1.36,1.65s.54,1.63,1.37,1.63c1.01,0,1.43-.74,1.43-1.64Z" style="stroke-width: 0px;"/>
    <path d="m113.71,7.76h1.6v1.44h-1.6v-1.44Zm0,2.38h1.6v6.05h-1.6v-6.05Z" style="stroke-width: 0px;"/>
    <path d="m120.4,15.52h-.02c-.31.46-.74.81-1.78.81-1.24,0-2.11-.65-2.11-1.85,0-1.33,1.09-1.76,2.43-1.95,1-.14,1.46-.22,1.46-.68,0-.44-.34-.72-1.01-.72-.76,0-1.12.27-1.17.85h-1.43c.05-1.06.84-1.99,2.61-1.99s2.55.81,2.55,2.23v3.08c0,.46.07.73.21.84v.06h-1.55c-.09-.12-.15-.4-.19-.67Zm.01-1.46v-.91c-.28.17-.72.26-1.12.35-.84.19-1.25.38-1.25.94s.38.77.94.77c.92,0,1.43-.57,1.43-1.16Z" style="stroke-width: 0px;"/>
    <path d="m124.69,10.97h.04c.41-.65.97-.99,1.79-.99,1.25,0,2.09.94,2.09,2.27v3.95h-1.6v-3.72c0-.65-.38-1.11-1.05-1.11-.71,0-1.23.57-1.23,1.39v3.43h-1.6v-6.05h1.57v.83Z" style="stroke-width: 0px;"/>
    <path d="m48.43,23.49h6.78v1.44h-2.54v7h-1.71v-7h-2.54v-1.44Z" style="stroke-width: 0px;"/>
    <path d="m58.4,31.25h-.02c-.31.46-.74.81-1.78.81-1.24,0-2.11-.65-2.11-1.85,0-1.33,1.09-1.76,2.43-1.95,1-.14,1.46-.22,1.46-.68,0-.44-.34-.72-1.01-.72-.76,0-1.12.27-1.17.85h-1.43c.05-1.06.84-1.99,2.61-1.99s2.55.81,2.55,2.23v3.08c0,.46.07.73.21.84v.06h-1.55c-.09-.12-.15-.4-.19-.67Zm.01-1.46v-.91c-.28.17-.72.26-1.12.35-.84.19-1.25.38-1.25.94s.38.77.94.77c.92,0,1.43-.57,1.43-1.16Z" style="stroke-width: 0px;"/>
    <path d="m62.91,28.72l-1.97-2.84h1.83l1.07,1.73h.02l1.01-1.73h1.66l-1.88,2.83,2.16,3.22h-1.91l-1.12-2.01h-.02l-1.31,2.01h-1.76l2.21-3.21Z" style="stroke-width: 0px;"/>
    <path d="m72.25,23.49h1.77l2.97,8.43h-1.78l-.57-1.79h-3.04l-.55,1.79h-1.73l2.94-8.43Zm-.25,5.33h2.23l-.76-2.43c-.14-.45-.34-1.3-.34-1.3h-.02s-.21.85-.35,1.3l-.76,2.43Z" style="stroke-width: 0px;"/>
    <path d="m77.23,28.9c0-1.89,1.07-3.2,2.58-3.2.85,0,1.38.39,1.71.9h.04v-3.11h1.6v8.43h-1.55v-.79h-.02c-.35.58-.96.97-1.8.97-1.52,0-2.56-1.24-2.56-3.2Zm4.36.04c0-1.16-.38-1.93-1.4-1.93-.88,0-1.33.78-1.33,1.9s.46,1.85,1.29,1.85c.96,0,1.45-.71,1.45-1.82Z" style="stroke-width: 0px;"/>
    <path d="m84.63,25.87h1.55v.81h.04c.33-.55.92-.98,1.76-.98.77,0,1.38.42,1.68,1.06h.02c.41-.66,1.05-1.06,1.82-1.06,1.27,0,1.99.83,1.99,2.15v4.07h-1.6v-3.8c0-.68-.34-1.04-.93-1.04-.67,0-1.09.52-1.09,1.32v3.52h-1.6v-3.8c0-.68-.34-1.04-.93-1.04-.65,0-1.09.52-1.09,1.32v3.52h-1.6v-6.05Z" style="stroke-width: 0px;"/>
    <path d="m94.89,23.49h1.6v1.44h-1.6v-1.44Zm0,2.38h1.6v6.05h-1.6v-6.05Z" style="stroke-width: 0px;"/>
    <path d="m99.53,26.7h.04c.41-.65.97-.99,1.79-.99,1.25,0,2.09.94,2.09,2.27v3.95h-1.6v-3.72c0-.65-.38-1.11-1.05-1.11-.71,0-1.23.57-1.23,1.39v3.43h-1.6v-6.05h1.57v.83Z" style="stroke-width: 0px;"/>
    <path d="m104.86,23.49h1.6v1.44h-1.6v-1.44Zm0,2.38h1.6v6.05h-1.6v-6.05Z" style="stroke-width: 0px;"/>
    <path d="m107.55,29.97h1.49c.11.7.6,1,1.32,1s1.11-.27,1.11-.7c0-.58-.77-.64-1.59-.8-1.09-.21-2.15-.51-2.15-1.83s1.09-1.93,2.47-1.93c1.59,0,2.48.79,2.6,2.01h-1.45c-.07-.65-.48-.88-1.17-.88-.63,0-1.04.24-1.04.67,0,.52.8.57,1.66.74,1.01.21,2.14.5,2.14,1.91,0,1.22-1.04,1.95-2.55,1.95-1.76,0-2.74-.85-2.83-2.14Z" style="stroke-width: 0px;"/>
    <path d="m113.37,25.87h.84v-1.89h1.57v1.89h1.04v1.06h-1.04v3.21c0,.45.25.6.6.6.2,0,.47-.01.47-.01v1.18s-.37.02-1,.02c-.78,0-1.64-.31-1.64-1.45v-3.55h-.84v-1.06Z" style="stroke-width: 0px;"/>
    <path d="m119.37,26.84h.04c.37-.68.78-1.04,1.49-1.04.18,0,.28.01.38.05v1.4h-.04c-1.05-.11-1.8.45-1.8,1.72v2.95h-1.6v-6.05h1.55v.97Z" style="stroke-width: 0px;"/>
    <path d="m125.6,31.25h-.02c-.31.46-.74.81-1.78.81-1.24,0-2.11-.65-2.11-1.85,0-1.33,1.09-1.76,2.43-1.95,1-.14,1.46-.22,1.46-.68,0-.44-.34-.72-1.01-.72-.76,0-1.12.27-1.17.85h-1.43c.05-1.06.84-1.99,2.61-1.99s2.55.81,2.55,2.23v3.08c0,.46.07.73.21.84v.06h-1.55c-.09-.12-.15-.4-.19-.67Zm.01-1.46v-.91c-.28.17-.72.26-1.12.35-.84.19-1.25.38-1.25.94s.38.77.94.77c.92,0,1.43-.57,1.43-1.16Z" style="stroke-width: 0px;"/>
    <path d="m127.85,25.87h.84v-1.89h1.57v1.89h1.04v1.06h-1.04v3.21c0,.45.25.6.6.6.2,0,.47-.01.47-.01v1.18s-.37.02-1,.02c-.78,0-1.64-.31-1.64-1.45v-3.55h-.84v-1.06Z" style="stroke-width: 0px;"/>
    <path d="m132.55,23.49h1.6v1.44h-1.6v-1.44Zm0,2.38h1.6v6.05h-1.6v-6.05Z" style="stroke-width: 0px;"/>
    <path d="m135.09,28.9c0-1.8,1.29-3.2,3.16-3.2s3.16,1.39,3.16,3.2-1.29,3.2-3.16,3.2-3.16-1.39-3.16-3.2Zm4.7,0c0-1.18-.55-1.98-1.53-1.98s-1.53.8-1.53,1.98.54,1.97,1.53,1.97,1.53-.79,1.53-1.97Z" style="stroke-width: 0px;"/>
    <path d="m143.91,26.7h.04c.41-.65.97-.99,1.79-.99,1.25,0,2.09.94,2.09,2.27v3.95h-1.6v-3.72c0-.65-.38-1.11-1.05-1.11-.71,0-1.23.57-1.23,1.39v3.43h-1.6v-6.05h1.57v.83Z" style="stroke-width: 0px;"/>
  </g>
  <g>
    <path d="m40,0v40H0V0h40Zm-7.53,20.94c0-2.59-2.65-4.84-6.56-5.98l-5.88,5.98v-3.41l5.88-5.92c-1.75-.52-3.78-.81-5.91-.81v3.35c-6.86,0-12.41,3.04-12.41,6.78s5.57,6.78,12.44,6.78,12.44-3.04,12.44-6.78Z" style="stroke-width: 0px;"/>
    <path d="m25.91,14.96c3.9,1.14,6.56,3.39,6.56,5.98,0,3.75-5.57,6.78-12.44,6.78s-12.44-3.04-12.44-6.78,5.56-6.78,12.42-6.78v-3.35c2.12,0,4.15.29,5.9.81l-5.88,5.92v3.41l5.88-5.98Z" style="fill: #fff; stroke-width: 0px;"/>
  </g>
</svg>